<?xml version="1.0" standalone="no"?>
<!DOCTYPE svg PUBLIC "-//W3C//DTD SVG 1.1//EN" "http://www.w3.org/Graphics/SVG/1.1/DTD/svg11.dtd" >
<svg xmlns="http://www.w3.org/2000/svg" xmlns:xlink="http://www.w3.org/1999/xlink" version="1.1">
<metadata>
Created by FontForge 20170731 at Mon Mar 13 11:03:56 2023
 By Aleksey,,,
</metadata>
<defs>
<font id="Gilroy-Regular" horiz-adv-x="636" >
  <font-face 
    font-family="Gilroy-Regular"
    font-weight="400"
    font-stretch="normal"
    units-per-em="1000"
    panose-1="0 0 5 0 0 0 0 0 0 0"
    ascent="775"
    descent="-225"
    x-height="500"
    cap-height="700"
    bbox="-317 -240 1009 960"
    underline-thickness="50"
    underline-position="-200"
    unicode-range="U+000D-FB04"
  />
<missing-glyph horiz-adv-x="500" 
d="M410 800v-1000h-317v1000h317zM333 733h-165v-33h65v-37h-66v-33h166v33h-66v37h66v33zM267 604h-100v-104h166v34h-66v70zM233 570v-36h-33v36h33zM333 473h-166v-33h66v-37h-66v-33h100v70h66v33zM333 413h-33v-66h-133v-34h166v100zM333 291h-100v-56h34v23h33v-47
h-100v80h-33v-113h166v113zM333 118h-166v-113h166v113zM300 85v-47h-100v47h100zM333 -18h-166v-33h70l-70 -47v-33h166v33h-102l70 47h32v33z" />
    <glyph glyph-name="fi" unicode="fi" horiz-adv-x="516" 
d="M446 500v-500h-66v436h-204v-436h-66v436h-85v64h85v20q0 192 210 192q42 0 96 -12v-60q-47 8 -96 8q-75 0 -109.5 -29t-34.5 -99v-20h270z" />
    <glyph glyph-name="fl" unicode="fl" horiz-adv-x="516" 
d="M320 712q58 0 126 -12v-700h-66v649q-32 3 -60 3q-74 0 -109 -30.5t-35 -101.5v-20h114v-64h-114v-436h-66v436h-85v64h85v20q0 192 210 192z" />
    <glyph glyph-name="f_f" unicode="ff" horiz-adv-x="590" 
d="M590 658q-73 6 -108.5 -25t-35.5 -103v-30h144v-64h-144v-436h-66v436h-204v-436h-66v436h-85v64h85v20q0 98 54.5 148.5t155.5 43.5v-64q-73 6 -108.5 -25t-35.5 -103v-20h204v30q0 98 54.5 148.5t155.5 43.5v-64z" />
    <glyph glyph-name="f_f_i" unicode="ffi" horiz-adv-x="786" 
d="M716 500v-500h-66v436h-204v-436h-66v436h-204v-436h-66v436h-85v64h85v20q0 98 54.5 148.5t155.5 43.5v-64q-73 6 -108.5 -25t-35.5 -103v-20h204v30q0 192 210 192q42 0 96 -12v-60q-47 8 -96 8q-75 0 -109.5 -29t-34.5 -99v-30h270z" />
    <glyph glyph-name="f_f_l" unicode="ffl" horiz-adv-x="786" 
d="M590 722q58 0 126 -12v-710h-66v659q-31 3 -60 3q-74 0 -109 -30.5t-35 -101.5v-30h114v-64h-114v-436h-66v436h-204v-436h-66v436h-85v64h85v20q0 98 54.5 148.5t155.5 43.5v-64q-73 6 -108.5 -25t-35.5 -103v-20h204v30q0 192 210 192z" />
    <glyph glyph-name=".notdef" horiz-adv-x="500" 
d="M410 800v-1000h-317v1000h317zM333 733h-165v-33h65v-37h-66v-33h166v33h-66v37h66v33zM267 604h-100v-104h166v34h-66v70zM233 570v-36h-33v36h33zM333 473h-166v-33h66v-37h-66v-33h100v70h66v33zM333 413h-33v-66h-133v-34h166v100zM333 291h-100v-56h34v23h33v-47
h-100v80h-33v-113h166v113zM333 118h-166v-113h166v113zM300 85v-47h-100v47h100zM333 -18h-166v-33h70l-70 -47v-33h166v33h-102l70 47h32v33z" />
    <glyph glyph-name=".null" horiz-adv-x="0" 
 />
    <glyph glyph-name=".null" horiz-adv-x="0" 
 />
    <glyph glyph-name="nonmarkingreturn" unicode="&#xd;" horiz-adv-x="333" 
 />
    <glyph glyph-name="glyph8" horiz-adv-x="500" 
d="M410 800v-1000h-317v1000h317zM333 733h-165v-33h65v-37h-66v-33h166v33h-66v37h66v33zM267 604h-100v-104h166v34h-66v70zM233 570v-36h-33v36h33zM333 473h-166v-33h66v-37h-66v-33h100v70h66v33zM333 413h-33v-66h-133v-34h166v100zM333 291h-100v-56h34v23h33v-47
h-100v80h-33v-113h166v113zM333 118h-166v-113h166v113zM300 85v-47h-100v47h100zM333 -18h-166v-33h70l-70 -47v-33h166v33h-102l70 47h32v33z" />
    <glyph glyph-name="space" unicode=" " horiz-adv-x="250" 
 />
    <glyph glyph-name="exclam" unicode="!" horiz-adv-x="230" 
d="M90 190l-15 310v200h80v-200l-15 -310h-50zM115 -10q-23 0 -39 16t-16 39t16 39t39 16t39 -16t16 -39t-16 -39t-39 -16z" />
    <glyph glyph-name="quotedbl" unicode="&#x22;" horiz-adv-x="310" 
d="M60 500l-10 200h70l-10 -200h-50zM200 500l-10 200h70l-10 -200h-50z" />
    <glyph glyph-name="numbersign" unicode="#" horiz-adv-x="599" 
d="M559 410h-119l-20 -120h120l-10 -60h-120l-30 -180h-64l30 180h-132l-30 -180h-64l30 180h-120l10 60h120l20 120h-121l10 60h121l30 180h64l-30 -180h132l30 180h64l-30 -180h119zM356 290l20 120h-132l-20 -120h132z" />
    <glyph glyph-name="dollar" unicode="$" horiz-adv-x="550" 
d="M510 182q0 -78 -53 -130.5t-137 -61.5v-90h-60v89q-81 5 -138 43t-82 102l60 35q37 -102 160 -112v276q-45 16 -72.5 29t-56.5 35t-42.5 54t-13.5 75q0 78 52.5 127.5t132.5 57.5v89h60v-90q59 -7 105 -40t70 -89l-59 -33q-32 80 -116 93v-260q44 -15 73 -29t58.5 -37
t44 -56t14.5 -77zM145 526q0 -46 28 -73t87 -50v239q-52 -6 -83.5 -36.5t-31.5 -79.5zM320 58q56 8 88 41t32 83q0 49 -30 77.5t-90 52.5v-254z" />
    <glyph glyph-name="percent" unicode="%" horiz-adv-x="709" 
d="M213 412q-65 0 -109 43.5t-44 106.5t44 106.5t109 43.5t109 -43.5t44 -106.5t-43 -106.5t-110 -43.5zM213 472q39 0 64 26t25 64t-25 64t-64 26t-64 -26t-25 -64t25 -64t64 -26zM95 95l469 527l43 -24l-470 -527zM496 -12q-65 0 -109 43.5t-44 106.5t44 106.5t109 43.5
t109 -43.5t44 -106.5t-44 -106.5t-109 -43.5zM496 48q39 0 64 26t25 64t-25 64t-64 26t-64 -26t-25 -64t25 -64t64 -26z" />
    <glyph glyph-name="ampersand" unicode="&#x26;" horiz-adv-x="657" 
d="M632 23l-62 -35l-74 79q-79 -79 -206 -79q-103 0 -166.5 53.5t-63.5 144.5q0 66 34 119t101 84q-52 59 -52 132q0 87 60 139t140 52q67 0 122.5 -37.5t79.5 -101.5l-59 -34q-15 49 -53.5 77t-88.5 28q-54 0 -92.5 -33t-38.5 -86q0 -35 16.5 -63t48.5 -62l211 -225
q29 57 38 133l62 -36q-13 -87 -51 -149zM288 56q100 0 160 62l-206 219q-59 -22 -85.5 -62.5t-26.5 -86.5q0 -61 42.5 -96.5t115.5 -35.5z" />
    <glyph glyph-name="quotesingle" unicode="'" horiz-adv-x="170" 
d="M60 500l-10 200h70l-10 -200h-50z" />
    <glyph glyph-name="parenleft" unicode="(" horiz-adv-x="266" 
d="M170 -100q-110 220 -110 450t110 450h66q-110 -220 -110 -450t110 -450h-66z" />
    <glyph glyph-name="parenright" unicode=")" horiz-adv-x="266" 
d="M96 -100h-66q110 220 110 450t-110 450h66q110 -220 110 -450t-110 -450z" />
    <glyph glyph-name="asterisk" unicode="*" horiz-adv-x="392" 
d="M332 610v-56l-91 3l52 -75l-51 -30l-46 81l-46 -81l-51 30l52 75l-91 -3v56l91 -3l-52 75l51 30l46 -81l46 81l51 -30l-52 -75z" />
    <glyph glyph-name="plus" unicode="+" horiz-adv-x="540" 
d="M480 382v-64h-178v-178h-64v178h-178v64h178v178h64v-178h178z" />
    <glyph glyph-name="comma" unicode="," horiz-adv-x="240" 
d="M180 85l-60 -225h-60l40 225h80z" />
    <glyph glyph-name="hyphen" unicode="-" horiz-adv-x="520" 
d="M80 277v64h360v-64h-360z" />
    <glyph glyph-name="period" unicode="." horiz-adv-x="230" 
d="M115 -10q-23 0 -39 16t-16 39t16 39t39 16t39 -16t16 -39t-16 -39t-39 -16z" />
    <glyph glyph-name="slash" unicode="/" horiz-adv-x="530" 
d="M90 -100h-50l400 900h50z" />
    <glyph glyph-name="zero" unicode="0" horiz-adv-x="630" 
d="M315 -12q-126 0 -195.5 98.5t-69.5 263.5t69.5 263.5t195.5 98.5t195.5 -98.5t69.5 -263.5t-69.5 -263.5t-195.5 -98.5zM315 56q92 0 143.5 77t51.5 217t-51.5 217t-143.5 77t-143.5 -77t-51.5 -217t51.5 -217t143.5 -77z" />
    <glyph glyph-name="one" unicode="1" horiz-adv-x="340" 
d="M200 700h60v-700h-70v623l-157 -47l-18 60z" />
    <glyph glyph-name="two" unicode="2" horiz-adv-x="525" 
d="M40 0v63l252 254q108 108 108 185q0 67 -41.5 104.5t-99.5 37.5q-108 0 -157 -99l-59 35q33 65 90 98.5t126 33.5q84 0 147.5 -56.5t63.5 -153.5q0 -61 -34 -117t-96 -118l-200 -199h345v-68h-445z" />
    <glyph glyph-name="three" unicode="3" horiz-adv-x="530" 
d="M297 409q84 -11 138.5 -64.5t54.5 -141.5q0 -100 -68.5 -157.5t-166.5 -57.5q-78 0 -139 36t-86 103l58 34q17 -52 61 -78.5t106 -26.5q72 0 118.5 38.5t46.5 108.5t-46.5 108.5t-118.5 38.5v1l-1 -1h-19l-30 46l174 238h-329v66h410v-66z" />
    <glyph glyph-name="four" unicode="4" horiz-adv-x="580" 
d="M555 206v-66h-90v-140h-70v140h-370v66l260 494h77l-260 -494h293v214h70v-214h90z" />
    <glyph glyph-name="five" unicode="5" horiz-adv-x="540" 
d="M265 418q98 0 166.5 -57.5t68.5 -157.5t-68.5 -157.5t-166.5 -57.5q-79 0 -141 38.5t-84 110.5l59 34q15 -56 59.5 -85.5t106.5 -29.5q72 0 118.5 38.5t46.5 108.5t-46.5 108.5t-118.5 38.5h-190l25 350h375v-66h-313l-15 -216h118z" />
    <glyph glyph-name="six" unicode="6" horiz-adv-x="530" 
d="M265 450q103 0 169 -64.5t66 -166.5t-66 -166.5t-169 -64.5t-169 64.5t-66 166.5q0 79 43 140l229 341h79l-172 -256q27 6 56 6zM265 56q74 0 119.5 45t45.5 118t-45.5 118t-119.5 45t-119.5 -45t-45.5 -118t45.5 -118t119.5 -45z" />
    <glyph glyph-name="seven" unicode="7" horiz-adv-x="490" 
d="M20 700h430v-66l-264 -634h-73l264 634h-357v66z" />
    <glyph glyph-name="eight" unicode="8" horiz-adv-x="548" 
d="M392 361q53 -25 84.5 -69.5t31.5 -101.5q0 -95 -67 -148.5t-167 -53.5t-167 53.5t-67 148.5q0 57 31.5 101.5t84.5 69.5q-93 53 -93 157q0 94 62.5 144t148.5 50t148.5 -50t62.5 -144q0 -104 -93 -157zM274 644q-60 0 -100.5 -31t-40.5 -95q0 -60 41.5 -93t99.5 -33
t99.5 33t41.5 93q0 64 -40.5 95t-100.5 31zM274 56q74 0 119 34.5t45 99.5t-45 99.5t-119 34.5t-119 -34.5t-45 -99.5t45 -99.5t119 -34.5z" />
    <glyph glyph-name="nine" unicode="9" horiz-adv-x="530" 
d="M500 481q0 -79 -43 -140l-229 -341h-79l172 256q-27 -6 -56 -6q-103 0 -169 64.5t-66 166.5t66 166.5t169 64.5t169 -64.5t66 -166.5zM100 481q0 -73 45.5 -118t119.5 -45t119.5 45t45.5 118t-45.5 118t-119.5 45t-119.5 -45t-45.5 -118z" />
    <glyph glyph-name="colon" unicode=":" horiz-adv-x="230" 
d="M115 400q-23 0 -39 16t-16 39t16 39t39 16t39 -16t16 -39t-16 -39t-39 -16zM115 -10q-23 0 -39 16t-16 39t16 39t39 16t39 -16t16 -39t-16 -39t-39 -16z" />
    <glyph glyph-name="semicolon" unicode=";" horiz-adv-x="245" 
d="M130 400q-23 0 -39 16t-16 39t16 39t39 16t39 -16t16 -39t-16 -39t-39 -16zM180 85l-60 -225h-60l40 225h80z" />
    <glyph glyph-name="less" unicode="&#x3c;" horiz-adv-x="520" 
d="M460 560v-74l-325 -136l325 -136v-74l-400 175v70z" />
    <glyph glyph-name="equal" unicode="=" horiz-adv-x="540" 
d="M60 418v64h420v-64h-420zM60 218v64h420v-64h-420z" />
    <glyph glyph-name="greater" unicode="&#x3e;" horiz-adv-x="520" 
d="M60 560l400 -175v-70l-400 -175v74l325 136l-325 136v74z" />
    <glyph glyph-name="question" unicode="?" horiz-adv-x="532" 
d="M210 190q0 49 20 89.5t48 68.5t56 54t48 57.5t20 67.5q0 58 -39.5 87.5t-101.5 29.5q-123 0 -152 -101l-59 33q23 67 80.5 101.5t130.5 34.5q88 0 149.5 -48.5t61.5 -136.5q0 -43 -20 -80t-48 -64.5t-56 -54.5t-48 -62.5t-20 -75.5h-70zM245 -10q-23 0 -39 16t-16 39
t16 39t39 16t39 -16t16 -39t-16 -39t-39 -16z" />
    <glyph glyph-name="at" unicode="@" horiz-adv-x="794" 
d="M404 612q106 0 188 -51.5t122 -128.5t40 -162q0 -106 -43 -159t-101 -53q-42 0 -72 21.5t-40 64.5q-43 -54 -111 -54q-69 0 -115.5 46t-46.5 114t46.5 114t115.5 46q64 0 106 -48v41h62v-216q0 -96 65 -96q44 0 74 43.5t30 135.5q0 134 -92.5 224t-227.5 90
q-139 0 -236.5 -96t-97.5 -238q0 -145 100 -239.5t252 -94.5q101 0 174 29v-30q-75 -27 -174 -27q-164 0 -273 102.5t-109 259.5q0 151 104.5 256.5t259.5 105.5zM391 150q43 0 72.5 27.5t29.5 72.5t-29.5 72.5t-72.5 27.5t-73.5 -27.5t-30.5 -72.5t30.5 -72.5t73.5 -27.5z
" />
    <glyph glyph-name="A" unicode="A" horiz-adv-x="630" 
d="M546 0l-65 172h-332l-65 -172h-74l269 700h72l269 -700h-74zM174 238h282l-141 375z" />
    <glyph glyph-name="B" unicode="B" horiz-adv-x="620" 
d="M468 363q51 -22 81.5 -66.5t30.5 -101.5q0 -81 -57 -138t-138 -57h-305v700h282q78 0 133 -55.5t55 -132.5q0 -98 -82 -149zM362 634h-212v-244h212q49 0 83.5 35.5t34.5 86.5q0 50 -34.5 86t-83.5 36zM385 66q52 0 88.5 37.5t36.5 91.5q0 53 -36.5 91t-88.5 38h-235
v-258h235z" />
    <glyph glyph-name="C" unicode="C" horiz-adv-x="745" 
d="M407 -12q-159 0 -263 105t-104 257t104 257t263 105q97 0 178 -46.5t125 -125.5l-62 -36q-33 64 -98 102t-143 38q-131 0 -214 -85t-83 -209t83 -209t214 -85q78 0 143 38t98 102l62 -35q-43 -79 -124.5 -126t-178.5 -47z" />
    <glyph glyph-name="D" unicode="D" horiz-adv-x="720" 
d="M350 700q143 0 236.5 -101.5t93.5 -248.5t-93.5 -248.5t-236.5 -101.5h-270v700h270zM350 66q115 0 188.5 82t73.5 202t-73.5 202t-188.5 82h-200v-568h200z" />
    <glyph glyph-name="E" unicode="E" horiz-adv-x="530" 
d="M150 66h340v-66h-410v700h405v-66h-335v-248h310v-66h-310v-254z" />
    <glyph glyph-name="F" unicode="F" horiz-adv-x="515" 
d="M475 634h-325v-258h310v-66h-310v-310h-70v700h395v-66z" />
    <glyph glyph-name="G" unicode="G" horiz-adv-x="789" 
d="M749 333v-36q0 -130 -93 -219.5t-249 -89.5q-159 0 -263 105t-104 257t104 257t263 105q97 0 178 -47t125 -125l-62 -36q-33 64 -98 102t-143 38q-131 0 -214 -85t-83 -209t83 -209t214 -85q118 0 189 59.5t81 151.5h-278v66h350z" />
    <glyph glyph-name="H" unicode="H" horiz-adv-x="680" 
d="M530 700h70v-700h-70v327h-380v-327h-70v700h70v-307h380v307z" />
    <glyph glyph-name="I" unicode="I" horiz-adv-x="230" 
d="M80 700h70v-700h-70v700z" />
    <glyph glyph-name="J" unicode="J" horiz-adv-x="553" 
d="M253 -12q-73 0 -130.5 30.5t-82.5 89.5l59 35q33 -87 154 -87q73 0 116.5 35t43.5 107v502h70v-502q0 -102 -65.5 -156t-164.5 -54z" />
    <glyph glyph-name="K" unicode="K" horiz-adv-x="580" 
d="M570 0h-92l-328 339v-339h-70v700h70v-320l318 320h92l-336 -340z" />
    <glyph glyph-name="L" unicode="L" horiz-adv-x="490" 
d="M150 66h320v-66h-390v700h70v-634z" />
    <glyph glyph-name="M" unicode="M" horiz-adv-x="800" 
d="M720 700v-700h-70v594l-245 -410h-10l-245 410v-594h-70v700h87l233 -390l233 390h87z" />
    <glyph glyph-name="N" unicode="N" horiz-adv-x="680" 
d="M530 700h70v-700h-60l-390 570v-570h-70v700h60l390 -570v570z" />
    <glyph glyph-name="O" unicode="O" horiz-adv-x="804" 
d="M402 -12q-152 0 -257 105.5t-105 256.5t105 256.5t257 105.5t257 -105.5t105 -256.5t-105 -256.5t-257 -105.5zM402 56q124 0 208 85.5t84 208.5t-84 208.5t-208 85.5t-208 -85.5t-84 -208.5t84 -208.5t208 -85.5z" />
    <glyph glyph-name="P" unicode="P" horiz-adv-x="590" 
d="M330 700q94 0 157 -63t63 -157t-63 -157t-157 -63h-180v-260h-70v700h250zM330 326q65 0 107.5 43.5t42.5 110.5t-42.5 110.5t-107.5 43.5h-180v-308h180z" />
    <glyph glyph-name="Q" unicode="Q" horiz-adv-x="809" 
d="M764 350q0 -150 -106 -256l80 -78l-47 -43l-81 80q-94 -65 -208 -65q-150 0 -256 106t-106 256t106 256t256 106t256 -106t106 -256zM402 56q85 0 158 46l-152 150l47 43l155 -152q84 86 84 207q0 122 -85.5 208t-206.5 86t-206.5 -86t-85.5 -208t85.5 -208t206.5 -86z
" />
    <glyph glyph-name="R" unicode="R" horiz-adv-x="610" 
d="M510 0l-164 280h-196v-280h-70v700h280q87 0 148.5 -61.5t61.5 -148.5q0 -71 -42.5 -126.5t-108.5 -74.5l171 -289h-80zM150 634v-288h210q58 0 99 42.5t41 101.5q0 60 -41 102t-99 42h-210z" />
    <glyph glyph-name="S" unicode="S" horiz-adv-x="576" 
d="M300 -12q-96 0 -164.5 45.5t-95.5 125.5l60 35q19 -65 70 -101.5t131 -36.5q78 0 121.5 34.5t43.5 91.5q0 55 -40 83t-132 58q-109 36 -144 58q-80 48 -80 139q0 89 62 140.5t153 51.5q82 0 142 -42.5t89 -108.5l-59 -33q-48 116 -172 116q-65 0 -105 -32t-40 -89
q0 -52 36 -78t119 -53q38 -13 54.5 -18.5t48 -18t46.5 -22t36.5 -26t31 -33t17 -40t7.5 -50.5q0 -89 -65 -142.5t-171 -53.5z" />
    <glyph glyph-name="T" unicode="T" horiz-adv-x="540" 
d="M520 700v-66h-215v-634h-70v634h-215v66h500z" />
    <glyph glyph-name="U" unicode="U" horiz-adv-x="660" 
d="M330 -12q-116 0 -188 68t-72 182v462h70v-462q0 -84 50 -133t140 -49t140 49t50 133v462h70v-462q0 -114 -72 -182t-188 -68z" />
    <glyph glyph-name="V" unicode="V" horiz-adv-x="608" 
d="M268 0l-258 700h76l218 -607l218 607h76l-258 -700h-72z" />
    <glyph glyph-name="W" unicode="W" horiz-adv-x="1000" 
d="M233 0l-203 700h74l173 -605l182 605h82l182 -605l173 605h74l-203 -700h-84l-183 608l-183 -608h-84z" />
    <glyph glyph-name="X" unicode="X" horiz-adv-x="580" 
d="M560 0h-80l-190 299l-190 -299h-80l230 361l-215 339h79l176 -276l176 276h79l-215 -339z" />
    <glyph glyph-name="Y" unicode="Y" horiz-adv-x="595" 
d="M585 700l-253 -413v-287h-70v289l-252 411h79l209 -343l208 343h79z" />
    <glyph glyph-name="Z" unicode="Z" horiz-adv-x="520" 
d="M118 66h372v-66h-450v66l362 568h-352v66h430v-66z" />
    <glyph glyph-name="bracketleft" unicode="[" horiz-adv-x="280" 
d="M260 736h-134v-772h134v-64h-200v900h200v-64z" />
    <glyph glyph-name="backslash" unicode="\" horiz-adv-x="530" 
d="M440 -100l-400 900h50l400 -900h-50z" />
    <glyph glyph-name="bracketright" unicode="]" horiz-adv-x="280" 
d="M220 800v-900h-200v64h134v772h-134v64h200z" />
    <glyph glyph-name="asciicircum" unicode="^" horiz-adv-x="500" 
d="M284 700l176 -300h-77l-133 227l-133 -227h-77l176 300h68z" />
    <glyph glyph-name="underscore" unicode="_" horiz-adv-x="520" 
d="M40 -141v64h440v-64h-440z" />
    <glyph glyph-name="grave" unicode="`" horiz-adv-x="200" 
d="M180 570l-80 130h-80l96 -130h64z" />
    <glyph glyph-name="a" unicode="a" 
d="M500 500h66v-500h-66v98q-69 -110 -202 -110q-107 0 -182.5 76t-75.5 186t75.5 186t182.5 76q133 0 202 -110v98zM303 52q83 0 140 57.5t57 140.5t-57 140.5t-140 57.5t-140 -57.5t-57 -140.5t57 -140.5t140 -57.5z" />
    <glyph glyph-name="b" unicode="b" 
d="M338 512q107 0 182.5 -76t75.5 -186t-75.5 -186t-182.5 -76q-133 0 -202 110v-98h-66v700h66v-298q69 110 202 110zM333 52q83 0 140 57.5t57 140.5t-57 140.5t-140 57.5t-140 -57.5t-57 -140.5t57 -140.5t140 -57.5z" />
    <glyph glyph-name="c" unicode="c" horiz-adv-x="552" 
d="M303 -12q-113 0 -188 75.5t-75 186.5t75 186.5t188 75.5q74 0 133 -35.5t86 -95.5l-54 -31q-20 45 -64.5 71.5t-100.5 26.5q-83 0 -140 -57.5t-57 -140.5t57 -140.5t140 -57.5q56 0 100 26.5t69 71.5l55 -32q-31 -60 -91 -95t-133 -35z" />
    <glyph glyph-name="d" unicode="d" 
d="M500 700h66v-700h-66v98q-69 -110 -202 -110q-107 0 -182.5 76t-75.5 186t75.5 186t182.5 76q133 0 202 -110v298zM303 52q83 0 140 57.5t57 140.5t-57 140.5t-140 57.5t-140 -57.5t-57 -140.5t57 -140.5t140 -57.5z" />
    <glyph glyph-name="e" unicode="e" horiz-adv-x="584" 
d="M301 512q111 0 179.5 -78.5t68.5 -185.5q0 -11 -2 -31h-439q10 -76 64.5 -120.5t134.5 -44.5q57 0 98.5 23.5t62.5 61.5l58 -34q-33 -53 -90 -84t-130 -31q-118 0 -192 74t-74 188q0 112 73 187t188 75zM301 448q-78 0 -130.5 -46.5t-62.5 -120.5h373q-10 79 -61 123
t-119 44z" />
    <glyph glyph-name="f" unicode="f" horiz-adv-x="320" 
d="M320 648q-73 6 -108.5 -25t-35.5 -103v-20h144v-64h-144v-436h-66v436h-85v64h85v20q0 98 54.5 148.5t155.5 43.5v-64z" />
    <glyph glyph-name="g" unicode="g" 
d="M500 500h66v-480q0 -108 -74 -170t-177 -62q-176 0 -237 122l58 33q45 -91 179 -91q86 0 135.5 45.5t49.5 122.5v78q-69 -110 -202 -110q-107 0 -182.5 76t-75.5 186t75.5 186t182.5 76q133 0 202 -110v98zM303 52q83 0 140 57.5t57 140.5t-57 140.5t-140 57.5
t-140 -57.5t-57 -140.5t57 -140.5t140 -57.5z" />
    <glyph glyph-name="h" unicode="h" horiz-adv-x="558" 
d="M304 512q91 0 143.5 -55.5t52.5 -149.5v-307h-66v307q0 67 -35.5 104t-100.5 37q-72 0 -117 -45.5t-45 -140.5v-262h-66v700h66v-278q56 90 168 90z" />
    <glyph glyph-name="i" unicode="i" horiz-adv-x="206" 
d="M103 606q-20 0 -34 14t-14 34t14 34t34 14t34 -14t14 -34t-14 -34t-34 -14zM70 0v500h66v-500h-66z" />
    <glyph glyph-name="j" unicode="j" horiz-adv-x="230" 
d="M127 702q20 0 34 -14t14 -34t-14 -34t-34 -14t-34 14t-14 34t14 34t34 14zM94 -40v540h66v-540q0 -90 -47 -135t-133 -37v64q59 -6 86.5 19t27.5 89z" />
    <glyph glyph-name="k" unicode="k" horiz-adv-x="494" 
d="M474 0h-88l-250 241v-241h-66v700h66v-421l238 221h90l-258 -240z" />
    <glyph glyph-name="l" unicode="l" horiz-adv-x="206" 
d="M70 0v730h66v-730h-66z" />
    <glyph glyph-name="m" unicode="m" horiz-adv-x="848" 
d="M603 512q84 0 135.5 -54t51.5 -146v-312h-66v312q0 65 -33.5 100.5t-88.5 35.5q-62 0 -100.5 -41.5t-38.5 -129.5v-277h-66v312q0 66 -31.5 101t-85.5 35q-60 0 -102 -42t-42 -129v-277h-66v500h66v-73q54 85 153 85q108 0 152 -91q54 91 162 91z" />
    <glyph glyph-name="n" unicode="n" horiz-adv-x="558" 
d="M304 512q91 0 143.5 -55.5t52.5 -149.5v-307h-66v307q0 67 -35.5 104t-100.5 37q-72 0 -117 -45.5t-45 -140.5v-262h-66v500h66v-78q56 90 168 90z" />
    <glyph glyph-name="o" unicode="o" horiz-adv-x="606" 
d="M303 -12q-110 0 -186.5 75.5t-76.5 186.5t76.5 186.5t186.5 75.5t186.5 -75.5t76.5 -186.5t-76.5 -186.5t-186.5 -75.5zM303 52q83 0 140 57.5t57 140.5t-57 140.5t-140 57.5t-140 -57.5t-57 -140.5t57 -140.5t140 -57.5z" />
    <glyph glyph-name="p" unicode="p" 
d="M338 512q107 0 182.5 -76t75.5 -186t-75.5 -186t-182.5 -76q-133 0 -202 110v-298h-66v700h66v-98q69 110 202 110zM333 52q83 0 140 57.5t57 140.5t-57 140.5t-140 57.5t-140 -57.5t-57 -140.5t57 -140.5t140 -57.5z" />
    <glyph glyph-name="q" unicode="q" 
d="M500 500h66v-700h-66v298q-69 -110 -202 -110q-107 0 -182.5 76t-75.5 186t75.5 186t182.5 76q133 0 202 -110v98zM303 52q83 0 140 57.5t57 140.5t-57 140.5t-140 57.5t-140 -57.5t-57 -140.5t57 -140.5t140 -57.5z" />
    <glyph glyph-name="r" unicode="r" horiz-adv-x="314" 
d="M136 417q46 91 158 91v-64q-68 0 -113 -40t-45 -126v-278h-66v500h66v-83z" />
    <glyph glyph-name="s" unicode="s" horiz-adv-x="454" 
d="M122 369q0 -34 30 -54t73 -31t86 -24.5t73 -45t30 -82.5q0 -64 -50.5 -104t-130.5 -40q-72 0 -122.5 32t-70.5 83l56 33q14 -39 50.5 -61.5t86.5 -22.5q49 0 82 19.5t33 60.5q0 34 -30 54t-73 31t-86 24.5t-73 45t-30 82.5q0 61 48.5 102t122.5 41q61 0 107 -27.5
t68 -74.5l-55 -32q-29 70 -120 70q-43 0 -74 -20.5t-31 -58.5z" />
    <glyph glyph-name="t" unicode="t" horiz-adv-x="375" 
d="M335 436h-144v-303q0 -41 16 -58.5t48 -18t80 1.5v-58q-105 -16 -157.5 15t-52.5 118v303h-105v64h105v120l66 20v-140h144v-64z" />
    <glyph glyph-name="u" unicode="u" horiz-adv-x="558" 
d="M422 500h66v-500h-66v78q-56 -90 -168 -90q-91 0 -143.5 55.5t-52.5 149.5v307h66v-307q0 -67 35.5 -104t100.5 -37q72 0 117 45.5t45 140.5v262z" />
    <glyph glyph-name="v" unicode="v" horiz-adv-x="510" 
d="M430 500h70l-205 -500h-80l-205 500h70l175 -431z" />
    <glyph glyph-name="w" unicode="w" horiz-adv-x="770" 
d="M672 500h68l-154 -500h-72l-129 403l-129 -403h-72l-154 500h68l123 -415l131 415h66l131 -415z" />
    <glyph glyph-name="x" unicode="x" horiz-adv-x="510" 
d="M490 0h-79l-156 206l-156 -206h-79l196 259l-183 241h79l143 -189l143 189h79l-182 -241z" />
    <glyph glyph-name="y" unicode="y" horiz-adv-x="510" 
d="M430 500h70l-214 -546q-29 -74 -82.5 -116.5t-119.5 -37.5v62q90 -10 137 104l13 31l-224 503h70l188 -419z" />
    <glyph glyph-name="z" unicode="z" horiz-adv-x="470" 
d="M142 64h288v-64h-380v44l278 392h-268v64h360v-44z" />
    <glyph glyph-name="braceleft" unicode="{" horiz-adv-x="354" 
d="M334 -108q-87 -8 -133.5 32.5t-46.5 129.5v167q0 60 -24 79t-80 19v64q56 0 80 19t24 79v167q0 89 46.5 129.5t133.5 32.5v-64q-60 6 -87 -15t-27 -83v-167q0 -107 -78 -130q78 -23 78 -130v-167q0 -62 27 -83t87 -15v-64z" />
    <glyph glyph-name="bar" unicode="|" horiz-adv-x="226" 
d="M80 -200v920h66v-920h-66z" />
    <glyph glyph-name="braceright" unicode="}" horiz-adv-x="354" 
d="M20 -108v64q60 -6 87 15t27 83v167q0 107 78 130q-78 23 -78 130v167q0 62 -27 83t-87 15v64q87 8 133.5 -32.5t46.5 -129.5v-167q0 -60 24 -79t80 -19v-64q-56 0 -80 -19t-24 -79v-167q0 -89 -46.5 -129.5t-133.5 -32.5z" />
    <glyph glyph-name="asciitilde" unicode="~" horiz-adv-x="594" 
d="M474 414l60 -28q-26 -85 -88 -104t-164 40q-77 44 -111.5 33t-50.5 -69l-60 28q26 84 89.5 103t162.5 -39q50 -31 83.5 -34.5t50.5 14t28 56.5z" />
    <glyph glyph-name="exclamdown" unicode="&#xa1;" horiz-adv-x="230" 
d="M115 510q23 0 39 -16t16 -39t-16 -39t-39 -16t-39 16t-16 39t16 39t39 16zM90 310h50l15 -310v-200h-80v200z" />
    <glyph glyph-name="cent" unicode="&#xa2;" horiz-adv-x="552" 
d="M472 250l55 -32q-31 -60 -91 -95t-133 -35q-33 0 -68 8l-31 -96h-50l36 112q-69 30 -109.5 94t-40.5 144q0 111 75 186.5t188 75.5q27 0 47 -4l30 92h50l-34 -105q89 -33 126 -114l-54 -31q-28 59 -91 84l-122 -376q23 -6 48 -6q56 0 100 26.5t69 71.5zM106 350
q0 -57 28.5 -104t75.5 -72l120 372q-18 2 -27 2q-83 0 -140 -57.5t-57 -140.5z" />
    <glyph glyph-name="sterling" unicode="&#xa3;" horiz-adv-x="585" 
d="M204 68h366v-68h-530v68h94v221h-74v62h74v151q0 101 61 155.5t144 54.5q137 0 191 -134l-57 -32q-36 98 -134 98q-57 0 -96 -35.5t-39 -106.5v-151h231v-62h-231v-221z" />
    <glyph glyph-name="currency" unicode="&#xa4;" horiz-adv-x="552" 
d="M489 350q0 -78 -47 -134l70 -70l-32 -32l-70 70q-59 -46 -134 -46t-134 46l-70 -70l-32 32l70 70q-47 58 -47 134t47 134l-70 70l32 32l70 -70q59 46 134 46t134 -46l70 70l32 -32l-70 -70q47 -56 47 -134zM129 350q0 -62 42.5 -105t104.5 -43t104.5 43t42.5 105
t-42.5 105t-104.5 43t-104.5 -43t-42.5 -105z" />
    <glyph glyph-name="yen" unicode="&#xa5;" horiz-adv-x="575" 
d="M585 700l-216 -353h134v-58h-170l-1 -2v-58h171v-58h-171v-171h-70v171h-189v58h189v60h-189v58h153l-216 353h79l209 -343l208 343h79z" />
    <glyph glyph-name="brokenbar" unicode="&#xa6;" horiz-adv-x="226" 
d="M80 350v370h66v-370h-66zM80 -200v370h66v-370h-66z" />
    <glyph glyph-name="section" unicode="&#xa7;" horiz-adv-x="510" 
d="M406 139q44 -42 44 -103q0 -63 -49.5 -105.5t-130.5 -42.5q-79 0 -132 35t-77 98l56 32q31 -101 153 -101q50 0 82 22t32 62q0 29 -24 53t-51.5 38t-76.5 34l-15 6q-34 14 -58.5 28t-49 34.5t-37 48t-12.5 61.5q0 74 71 125q-41 41 -41 100q0 62 48 105t123 43
q65 0 111.5 -31.5t69.5 -88.5l-54 -31q-34 87 -127 87q-43 0 -74 -22t-31 -62q0 -28 22.5 -51.5t46.5 -36t72 -33.5q11 -5 16 -7q73 -33 115 -72t42 -103q0 -73 -64 -122zM126 339q0 -41 30.5 -67.5t85.5 -47.5q77 -28 113 -49q49 35 49 86q0 42 -31 68.5t-88 49.5
q-70 27 -105 48q-54 -33 -54 -88z" />
    <glyph glyph-name="dieresis" unicode="&#xa8;" horiz-adv-x="320" 
d="M65 575q-19 0 -32 13t-13 32t13 32t32 13t32 -13t13 -32t-13 -32t-32 -13zM255 575q-19 0 -32 13t-13 32t13 32t32 13t32 -13t13 -32t-13 -32t-32 -13z" />
    <glyph glyph-name="copyright" unicode="&#xa9;" horiz-adv-x="804" 
d="M402 -12q-150 0 -256 106t-106 256t106 256t256 106t256 -106t106 -256t-106 -256t-256 -106zM402 16q137 0 234.5 97.5t97.5 236.5t-97.5 236.5t-234.5 97.5t-234.5 -97.5t-97.5 -236.5t97.5 -236.5t234.5 -97.5zM405 158q-82 0 -138 56t-56 136t56 136t138 56
q53 0 96.5 -25t67.5 -68l-55 -32q-14 31 -44 47t-65 16q-58 0 -93.5 -38.5t-35.5 -91.5t35.5 -91.5t93.5 -38.5q36 0 66 16.5t44 47.5l55 -33q-24 -43 -68 -68t-97 -25z" />
    <glyph glyph-name="guillemotleft" unicode="&#xab;" horiz-adv-x="492" 
d="M262 489l-110 -180l110 -180h-82l-110 180l110 180h82zM422 489l-110 -180l110 -180h-82l-110 180l110 180h82z" />
    <glyph glyph-name="logicalnot" unicode="&#xac;" horiz-adv-x="520" 
d="M60 382h400v-180h-66v116h-334v64z" />
    <glyph glyph-name="registered" unicode="&#xae;" horiz-adv-x="804" 
d="M402 712q150 0 256 -106t106 -256t-106 -256t-256 -106t-256 106t-106 256t106 256t256 106zM402 16q137 0 234.5 97.5t97.5 236.5t-97.5 236.5t-234.5 97.5t-234.5 -97.5t-97.5 -236.5t97.5 -236.5t234.5 -97.5zM546 416q0 -80 -68 -107l78 -144h-69l-71 132h-10h-52
v-132h-62v370h114q66 0 103 -34.5t37 -84.5zM354 475v-118h56q35 0 54.5 16t19.5 43t-19.5 43t-54.5 16h-56z" />
    <glyph glyph-name="macron" unicode="&#xaf;" horiz-adv-x="300" 
d="M20 580v58h260v-58h-260z" />
    <glyph glyph-name="degree" unicode="&#xb0;" horiz-adv-x="386" 
d="M193 510q-65 0 -109 43.5t-44 106.5t44 106.5t109 43.5t109 -43.5t44 -106.5t-43 -106.5t-110 -43.5zM193 570q39 0 64 26t25 64t-25 64t-64 26t-64 -26t-25 -64t25 -64t64 -26z" />
    <glyph glyph-name="plusminus" unicode="&#xb1;" horiz-adv-x="540" 
d="M302 447h178v-64h-178v-163h-64v163h-178v64h178v163h64v-163zM60 90v64h420v-64h-420z" />
    <glyph glyph-name="acute" unicode="&#xb4;" horiz-adv-x="200" 
d="M20 570h64l96 130h-80z" />
    <glyph glyph-name="uni00B5" unicode="&#xb5;" horiz-adv-x="606" 
d="M537 64h39v-64h-47q-38 0 -63 22t-31 59q-55 -93 -169 -93q-85 0 -130 51v-239h-66v700h66v-307q0 -67 35.5 -104t100.5 -37q72 0 117 45.5t45 140.5v262h66v-400q0 -16 10 -26t27 -10z" />
    <glyph glyph-name="paragraph" unicode="&#xb6;" horiz-adv-x="580" 
d="M540 700v-62h-60v-838h-64v838h-112v-838h-64v500q-83 0 -141.5 58.5t-58.5 141.5t58.5 141.5t141.5 58.5h300z" />
    <glyph glyph-name="periodcentered" unicode="&#xb7;" horiz-adv-x="230" 
d="M115 295q-23 0 -39 16t-16 39t16 39t39 16t39 -16t16 -39t-16 -39t-39 -16z" />
    <glyph glyph-name="cedilla" unicode="&#xb8;" horiz-adv-x="245" 
d="M132 -45q43 -8 68 -29t25 -52q0 -102 -205 -90v54q147 -12 147 36q0 38 -93 41v85h58v-45z" />
    <glyph glyph-name="guillemotright" unicode="&#xbb;" horiz-adv-x="492" 
d="M152 489l110 -180l-110 -180h-82l110 180l-110 180h82zM312 489l110 -180l-110 -180h-82l110 180l-110 180h82z" />
    <glyph glyph-name="onequarter" unicode="&#xbc;" horiz-adv-x="821" 
d="M179 300h-62v332l-91 -27l-16 53l116 42h53v-400zM527 700h60l-400 -700h-60zM801 133v-58h-51v-75h-62v75h-206v58l149 267h67l-148 -267h138v96h62v-96h51z" />
    <glyph glyph-name="onehalf" unicode="&#xbd;" horiz-adv-x="807" 
d="M179 300h-62v332l-91 -27l-16 53l116 42h53v-400zM527 700h60l-400 -700h-60zM590 60h188v-60h-280v51l168 154q42 37 42 85q0 28 -19.5 45t-52.5 17q-62 0 -87 -62l-52 29q38 93 139 93q60 0 97 -35t37 -87q0 -69 -62 -125z" />
    <glyph glyph-name="threequarters" unicode="&#xbe;" horiz-adv-x="926" 
d="M313 417q0 -58 -40 -93.5t-106 -35.5q-102 0 -142 84l52 30q25 -54 90 -54q40 0 62 18.5t22 50.5q0 31 -22.5 50t-61.5 19h-4l-31 47l90 107h-184v60h258v-60l-89 -106q50 -10 78 -40.5t28 -76.5zM632 700h60l-400 -700h-60zM906 133v-58h-51v-75h-62v75h-206v58l149 267
h67l-148 -267h138v96h62v-96h51z" />
    <glyph glyph-name="questiondown" unicode="&#xbf;" horiz-adv-x="532" 
d="M287 510q23 0 39 -16t16 -39t-16 -39t-39 -16t-39 16t-16 39t16 39t39 16zM322 310q0 -49 -20 -89.5t-48 -68.5t-56 -54t-48 -57.5t-20 -67.5q0 -58 39.5 -87.5t101.5 -29.5q123 0 152 101l59 -33q-23 -67 -80.5 -101.5t-130.5 -34.5q-88 0 -149.5 48.5t-61.5 136.5
q0 43 20 80t48 64.5t56 54.5t48 62.5t20 75.5h70z" />
    <glyph glyph-name="Agrave" unicode="&#xc0;" horiz-adv-x="630" 
d="M375 770h-64l-96 130h80zM546 0l-65 172h-332l-65 -172h-74l269 700h72l269 -700h-74zM174 238h282l-141 375z" />
    <glyph glyph-name="Aacute" unicode="&#xc1;" horiz-adv-x="630" 
d="M425 900l-96 -130h-64l80 130h80zM546 0l-65 172h-332l-65 -172h-74l269 700h72l269 -700h-74zM174 238h282l-141 375z" />
    <glyph glyph-name="Acircumflex" unicode="&#xc2;" horiz-adv-x="630" 
d="M315 857l-70 -87h-75l106 130h78l106 -130h-75zM546 0l-65 172h-332l-65 -172h-74l269 700h72l269 -700h-74zM174 238h282l-141 375z" />
    <glyph glyph-name="Atilde" unicode="&#xc3;" horiz-adv-x="630" 
d="M315 803q-23 17 -35.5 24.5t-24.5 8.5t-17 -13t-5 -43h-58q0 59 21 88t53 27.5t67 -28.5q18 -14 29 -21t22 -11t17 1t9.5 18t3.5 36h58q0 -59 -21 -88t-52.5 -27.5t-66.5 28.5zM546 0l-65 172h-332l-65 -172h-74l269 700h72l269 -700h-74zM174 238h282l-141 375z" />
    <glyph glyph-name="Adieresis" unicode="&#xc4;" horiz-adv-x="630" 
d="M220 775q-19 0 -32 13t-13 32t13 32t32 13t32 -13t13 -32t-13 -32t-32 -13zM410 775q-19 0 -32 13t-13 32t13 32t32 13t32 -13t13 -32t-13 -32t-32 -13zM546 0l-65 172h-332l-65 -172h-74l269 700h72l269 -700h-74zM174 238h282l-141 375z" />
    <glyph glyph-name="Aring" unicode="&#xc5;" horiz-adv-x="630" 
d="M546 0l-65 172h-332l-65 -172h-74l257 669q-58 26 -58 91q0 43 29.5 71.5t76.5 28.5t76.5 -28.5t29.5 -71.5q0 -65 -58 -91l257 -669h-74zM315 809q-24 0 -37.5 -13.5t-13.5 -35.5t13.5 -35.5t37.5 -13.5q25 0 38.5 13.5t13.5 35.5t-13.5 35.5t-38.5 13.5zM174 238h282
l-141 375z" />
    <glyph glyph-name="AE" unicode="&#xc6;" horiz-adv-x="880" 
d="M520 66h320v-66h-390v172h-265l-105 -172h-80l145 237v1h1l283 462h406v-66h-315v-248h300v-66h-300v-254zM225 238h225v369z" />
    <glyph glyph-name="Ccedilla" unicode="&#xc7;" horiz-adv-x="745" 
d="M407 56q78 0 143 38t98 102l62 -35q-40 -73 -113.5 -119t-162.5 -53v-34q43 -8 68 -29t25 -52q0 -102 -205 -90v54q147 -12 147 36q0 38 -93 41v74q-147 11 -241.5 114t-94.5 247q0 152 104 257t263 105q97 0 178 -46.5t125 -125.5l-62 -36q-33 64 -98 102t-143 38
q-131 0 -214 -85t-83 -209t83 -209t214 -85z" />
    <glyph glyph-name="Egrave" unicode="&#xc8;" horiz-adv-x="530" 
d="M343 770h-64l-96 130h80zM150 66h340v-66h-410v700h405v-66h-335v-248h310v-66h-310v-254z" />
    <glyph glyph-name="Eacute" unicode="&#xc9;" horiz-adv-x="530" 
d="M393 900l-96 -130h-64l80 130h80zM150 66h340v-66h-410v700h405v-66h-335v-248h310v-66h-310v-254z" />
    <glyph glyph-name="Ecircumflex" unicode="&#xca;" horiz-adv-x="530" 
d="M283 857l-70 -87h-75l106 130h78l106 -130h-75zM150 66h340v-66h-410v700h405v-66h-335v-248h310v-66h-310v-254z" />
    <glyph glyph-name="Edieresis" unicode="&#xcb;" horiz-adv-x="530" 
d="M188 775q-19 0 -32 13t-13 32t13 32t32 13t32 -13t13 -32t-13 -32t-32 -13zM378 775q-19 0 -32 13t-13 32t13 32t32 13t32 -13t13 -32t-13 -32t-32 -13zM150 66h340v-66h-410v700h405v-66h-335v-248h310v-66h-310v-254z" />
    <glyph glyph-name="Igrave" unicode="&#xcc;" horiz-adv-x="230" 
d="M175 770l-80 130h-80l96 -130h64zM80 700h70v-700h-70v700z" />
    <glyph glyph-name="Iacute" unicode="&#xcd;" horiz-adv-x="230" 
d="M65 770h64l96 130h-80zM80 700h70v-700h-70v700z" />
    <glyph glyph-name="Icircumflex" unicode="&#xce;" horiz-adv-x="230" 
d="M154 900l106 -130h-75l-70 87l-70 -87h-75l106 130h78zM80 0v700h70v-700h-70z" />
    <glyph glyph-name="Idieresis" unicode="&#xcf;" horiz-adv-x="230" 
d="M20 775q-19 0 -32 13t-13 32t13 32t32 13t32 -13t13 -32t-13 -32t-32 -13zM210 775q-19 0 -32 13t-13 32t13 32t32 13t32 -13t13 -32t-13 -32t-32 -13zM80 700h70v-700h-70v700z" />
    <glyph glyph-name="Eth" unicode="&#xd0;" horiz-adv-x="740" 
d="M370 700q143 0 236.5 -101.5t93.5 -248.5t-93.5 -248.5t-236.5 -101.5h-270v318h-70v64h70v318h270zM370 66q115 0 188.5 82t73.5 202t-73.5 202t-188.5 82h-200v-252h220v-64h-220v-252h200z" />
    <glyph glyph-name="Ntilde" unicode="&#xd1;" horiz-adv-x="680" 
d="M200 780q0 59 21 88t53 27.5t67 -28.5q18 -14 29 -21t22 -11t17 1t9.5 18t3.5 36h58q0 -59 -21 -88t-52.5 -27.5t-66.5 28.5q-23 17 -35.5 24.5t-24.5 8.5t-17 -13t-5 -43h-58zM530 700h70v-700h-60l-390 570v-570h-70v700h60l390 -570v570z" />
    <glyph glyph-name="Ograve" unicode="&#xd2;" horiz-adv-x="804" 
d="M462 770l-80 130h-80l96 -130h64zM402 -12q-152 0 -257 105.5t-105 256.5t105 256.5t257 105.5t257 -105.5t105 -256.5t-105 -256.5t-257 -105.5zM402 56q124 0 208 85.5t84 208.5t-84 208.5t-208 85.5t-208 -85.5t-84 -208.5t84 -208.5t208 -85.5z" />
    <glyph glyph-name="Oacute" unicode="&#xd3;" horiz-adv-x="804" 
d="M352 770h64l96 130h-80zM402 -12q-152 0 -257 105.5t-105 256.5t105 256.5t257 105.5t257 -105.5t105 -256.5t-105 -256.5t-257 -105.5zM402 56q124 0 208 85.5t84 208.5t-84 208.5t-208 85.5t-208 -85.5t-84 -208.5t84 -208.5t208 -85.5z" />
    <glyph glyph-name="Ocircumflex" unicode="&#xd4;" horiz-adv-x="804" 
d="M402 857l-70 -87h-75l106 130h78l106 -130h-75zM402 712q152 0 257 -105.5t105 -256.5t-105 -256.5t-257 -105.5t-257 105.5t-105 256.5t105 256.5t257 105.5zM402 56q124 0 208 85.5t84 208.5t-84 208.5t-208 85.5t-208 -85.5t-84 -208.5t84 -208.5t208 -85.5z" />
    <glyph glyph-name="Otilde" unicode="&#xd5;" horiz-adv-x="804" 
d="M262 780q0 59 21 88t53 27.5t67 -28.5q18 -14 29 -21t22 -11t17 1t9.5 18t3.5 36h58q0 -59 -21 -88t-52.5 -27.5t-66.5 28.5q-23 17 -35.5 24.5t-24.5 8.5t-17 -13t-5 -43h-58zM402 -12q-152 0 -257 105.5t-105 256.5t105 256.5t257 105.5t257 -105.5t105 -256.5
t-105 -256.5t-257 -105.5zM402 56q124 0 208 85.5t84 208.5t-84 208.5t-208 85.5t-208 -85.5t-84 -208.5t84 -208.5t208 -85.5z" />
    <glyph glyph-name="Odieresis" unicode="&#xd6;" horiz-adv-x="804" 
d="M307 775q-19 0 -32 13t-13 32t13 32t32 13t32 -13t13 -32t-13 -32t-32 -13zM497 775q-19 0 -32 13t-13 32t13 32t32 13t32 -13t13 -32t-13 -32t-32 -13zM402 -12q-152 0 -257 105.5t-105 256.5t105 256.5t257 105.5t257 -105.5t105 -256.5t-105 -256.5t-257 -105.5z
M402 56q124 0 208 85.5t84 208.5t-84 208.5t-208 85.5t-208 -85.5t-84 -208.5t84 -208.5t208 -85.5z" />
    <glyph glyph-name="multiply" unicode="&#xd7;" horiz-adv-x="471" 
d="M421 492l-142 -142l142 -142l-45 -42l-140 141l-141 -141l-45 42l142 142l-142 142l45 42l141 -140l140 140z" />
    <glyph glyph-name="Oslash" unicode="&#xd8;" horiz-adv-x="814" 
d="M668 608q106 -106 106 -258q0 -151 -105 -256.5t-257 -105.5q-119 0 -215 69l-49 -57l-47 27l56 65q-107 105 -107 258q0 151 105 256.5t257 105.5q121 0 216 -70l49 58l47 -27zM120 350q0 -120 81 -206l382 446q-76 54 -171 54q-124 0 -208 -85.5t-84 -208.5zM412 56
q124 0 208 85.5t84 208.5q0 121 -81 205l-381 -446q75 -53 170 -53z" />
    <glyph glyph-name="Ugrave" unicode="&#xd9;" horiz-adv-x="660" 
d="M390 770l-80 130h-80l96 -130h64zM330 -12q-116 0 -188 68t-72 182v462h70v-462q0 -84 50 -133t140 -49t140 49t50 133v462h70v-462q0 -114 -72 -182t-188 -68z" />
    <glyph glyph-name="Uacute" unicode="&#xda;" horiz-adv-x="660" 
d="M280 770h64l96 130h-80zM330 -12q-116 0 -188 68t-72 182v462h70v-462q0 -84 50 -133t140 -49t140 49t50 133v462h70v-462q0 -114 -72 -182t-188 -68z" />
    <glyph glyph-name="Ucircumflex" unicode="&#xdb;" horiz-adv-x="660" 
d="M330 857l-70 -87h-75l106 130h78l106 -130h-75zM520 700h70v-462q0 -114 -72 -182t-188 -68t-188 68t-72 182v462h70v-462q0 -84 50 -133t140 -49t140 49t50 133v462z" />
    <glyph glyph-name="Udieresis" unicode="&#xdc;" horiz-adv-x="660" 
d="M235 775q-19 0 -32 13t-13 32t13 32t32 13t32 -13t13 -32t-13 -32t-32 -13zM425 775q-19 0 -32 13t-13 32t13 32t32 13t32 -13t13 -32t-13 -32t-32 -13zM330 -12q-116 0 -188 68t-72 182v462h70v-462q0 -84 50 -133t140 -49t140 49t50 133v462h70v-462q0 -114 -72 -182
t-188 -68z" />
    <glyph glyph-name="Yacute" unicode="&#xdd;" horiz-adv-x="595" 
d="M404 900l-96 -130h-64l80 130h80zM585 700l-253 -413v-287h-70v289l-252 411h79l209 -343l208 343h79z" />
    <glyph glyph-name="Thorn" unicode="&#xde;" horiz-adv-x="590" 
d="M330 570q94 0 157 -63t63 -157t-63 -157t-157 -63h-180v-130h-70v700h70v-130h180zM330 196q65 0 107.5 43.5t42.5 110.5t-42.5 110.5t-107.5 43.5h-180v-308h180z" />
    <glyph glyph-name="germandbls" unicode="&#xdf;" horiz-adv-x="516" 
d="M289 -3v60q141 -8 141 84q0 32 -22.5 68t-49.5 62.5t-49.5 60t-22.5 62.5q0 25 22 52.5t44 55.5t22 53q0 44 -30 68.5t-79 24.5q-54 0 -91.5 -32t-37.5 -101v-515h-66v515q0 92 54.5 144.5t140.5 52.5q81 0 128 -45t47 -112q0 -33 -22 -64.5t-44 -55.5t-22 -41
q0 -22 22.5 -50.5t49.5 -53.5t49.5 -65.5t22.5 -83.5q0 -71 -54.5 -111t-152.5 -33z" />
    <glyph glyph-name="agrave" unicode="&#xe0;" 
d="M365 570h-64l-96 130h80zM500 500h66v-500h-66v98q-69 -110 -202 -110q-107 0 -182.5 76t-75.5 186t75.5 186t182.5 76q133 0 202 -110v98zM303 52q83 0 140 57.5t57 140.5t-57 140.5t-140 57.5t-140 -57.5t-57 -140.5t57 -140.5t140 -57.5z" />
    <glyph glyph-name="aacute" unicode="&#xe1;" 
d="M415 700l-96 -130h-64l80 130h80zM500 500h66v-500h-66v98q-69 -110 -202 -110q-107 0 -182.5 76t-75.5 186t75.5 186t182.5 76q133 0 202 -110v98zM303 52q83 0 140 57.5t57 140.5t-57 140.5t-140 57.5t-140 -57.5t-57 -140.5t57 -140.5t140 -57.5z" />
    <glyph glyph-name="acircumflex" unicode="&#xe2;" 
d="M305 657l-70 -87h-75l106 130h78l106 -130h-75zM500 500h66v-500h-66v98q-69 -110 -202 -110q-107 0 -182.5 76t-75.5 186t75.5 186t182.5 76q133 0 202 -110v98zM303 52q83 0 140 57.5t57 140.5t-57 140.5t-140 57.5t-140 -57.5t-57 -140.5t57 -140.5t140 -57.5z" />
    <glyph glyph-name="atilde" unicode="&#xe3;" 
d="M305 603q-23 17 -35.5 24.5t-24.5 8.5t-17 -13t-5 -43h-58q0 59 21 88t53 27.5t67 -28.5q18 -14 29 -21t22 -11t17 1t9.5 18t3.5 36h58q0 -59 -21 -88t-52.5 -27.5t-66.5 28.5zM500 500h66v-500h-66v98q-69 -110 -202 -110q-107 0 -182.5 76t-75.5 186t75.5 186t182.5 76
q133 0 202 -110v98zM303 52q83 0 140 57.5t57 140.5t-57 140.5t-140 57.5t-140 -57.5t-57 -140.5t57 -140.5t140 -57.5z" />
    <glyph glyph-name="adieresis" unicode="&#xe4;" 
d="M210 575q-19 0 -32 13t-13 32t13 32t32 13t32 -13t13 -32t-13 -32t-32 -13zM400 575q-19 0 -32 13t-13 32t13 32t32 13t32 -13t13 -32t-13 -32t-32 -13zM500 500h66v-500h-66v98q-69 -110 -202 -110q-107 0 -182.5 76t-75.5 186t75.5 186t182.5 76q133 0 202 -110v98z
M303 52q83 0 140 57.5t57 140.5t-57 140.5t-140 57.5t-140 -57.5t-57 -140.5t57 -140.5t140 -57.5z" />
    <glyph glyph-name="aring" unicode="&#xe5;" 
d="M305 550q-47 0 -76.5 28.5t-29.5 71.5t29.5 71.5t76.5 28.5t76.5 -28.5t29.5 -71.5t-29.5 -71.5t-76.5 -28.5zM305 699q-24 0 -37.5 -13.5t-13.5 -35.5t13.5 -35.5t37.5 -13.5q25 0 38.5 13.5t13.5 35.5t-13.5 35.5t-38.5 13.5zM500 500h66v-500h-66v98
q-69 -110 -202 -110q-107 0 -182.5 76t-75.5 186t75.5 186t182.5 76q133 0 202 -110v98zM303 52q83 0 140 57.5t57 140.5t-57 140.5t-140 57.5t-140 -57.5t-57 -140.5t57 -140.5t140 -57.5z" />
    <glyph glyph-name="ae" unicode="&#xe6;" horiz-adv-x="1042" 
d="M763 512q113 0 178.5 -77.5t65.5 -186.5q0 -11 -2 -31h-437q10 -76 62 -120.5t131 -44.5q117 0 165 85l58 -34q-32 -53 -88.5 -84t-125.5 -31q-141 0 -204 109v-97h-66v98q-69 -110 -202 -110q-107 0 -182.5 76t-75.5 186t75.5 186t182.5 76q133 0 202 -110v98h66v-100
q63 112 197 112zM303 52q83 0 140 57.5t57 140.5t-57 140.5t-140 57.5t-140 -57.5t-57 -140.5t57 -140.5t140 -57.5zM760 448q-80 0 -131.5 -46t-60.5 -121h371q-9 79 -59 123t-120 44z" />
    <glyph glyph-name="ccedilla" unicode="&#xe7;" horiz-adv-x="552" 
d="M527 118q-28 -54 -80.5 -88.5t-117.5 -40.5v-34q43 -8 68 -29t25 -52q0 -102 -205 -90v54q147 -12 147 36q0 38 -93 41v75q-101 11 -166 84t-65 176q0 111 75 186.5t188 75.5q74 0 133 -35.5t86 -95.5l-54 -31q-20 45 -64.5 71.5t-100.5 26.5q-83 0 -140 -57.5
t-57 -140.5t57 -140.5t140 -57.5q56 0 100 26.5t69 71.5z" />
    <glyph glyph-name="egrave" unicode="&#xe8;" horiz-adv-x="584" 
d="M355 570h-64l-96 130h80zM301 512q111 0 179.5 -78.5t68.5 -185.5q0 -11 -2 -31h-439q10 -76 64.5 -120.5t134.5 -44.5q57 0 98.5 23.5t62.5 61.5l58 -34q-33 -53 -90 -84t-130 -31q-118 0 -192 74t-74 188q0 112 73 187t188 75zM301 448q-78 0 -130.5 -46.5
t-62.5 -120.5h373q-10 79 -61 123t-119 44z" />
    <glyph glyph-name="eacute" unicode="&#xe9;" horiz-adv-x="584" 
d="M405 700l-96 -130h-64l80 130h80zM301 512q111 0 179.5 -78.5t68.5 -185.5q0 -11 -2 -31h-439q10 -76 64.5 -120.5t134.5 -44.5q57 0 98.5 23.5t62.5 61.5l58 -34q-33 -53 -90 -84t-130 -31q-118 0 -192 74t-74 188q0 112 73 187t188 75zM301 448q-78 0 -130.5 -46.5
t-62.5 -120.5h373q-10 79 -61 123t-119 44z" />
    <glyph glyph-name="ecircumflex" unicode="&#xea;" horiz-adv-x="584" 
d="M295 657l-70 -87h-75l106 130h78l106 -130h-75zM301 512q111 0 179.5 -78.5t68.5 -185.5q0 -11 -2 -31h-439q10 -76 64.5 -120.5t134.5 -44.5q57 0 98.5 23.5t62.5 61.5l58 -34q-33 -53 -90 -84t-130 -31q-118 0 -192 74t-74 188q0 112 73 187t188 75zM301 448
q-78 0 -130.5 -46.5t-62.5 -120.5h373q-10 79 -61 123t-119 44z" />
    <glyph glyph-name="edieresis" unicode="&#xeb;" horiz-adv-x="584" 
d="M200 575q-19 0 -32 13t-13 32t13 32t32 13t32 -13t13 -32t-13 -32t-32 -13zM390 575q-19 0 -32 13t-13 32t13 32t32 13t32 -13t13 -32t-13 -32t-32 -13zM301 512q111 0 179.5 -78.5t68.5 -185.5q0 -11 -2 -31h-439q10 -76 64.5 -120.5t134.5 -44.5q57 0 98.5 23.5
t62.5 61.5l58 -34q-33 -53 -90 -84t-130 -31q-118 0 -192 74t-74 188q0 112 73 187t188 75zM301 448q-78 0 -130.5 -46.5t-62.5 -120.5h373q-10 79 -61 123t-119 44z" />
    <glyph glyph-name="igrave" unicode="&#xec;" horiz-adv-x="206" 
d="M134 570l-50 130h-80l66 -130h64zM136 0h-66v500h66v-500z" />
    <glyph glyph-name="iacute" unicode="&#xed;" horiz-adv-x="206" 
d="M73 570h64l66 130h-80zM70 0v500h66v-500h-66z" />
    <glyph glyph-name="icircumflex" unicode="&#xee;" horiz-adv-x="206" 
d="M142 700l86 -130h-75l-50 76l-50 -76h-75l86 130h78zM70 0v500h66v-500h-66z" />
    <glyph glyph-name="idieresis" unicode="&#xef;" horiz-adv-x="206" 
d="M33 575q-19 0 -32 13t-13 32t13 32t32 13t32 -13t13 -32t-13 -32t-32 -13zM173 575q-19 0 -32 13t-13 32t13 32t32 13t32 -13t13 -32t-13 -32t-32 -13zM70 0v500h66v-500h-66z" />
    <glyph glyph-name="eth" unicode="&#xf0;" horiz-adv-x="586" 
d="M500 370q46 -62 46 -140q0 -108 -74.5 -175t-178.5 -67t-178.5 67t-74.5 175q0 104 72.5 170t170.5 66q43 0 80 -16l-89 119l-112 -69v60l82 50l-67 90h77l43 -57l112 69v-60l-82 -50zM293 52q77 0 132 49t55 129q0 63 -30 103q-53 71 -155 71q-82 0 -135.5 -48
t-53.5 -126q0 -80 55 -129t132 -49z" />
    <glyph glyph-name="ntilde" unicode="&#xf1;" horiz-adv-x="558" 
d="M290 603q-23 17 -35.5 24.5t-24.5 8.5t-17 -13t-5 -43h-58q0 59 21 88t53 27.5t67 -28.5q18 -14 29 -21t22 -11t17 1t9.5 18t3.5 36h58q0 -59 -21 -88t-52.5 -27.5t-66.5 28.5zM304 512q91 0 143.5 -55.5t52.5 -149.5v-307h-66v307q0 67 -35.5 104t-100.5 37
q-72 0 -117 -45.5t-45 -140.5v-262h-66v500h66v-78q56 90 168 90z" />
    <glyph glyph-name="ograve" unicode="&#xf2;" horiz-adv-x="606" 
d="M363 570l-80 130h-80l96 -130h64zM303 -12q-110 0 -186.5 75.5t-76.5 186.5t76.5 186.5t186.5 75.5t186.5 -75.5t76.5 -186.5t-76.5 -186.5t-186.5 -75.5zM303 52q83 0 140 57.5t57 140.5t-57 140.5t-140 57.5t-140 -57.5t-57 -140.5t57 -140.5t140 -57.5z" />
    <glyph glyph-name="oacute" unicode="&#xf3;" horiz-adv-x="606" 
d="M253 570h64l96 130h-80zM303 -12q-110 0 -186.5 75.5t-76.5 186.5t76.5 186.5t186.5 75.5t186.5 -75.5t76.5 -186.5t-76.5 -186.5t-186.5 -75.5zM303 52q83 0 140 57.5t57 140.5t-57 140.5t-140 57.5t-140 -57.5t-57 -140.5t57 -140.5t140 -57.5z" />
    <glyph glyph-name="ocircumflex" unicode="&#xf4;" horiz-adv-x="606" 
d="M303 657l-70 -87h-75l106 130h78l106 -130h-75zM303 512q110 0 186.5 -75.5t76.5 -186.5t-76.5 -186.5t-186.5 -75.5t-186.5 75.5t-76.5 186.5t76.5 186.5t186.5 75.5zM303 52q83 0 140 57.5t57 140.5t-57 140.5t-140 57.5t-140 -57.5t-57 -140.5t57 -140.5t140 -57.5z
" />
    <glyph glyph-name="otilde" unicode="&#xf5;" horiz-adv-x="606" 
d="M163 580q0 59 21 88t53 27.5t67 -28.5q18 -14 29 -21t22 -11t17 1t9.5 18t3.5 36h58q0 -59 -21 -88t-52.5 -27.5t-66.5 28.5q-23 17 -35.5 24.5t-24.5 8.5t-17 -13t-5 -43h-58zM303 -12q-110 0 -186.5 75.5t-76.5 186.5t76.5 186.5t186.5 75.5t186.5 -75.5t76.5 -186.5
t-76.5 -186.5t-186.5 -75.5zM303 52q83 0 140 57.5t57 140.5t-57 140.5t-140 57.5t-140 -57.5t-57 -140.5t57 -140.5t140 -57.5z" />
    <glyph glyph-name="odieresis" unicode="&#xf6;" horiz-adv-x="606" 
d="M208 575q-19 0 -32 13t-13 32t13 32t32 13t32 -13t13 -32t-13 -32t-32 -13zM398 575q-19 0 -32 13t-13 32t13 32t32 13t32 -13t13 -32t-13 -32t-32 -13zM303 -12q-110 0 -186.5 75.5t-76.5 186.5t76.5 186.5t186.5 75.5t186.5 -75.5t76.5 -186.5t-76.5 -186.5
t-186.5 -75.5zM303 52q83 0 140 57.5t57 140.5t-57 140.5t-140 57.5t-140 -57.5t-57 -140.5t57 -140.5t140 -57.5z" />
    <glyph glyph-name="divide" unicode="&#xf7;" horiz-adv-x="580" 
d="M290 482q-23 0 -39 16t-16 39t16 39t39 16t39 -16t16 -39t-16 -39t-39 -16zM60 318v64h460v-64h-460zM290 108q-23 0 -39 16t-16 39t16 39t39 16t39 -16t16 -39t-16 -39t-39 -16z" />
    <glyph glyph-name="oslash" unicode="&#xf8;" horiz-adv-x="606" 
d="M495 431q71 -76 71 -181q0 -111 -76.5 -186.5t-186.5 -75.5q-88 0 -158 51l-39 -44l-40 23l45 51q-71 76 -71 181q0 111 76.5 186.5t186.5 75.5q88 0 158 -51l39 44l40 -23zM106 250q0 -77 49 -132l262 294q-50 36 -114 36q-83 0 -140 -57.5t-57 -140.5zM303 52
q83 0 140 57.5t57 140.5q0 77 -49 132l-262 -294q50 -36 114 -36z" />
    <glyph glyph-name="ugrave" unicode="&#xf9;" horiz-adv-x="558" 
d="M331 570h-64l-96 130h80zM422 500h66v-500h-66v78q-56 -90 -168 -90q-91 0 -143.5 55.5t-52.5 149.5v307h66v-307q0 -67 35.5 -104t100.5 -37q72 0 117 45.5t45 140.5v262z" />
    <glyph glyph-name="uacute" unicode="&#xfa;" horiz-adv-x="558" 
d="M381 700l-96 -130h-64l80 130h80zM422 500h66v-500h-66v78q-56 -90 -168 -90q-91 0 -143.5 55.5t-52.5 149.5v307h66v-307q0 -67 35.5 -104t100.5 -37q72 0 117 45.5t45 140.5v262z" />
    <glyph glyph-name="ucircumflex" unicode="&#xfb;" horiz-adv-x="558" 
d="M271 657l-70 -87h-75l106 130h78l106 -130h-75zM422 500h66v-500h-66v78q-56 -90 -168 -90q-91 0 -143.5 55.5t-52.5 149.5v307h66v-307q0 -67 35.5 -104t100.5 -37q72 0 117 45.5t45 140.5v262z" />
    <glyph glyph-name="udieresis" unicode="&#xfc;" horiz-adv-x="558" 
d="M176 575q-19 0 -32 13t-13 32t13 32t32 13t32 -13t13 -32t-13 -32t-32 -13zM366 575q-19 0 -32 13t-13 32t13 32t32 13t32 -13t13 -32t-13 -32t-32 -13zM422 500h66v-500h-66v78q-56 -90 -168 -90q-91 0 -143.5 55.5t-52.5 149.5v307h66v-307q0 -67 35.5 -104t100.5 -37
q72 0 117 45.5t45 140.5v262z" />
    <glyph glyph-name="yacute" unicode="&#xfd;" horiz-adv-x="510" 
d="M363 700l-96 -130h-64l80 130h80zM430 500h70l-214 -546q-29 -74 -82.5 -116.5t-119.5 -37.5v62q90 -10 137 104l13 31l-224 503h70l188 -419z" />
    <glyph glyph-name="thorn" unicode="&#xfe;" 
d="M338 512q107 0 182.5 -76t75.5 -186t-75.5 -186t-182.5 -76q-133 0 -202 110v-298h-66v900h66v-298q69 110 202 110zM333 52q83 0 140 57.5t57 140.5t-57 140.5t-140 57.5t-140 -57.5t-57 -140.5t57 -140.5t140 -57.5z" />
    <glyph glyph-name="ydieresis" unicode="&#xff;" horiz-adv-x="510" 
d="M158 575q-19 0 -32 13t-13 32t13 32t32 13t32 -13t13 -32t-13 -32t-32 -13zM348 575q-19 0 -32 13t-13 32t13 32t32 13t32 -13t13 -32t-13 -32t-32 -13zM430 500h70l-214 -546q-29 -74 -82.5 -116.5t-119.5 -37.5v62q90 -10 137 104l13 31l-224 503h70l188 -419z" />
    <glyph glyph-name="Amacron" unicode="&#x100;" horiz-adv-x="630" 
d="M445 838v-58h-260v58h260zM546 0l-65 172h-332l-65 -172h-74l269 700h72l269 -700h-74zM174 238h282l-141 375z" />
    <glyph glyph-name="amacron" unicode="&#x101;" 
d="M435 638v-58h-260v58h260zM500 500h66v-500h-66v98q-69 -110 -202 -110q-107 0 -182.5 76t-75.5 186t75.5 186t182.5 76q133 0 202 -110v98zM303 52q83 0 140 57.5t57 140.5t-57 140.5t-140 57.5t-140 -57.5t-57 -140.5t57 -140.5t140 -57.5z" />
    <glyph glyph-name="Abreve" unicode="&#x102;" horiz-adv-x="630" 
d="M315 762q-64 0 -102 34.5t-38 95.5h64q0 -72 76 -72t76 72h64q0 -62 -37.5 -96t-102.5 -34zM546 0l-65 172h-332l-65 -172h-74l269 700h72l269 -700h-74zM174 238h282l-141 375z" />
    <glyph glyph-name="abreve" unicode="&#x103;" 
d="M305 562q-64 0 -102 34.5t-38 95.5h64q0 -72 76 -72t76 72h64q0 -62 -37.5 -96t-102.5 -34zM500 500h66v-500h-66v98q-69 -110 -202 -110q-107 0 -182.5 76t-75.5 186t75.5 186t182.5 76q133 0 202 -110v98zM303 52q83 0 140 57.5t57 140.5t-57 140.5t-140 57.5
t-140 -57.5t-57 -140.5t57 -140.5t140 -57.5z" />
    <glyph glyph-name="Aogonek" unicode="&#x104;" horiz-adv-x="630" 
d="M544 -124q0 -31 34 -31q21 0 42 9v-55q-27 -11 -59 -11q-39 0 -60.5 21t-21.5 55q0 66 72 136h-5l-65 172h-332l-65 -172h-74l269 700h72l269 -700q-34 -31 -55 -65t-21 -59zM174 238h282l-141 375z" />
    <glyph glyph-name="aogonek" unicode="&#x105;" 
d="M566 0q-34 -31 -55 -65t-21 -59q0 -31 34 -31q21 0 42 9v-55q-27 -11 -59 -11q-39 0 -60.5 21t-21.5 55q0 64 75 148v86q-69 -110 -202 -110q-107 0 -182.5 76t-75.5 186t75.5 186t182.5 76q133 0 202 -110v98h66v-500zM303 52q83 0 140 57.5t57 140.5t-57 140.5
t-140 57.5t-140 -57.5t-57 -140.5t57 -140.5t140 -57.5z" />
    <glyph glyph-name="Cacute" unicode="&#x106;" horiz-adv-x="745" 
d="M357 770h64l96 130h-80zM407 -12q-159 0 -263 105t-104 257t104 257t263 105q97 0 178 -46.5t125 -125.5l-62 -36q-33 64 -98 102t-143 38q-131 0 -214 -85t-83 -209t83 -209t214 -85q78 0 143 38t98 102l62 -35q-43 -79 -124.5 -126t-178.5 -47z" />
    <glyph glyph-name="cacute" unicode="&#x107;" horiz-adv-x="552" 
d="M242 570h64l96 130h-80zM303 -12q-113 0 -188 75.5t-75 186.5t75 186.5t188 75.5q74 0 133 -35.5t86 -95.5l-54 -31q-20 45 -64.5 71.5t-100.5 26.5q-83 0 -140 -57.5t-57 -140.5t57 -140.5t140 -57.5q56 0 100 26.5t69 71.5l55 -32q-31 -60 -91 -95t-133 -35z" />
    <glyph glyph-name="Cdotaccent" unicode="&#x10a;" horiz-adv-x="745" 
d="M407 770q-23 0 -39 16t-16 39t16 39t39 16t39 -16t16 -39t-16 -39t-39 -16zM407 -12q-159 0 -263 105t-104 257t104 257t263 105q97 0 178 -46.5t125 -125.5l-62 -36q-33 64 -98 102t-143 38q-131 0 -214 -85t-83 -209t83 -209t214 -85q78 0 143 38t98 102l62 -35
q-43 -79 -124.5 -126t-178.5 -47z" />
    <glyph glyph-name="cdotaccent" unicode="&#x10b;" horiz-adv-x="552" 
d="M292 570q-23 0 -39 16t-16 39t16 39t39 16t39 -16t16 -39t-16 -39t-39 -16zM303 -12q-113 0 -188 75.5t-75 186.5t75 186.5t188 75.5q74 0 133 -35.5t86 -95.5l-54 -31q-20 45 -64.5 71.5t-100.5 26.5q-83 0 -140 -57.5t-57 -140.5t57 -140.5t140 -57.5q56 0 100 26.5
t69 71.5l55 -32q-31 -60 -91 -95t-133 -35z" />
    <glyph glyph-name="Ccaron" unicode="&#x10c;" horiz-adv-x="745" 
d="M368 770l-106 130h75l70 -87l70 87h75l-106 -130h-78zM407 56q78 0 143 38t98 102l62 -35q-43 -79 -124.5 -126t-178.5 -47q-159 0 -263 105t-104 257t104 257t263 105q97 0 178 -46.5t125 -125.5l-62 -36q-33 64 -98 102t-143 38q-131 0 -214 -85t-83 -209t83 -209
t214 -85z" />
    <glyph glyph-name="ccaron" unicode="&#x10d;" horiz-adv-x="552" 
d="M253 570l-106 130h75l70 -87l70 87h75l-106 -130h-78zM472 150l55 -32q-31 -60 -91 -95t-133 -35q-113 0 -188 75.5t-75 186.5t75 186.5t188 75.5q74 0 133 -35.5t86 -95.5l-54 -31q-20 45 -64.5 71.5t-100.5 26.5q-83 0 -140 -57.5t-57 -140.5t57 -140.5t140 -57.5
q56 0 100 26.5t69 71.5z" />
    <glyph glyph-name="Dcaron" unicode="&#x10e;" horiz-adv-x="720" 
d="M311 770l-106 130h75l70 -87l70 87h75l-106 -130h-78zM350 700q143 0 236.5 -101.5t93.5 -248.5t-93.5 -248.5t-236.5 -101.5h-270v700h270zM350 66q115 0 188.5 82t73.5 202t-73.5 202t-188.5 82h-200v-568h200z" />
    <glyph glyph-name="dcaron" unicode="&#x10f;" horiz-adv-x="702" 
d="M500 402v298h66v-700h-66v98q-69 -110 -202 -110q-107 0 -182.5 76t-75.5 186t75.5 186t182.5 76q133 0 202 -110zM646 700h66l-30 -170h-46zM303 52q83 0 140 57.5t57 140.5t-57 140.5t-140 57.5t-140 -57.5t-57 -140.5t57 -140.5t140 -57.5z" />
    <glyph glyph-name="Dcroat" unicode="&#x110;" horiz-adv-x="740" 
d="M370 700q143 0 236.5 -101.5t93.5 -248.5t-93.5 -248.5t-236.5 -101.5h-270v318h-70v64h70v318h270zM370 66q115 0 188.5 82t73.5 202t-73.5 202t-188.5 82h-200v-252h220v-64h-220v-252h200z" />
    <glyph glyph-name="dcroat" unicode="&#x111;" horiz-adv-x="646" 
d="M636 630v-54h-70v-576h-66v98q-69 -110 -202 -110q-107 0 -182.5 76t-75.5 186t75.5 186t182.5 76q133 0 202 -110v174h-184v54h184v70h66v-70h70zM303 52q83 0 140 57.5t57 140.5t-57 140.5t-140 57.5t-140 -57.5t-57 -140.5t57 -140.5t140 -57.5z" />
    <glyph glyph-name="Emacron" unicode="&#x112;" horiz-adv-x="530" 
d="M413 838v-58h-260v58h260zM150 66h340v-66h-410v700h405v-66h-335v-248h310v-66h-310v-254z" />
    <glyph glyph-name="emacron" unicode="&#x113;" horiz-adv-x="584" 
d="M425 638v-58h-260v58h260zM301 512q111 0 179.5 -78.5t68.5 -185.5q0 -11 -2 -31h-439q10 -76 64.5 -120.5t134.5 -44.5q57 0 98.5 23.5t62.5 61.5l58 -34q-33 -53 -90 -84t-130 -31q-118 0 -192 74t-74 188q0 112 73 187t188 75zM301 448q-78 0 -130.5 -46.5
t-62.5 -120.5h373q-10 79 -61 123t-119 44z" />
    <glyph glyph-name="Edotaccent" unicode="&#x116;" horiz-adv-x="530" 
d="M283 770q-23 0 -39 16t-16 39t16 39t39 16t39 -16t16 -39t-16 -39t-39 -16zM150 66h340v-66h-410v700h405v-66h-335v-248h310v-66h-310v-254z" />
    <glyph glyph-name="edotaccent" unicode="&#x117;" horiz-adv-x="584" 
d="M295 570q-23 0 -39 16t-16 39t16 39t39 16t39 -16t16 -39t-16 -39t-39 -16zM301 512q111 0 179.5 -78.5t68.5 -185.5q0 -11 -2 -31h-439q10 -76 64.5 -120.5t134.5 -44.5q57 0 98.5 23.5t62.5 61.5l58 -34q-33 -53 -90 -84t-130 -31q-118 0 -192 74t-74 188q0 112 73 187
t188 75zM301 448q-78 0 -130.5 -46.5t-62.5 -120.5h373q-10 79 -61 123t-119 44z" />
    <glyph glyph-name="Eogonek" unicode="&#x118;" horiz-adv-x="530" 
d="M490 0q-34 -31 -55 -65t-21 -59q0 -31 34 -31q21 0 42 9v-55q-27 -11 -59 -11q-39 0 -60.5 21t-21.5 55q0 66 72 136h-341v700h405v-66h-335v-248h310v-66h-310v-254h340v-66z" />
    <glyph glyph-name="eogonek" unicode="&#x119;" horiz-adv-x="584" 
d="M301 512q111 0 179.5 -78.5t68.5 -185.5q0 -11 -2 -31h-439q10 -76 64.5 -120.5t134.5 -44.5q57 0 98.5 23.5t62.5 61.5l58 -34q-14 -23 -40 -49q-115 -124 -115 -178q0 -31 34 -31q21 0 42 9v-55q-27 -11 -59 -11q-39 0 -60.5 21t-21.5 55q0 65 65 131q-28 -7 -65 -7
q-118 0 -192 74t-74 188q0 112 73 187t188 75zM301 448q-78 0 -130.5 -46.5t-62.5 -120.5h373q-10 79 -61 123t-119 44z" />
    <glyph glyph-name="Ecaron" unicode="&#x11a;" horiz-adv-x="530" 
d="M244 770l-106 130h75l70 -87l70 87h75l-106 -130h-78zM150 66h340v-66h-410v700h405v-66h-335v-248h310v-66h-310v-254z" />
    <glyph glyph-name="ecaron" unicode="&#x11b;" horiz-adv-x="584" 
d="M256 570l-106 130h75l70 -87l70 87h75l-106 -130h-78zM301 512q111 0 179.5 -78.5t68.5 -185.5q0 -11 -2 -31h-439q10 -76 64.5 -120.5t134.5 -44.5q57 0 98.5 23.5t62.5 61.5l58 -34q-33 -53 -90 -84t-130 -31q-118 0 -192 74t-74 188q0 112 73 187t188 75zM301 448
q-78 0 -130.5 -46.5t-62.5 -120.5h373q-10 79 -61 123t-119 44z" />
    <glyph glyph-name="Gbreve" unicode="&#x11e;" horiz-adv-x="789" 
d="M392 762q-64 0 -102 34.5t-38 95.5h64q0 -72 76 -72t76 72h64q0 -62 -37.5 -96t-102.5 -34zM749 333v-36q0 -130 -93 -219.5t-249 -89.5q-159 0 -263 105t-104 257t104 257t263 105q97 0 178 -47t125 -125l-62 -36q-33 64 -98 102t-143 38q-131 0 -214 -85t-83 -209
t83 -209t214 -85q118 0 189 59.5t81 151.5h-278v66h350z" />
    <glyph glyph-name="gbreve" unicode="&#x11f;" 
d="M308 562q-64 0 -102 34.5t-38 95.5h64q0 -72 76 -72t76 72h64q0 -62 -37.5 -96t-102.5 -34zM500 500h66v-480q0 -108 -74 -170t-177 -62q-176 0 -237 122l58 33q45 -91 179 -91q86 0 135.5 45.5t49.5 122.5v78q-69 -110 -202 -110q-107 0 -182.5 76t-75.5 186t75.5 186
t182.5 76q133 0 202 -110v98zM303 52q83 0 140 57.5t57 140.5t-57 140.5t-140 57.5t-140 -57.5t-57 -140.5t57 -140.5t140 -57.5z" />
    <glyph glyph-name="Gdotaccent" unicode="&#x120;" horiz-adv-x="789" 
d="M392 770q-23 0 -39 16t-16 39t16 39t39 16t39 -16t16 -39t-16 -39t-39 -16zM749 333v-36q0 -130 -93 -219.5t-249 -89.5q-159 0 -263 105t-104 257t104 257t263 105q97 0 178 -47t125 -125l-62 -36q-33 64 -98 102t-143 38q-131 0 -214 -85t-83 -209t83 -209t214 -85
q118 0 189 59.5t81 151.5h-278v66h350z" />
    <glyph glyph-name="gdotaccent" unicode="&#x121;" 
d="M308 570q-23 0 -39 16t-16 39t16 39t39 16t39 -16t16 -39t-16 -39t-39 -16zM500 500h66v-480q0 -108 -74 -170t-177 -62q-176 0 -237 122l58 33q45 -91 179 -91q86 0 135.5 45.5t49.5 122.5v78q-69 -110 -202 -110q-107 0 -182.5 76t-75.5 186t75.5 186t182.5 76
q133 0 202 -110v98zM303 52q83 0 140 57.5t57 140.5t-57 140.5t-140 57.5t-140 -57.5t-57 -140.5t57 -140.5t140 -57.5z" />
    <glyph glyph-name="Gcommaaccent" unicode="&#x122;" horiz-adv-x="789" 
d="M749 333v-36q0 -130 -93 -219.5t-249 -89.5q-159 0 -263 105t-104 257t104 257t263 105q97 0 178 -47t125 -125l-62 -36q-33 64 -98 102t-143 38q-131 0 -214 -85t-83 -209t83 -209t214 -85q118 0 189 59.5t81 151.5h-278v66h350zM385 -240l10 170h66l-30 -170h-46z" />
    <glyph glyph-name="gcommaaccent" unicode="&#x123;" 
d="M345 760l-10 -170h-66l30 170h46zM500 500h66v-480q0 -108 -74 -170t-177 -62q-176 0 -237 122l58 33q45 -91 179 -91q86 0 135.5 45.5t49.5 122.5v78q-69 -110 -202 -110q-107 0 -182.5 76t-75.5 186t75.5 186t182.5 76q133 0 202 -110v98zM303 52q83 0 140 57.5
t57 140.5t-57 140.5t-140 57.5t-140 -57.5t-57 -140.5t57 -140.5t140 -57.5z" />
    <glyph glyph-name="Hbar" unicode="&#x126;" horiz-adv-x="730" 
d="M690 568v-56h-65v-512h-70v327h-380v-327h-70v512h-65v56h65v132h70v-132h380v132h70v-132h65zM555 393v119h-380v-119h380z" />
    <glyph glyph-name="hbar" unicode="&#x127;" horiz-adv-x="568" 
d="M314 512q91 0 143.5 -55.5t52.5 -149.5v-307h-66v307q0 67 -35.5 104t-100.5 37q-72 0 -117 -45.5t-45 -140.5v-262h-66v576h-70v54h70v70h66v-70h144v-54h-144v-154q56 90 168 90z" />
    <glyph glyph-name="Imacron" unicode="&#x12a;" horiz-adv-x="230" 
d="M-15 780v58h260v-58h-260zM80 700h70v-700h-70v700z" />
    <glyph glyph-name="imacron" unicode="&#x12b;" horiz-adv-x="206" 
d="M3 580v58h200v-58h-200zM70 0v500h66v-500h-66z" />
    <glyph glyph-name="Iogonek" unicode="&#x12e;" horiz-adv-x="230" 
d="M139 -155q21 0 42 9v-55q-27 -11 -59 -11q-39 0 -60.5 21t-21.5 55q0 61 40 137v699h70v-700q-17 -31 -24 -44.5t-14 -36.5t-7 -43q0 -31 34 -31z" />
    <glyph glyph-name="iogonek" unicode="&#x12f;" horiz-adv-x="206" 
d="M103 606q-20 0 -34 14t-14 34t14 34t34 14t34 -14t14 -34t-14 -34t-34 -14zM129 -155q21 0 42 9v-55q-27 -11 -59 -11q-38 0 -60 25.5t-22 60.5q0 56 40 131v495h66v-500q-41 -66 -41 -114q0 -17 9.5 -29t24.5 -12z" />
    <glyph glyph-name="Idotaccent" unicode="&#x130;" horiz-adv-x="230" 
d="M115 770q-23 0 -39 16t-16 39t16 39t39 16t39 -16t16 -39t-16 -39t-39 -16zM80 700h70v-700h-70v700z" />
    <glyph glyph-name="dotlessi" unicode="&#x131;" horiz-adv-x="206" 
d="M70 0v500h66v-500h-66z" />
    <glyph glyph-name="Kcommaaccent" unicode="&#x136;" horiz-adv-x="580" 
d="M224 360l346 -360h-92l-328 339v-339h-70v700h70v-320l318 320h92zM265 -240l10 170h66l-30 -170h-46z" />
    <glyph glyph-name="kcommaaccent" unicode="&#x137;" horiz-adv-x="494" 
d="M206 260l268 -260h-88l-250 241v-241h-66v700h66v-421l238 221h90zM223 -240l10 170h66l-30 -170h-46z" />
    <glyph glyph-name="Lacute" unicode="&#x139;" horiz-adv-x="490" 
d="M242 900l-96 -130h-64l80 130h80zM150 66h320v-66h-390v700h70v-634z" />
    <glyph glyph-name="lacute" unicode="&#x13a;" horiz-adv-x="206" 
d="M70 770h64l96 130h-80zM70 0v730h66v-730h-66z" />
    <glyph glyph-name="Lcommaaccent" unicode="&#x13b;" horiz-adv-x="490" 
d="M150 66h320v-66h-390v700h70v-634zM243 -240l10 170h66l-30 -170h-46z" />
    <glyph glyph-name="lcommaaccent" unicode="&#x13c;" horiz-adv-x="206" 
d="M70 0v730h66v-730h-66zM107 -240l30 170h-66l-10 -170h46z" />
    <glyph glyph-name="Lcaron" unicode="&#x13d;" horiz-adv-x="490" 
d="M150 66h320v-66h-390v700h70v-634zM332 700l-30 -170h-46l10 170h66z" />
    <glyph glyph-name="lcaron" unicode="&#x13e;" horiz-adv-x="272" 
d="M70 0v730h66v-730h-66zM252 560l30 170h-66l-10 -170h46z" />
    <glyph glyph-name="Lslash" unicode="&#x141;" horiz-adv-x="510" 
d="M170 66h320v-66h-390v244l-60 -35v63l60 35v393h70v-351l170 100v-63l-170 -100v-220z" />
    <glyph glyph-name="lslash" unicode="&#x142;" horiz-adv-x="240" 
d="M220 460v-63l-67 -46v-351h-66v306l-67 -46v63l67 46v361h66v-316z" />
    <glyph glyph-name="Nacute" unicode="&#x143;" horiz-adv-x="680" 
d="M290 770h64l96 130h-80zM530 700h70v-700h-60l-390 570v-570h-70v700h60l390 -570v570z" />
    <glyph glyph-name="nacute" unicode="&#x144;" horiz-adv-x="558" 
d="M400 700l-96 -130h-64l80 130h80zM304 512q91 0 143.5 -55.5t52.5 -149.5v-307h-66v307q0 67 -35.5 104t-100.5 37q-72 0 -117 -45.5t-45 -140.5v-262h-66v500h66v-78q56 90 168 90z" />
    <glyph glyph-name="Ncommaaccent" unicode="&#x145;" horiz-adv-x="680" 
d="M530 700h70v-700h-60l-390 570v-570h-70v700h60l390 -570v570zM344 -240l30 170h-66l-10 -170h46z" />
    <glyph glyph-name="ncommaaccent" unicode="&#x146;" horiz-adv-x="558" 
d="M304 512q91 0 143.5 -55.5t52.5 -149.5v-307h-66v307q0 67 -35.5 104t-100.5 37q-72 0 -117 -45.5t-45 -140.5v-262h-66v500h66v-78q56 90 168 90zM251 -240l10 170h66l-30 -170h-46z" />
    <glyph glyph-name="Ncaron" unicode="&#x147;" horiz-adv-x="680" 
d="M301 770l-106 130h75l70 -87l70 87h75l-106 -130h-78zM530 700h70v-700h-60l-390 570v-570h-70v700h60l390 -570v570z" />
    <glyph glyph-name="ncaron" unicode="&#x148;" horiz-adv-x="558" 
d="M251 570l-106 130h75l70 -87l70 87h75l-106 -130h-78zM304 512q91 0 143.5 -55.5t52.5 -149.5v-307h-66v307q0 67 -35.5 104t-100.5 37q-72 0 -117 -45.5t-45 -140.5v-262h-66v500h66v-78q56 90 168 90z" />
    <glyph glyph-name="Eng" unicode="&#x14a;" horiz-adv-x="680" 
d="M530 700h70v-700q0 -200 -210 -200v68q69 0 104.5 27t35.5 105v15l-380 555v-570h-70v700h60l390 -570v570z" />
    <glyph glyph-name="eng" unicode="&#x14b;" horiz-adv-x="558" 
d="M304 512q91 0 143.5 -55.5t52.5 -149.5v-347q0 -90 -47 -135t-133 -37v64q59 -6 86.5 19t27.5 89v347q0 67 -35.5 104t-100.5 37q-72 0 -117 -45.5t-45 -140.5v-262h-66v500h66v-78q56 90 168 90z" />
    <glyph glyph-name="Omacron" unicode="&#x14c;" horiz-adv-x="804" 
d="M272 780v58h260v-58h-260zM402 -12q-152 0 -257 105.5t-105 256.5t105 256.5t257 105.5t257 -105.5t105 -256.5t-105 -256.5t-257 -105.5zM402 56q124 0 208 85.5t84 208.5t-84 208.5t-208 85.5t-208 -85.5t-84 -208.5t84 -208.5t208 -85.5z" />
    <glyph glyph-name="omacron" unicode="&#x14d;" horiz-adv-x="606" 
d="M173 580v58h260v-58h-260zM303 -12q-110 0 -186.5 75.5t-76.5 186.5t76.5 186.5t186.5 75.5t186.5 -75.5t76.5 -186.5t-76.5 -186.5t-186.5 -75.5zM303 52q83 0 140 57.5t57 140.5t-57 140.5t-140 57.5t-140 -57.5t-57 -140.5t57 -140.5t140 -57.5z" />
    <glyph glyph-name="Ohungarumlaut" unicode="&#x150;" horiz-adv-x="804" 
d="M272 770h68l76 130h-74zM415 770h68l86 130h-74zM402 -12q-152 0 -257 105.5t-105 256.5t105 256.5t257 105.5t257 -105.5t105 -256.5t-105 -256.5t-257 -105.5zM402 56q124 0 208 85.5t84 208.5t-84 208.5t-208 85.5t-208 -85.5t-84 -208.5t84 -208.5t208 -85.5z" />
    <glyph glyph-name="ohungarumlaut" unicode="&#x151;" horiz-adv-x="606" 
d="M173 570h68l76 130h-74zM316 570h68l86 130h-74zM303 -12q-110 0 -186.5 75.5t-76.5 186.5t76.5 186.5t186.5 75.5t186.5 -75.5t76.5 -186.5t-76.5 -186.5t-186.5 -75.5zM303 52q83 0 140 57.5t57 140.5t-57 140.5t-140 57.5t-140 -57.5t-57 -140.5t57 -140.5t140 -57.5z
" />
    <glyph glyph-name="OE" unicode="&#x152;" horiz-adv-x="915" 
d="M555 66h320v-66h-390q-43 -12 -93 -12q-151 0 -251.5 105t-100.5 257t100.5 257t251.5 105q50 0 93 -12h385v-66h-315v-248h300v-66h-300v-254zM485 71v558q-43 15 -93 15q-123 0 -202.5 -85t-79.5 -209t79.5 -209t202.5 -85q50 0 93 15z" />
    <glyph glyph-name="oe" unicode="&#x153;" horiz-adv-x="1044" 
d="M763 512q109 0 177.5 -78.5t68.5 -185.5q0 -11 -2 -31h-439q10 -76 64.5 -120.5t134.5 -44.5q57 0 98.5 23.5t62.5 61.5l58 -34q-33 -53 -89.5 -84t-128.5 -31q-83 0 -145 39.5t-91 107.5q-30 -67 -90.5 -107t-138.5 -40q-113 0 -188 75t-75 187t75 187t188 75
q78 0 138.5 -40t91.5 -108q28 68 88.5 108t141.5 40zM303 52q83 0 140 57.5t57 140.5t-57 140.5t-140 57.5q-87 0 -142 -57t-55 -141t55 -141t142 -57zM761 448q-78 0 -130.5 -46.5t-62.5 -120.5h373q-10 79 -61 123t-119 44z" />
    <glyph glyph-name="Racute" unicode="&#x154;" horiz-adv-x="610" 
d="M420 900l-96 -130h-64l80 130h80zM510 0l-164 280h-196v-280h-70v700h280q87 0 148.5 -61.5t61.5 -148.5q0 -71 -42.5 -126.5t-108.5 -74.5l171 -289h-80zM150 634v-288h210q58 0 99 42.5t41 101.5q0 60 -41 102t-99 42h-210z" />
    <glyph glyph-name="racute" unicode="&#x155;" horiz-adv-x="314" 
d="M292 700l-96 -130h-64l80 130h80zM136 417q46 91 158 91v-64q-68 0 -113 -40t-45 -126v-278h-66v500h66v-83z" />
    <glyph glyph-name="Rcommaaccent" unicode="&#x156;" horiz-adv-x="610" 
d="M419 289l171 -289h-80l-164 280h-196v-280h-70v700h280q87 0 148.5 -61.5t61.5 -148.5q0 -71 -42.5 -126.5t-108.5 -74.5zM150 634v-288h210q58 0 99 42.5t41 101.5q0 60 -41 102t-99 42h-210zM288 -240l10 170h66l-30 -170h-46z" />
    <glyph glyph-name="rcommaaccent" unicode="&#x157;" horiz-adv-x="314" 
d="M136 417q46 91 158 91v-64q-68 0 -113 -40t-45 -126v-278h-66v500h66v-83zM61 -240l10 170h66l-30 -170h-46z" />
    <glyph glyph-name="Rcaron" unicode="&#x158;" horiz-adv-x="610" 
d="M271 770l-106 130h75l70 -87l70 87h75l-106 -130h-78zM510 0l-164 280h-196v-280h-70v700h280q87 0 148.5 -61.5t61.5 -148.5q0 -71 -42.5 -126.5t-108.5 -74.5l171 -289h-80zM150 634v-288h210q58 0 99 42.5t41 101.5q0 60 -41 102t-99 42h-210z" />
    <glyph glyph-name="rcaron" unicode="&#x159;" horiz-adv-x="314" 
d="M143 570l-106 130h75l70 -87l70 87h75l-106 -130h-78zM136 417q46 91 158 91v-64q-68 0 -113 -40t-45 -126v-278h-66v500h66v-83z" />
    <glyph glyph-name="Sacute" unicode="&#x15a;" horiz-adv-x="576" 
d="M232 770h64l96 130h-80zM300 -12q-96 0 -164.5 45.5t-95.5 125.5l60 35q19 -65 70 -101.5t131 -36.5q78 0 121.5 34.5t43.5 91.5q0 55 -40 83t-132 58q-109 36 -144 58q-80 48 -80 139q0 89 62 140.5t153 51.5q82 0 142 -42.5t89 -108.5l-59 -33q-48 116 -172 116
q-65 0 -105 -32t-40 -89q0 -52 36 -78t119 -53q38 -13 54.5 -18.5t48 -18t46.5 -22t36.5 -26t31 -33t17 -40t7.5 -50.5q0 -89 -65 -142.5t-171 -53.5z" />
    <glyph glyph-name="sacute" unicode="&#x15b;" horiz-adv-x="454" 
d="M339 700l-96 -130h-64l80 130h80zM122 369q0 -34 30 -54t73 -31t86 -24.5t73 -45t30 -82.5q0 -64 -50.5 -104t-130.5 -40q-72 0 -122.5 32t-70.5 83l56 33q14 -39 50.5 -61.5t86.5 -22.5q49 0 82 19.5t33 60.5q0 34 -30 54t-73 31t-86 24.5t-73 45t-30 82.5
q0 61 48.5 102t122.5 41q61 0 107 -27.5t68 -74.5l-55 -32q-29 70 -120 70q-43 0 -74 -20.5t-31 -58.5z" />
    <glyph glyph-name="Scedilla" unicode="&#x15e;" horiz-adv-x="576" 
d="M536 184q0 -86 -60 -138.5t-159 -57.5v-33q43 -8 68 -29t25 -52q0 -102 -205 -90v54q147 -12 147 36q0 38 -93 41v75q-81 10 -138 54t-81 115l60 35q19 -65 70 -101.5t131 -36.5q78 0 121.5 34.5t43.5 91.5q0 55 -40 83t-132 58q-109 36 -144 58q-80 48 -80 139
q0 89 62 140.5t153 51.5q82 0 142 -42.5t89 -108.5l-59 -33q-48 116 -172 116q-65 0 -105 -32t-40 -89q0 -52 36 -78t119 -53q38 -13 54.5 -18.5t48 -18t46.5 -22t36.5 -26t31 -33t17 -40t7.5 -50.5z" />
    <glyph glyph-name="scedilla" unicode="&#x15f;" horiz-adv-x="454" 
d="M414 132q0 -58 -43 -97t-113 -46v-34q43 -8 68 -29t25 -52q0 -102 -205 -90v54q147 -12 147 36q0 38 -93 41v75q-60 7 -101.5 38t-58.5 75l56 33q14 -39 50.5 -61.5t86.5 -22.5q49 0 82 19.5t33 60.5q0 34 -30 54t-73 31t-86 24.5t-73 45t-30 82.5q0 61 48.5 102
t122.5 41q61 0 107 -27.5t68 -74.5l-55 -32q-29 70 -120 70q-43 0 -74 -20.5t-31 -58.5q0 -34 30 -54t73 -31t86 -24.5t73 -45t30 -82.5z" />
    <glyph glyph-name="Scaron" unicode="&#x160;" horiz-adv-x="576" 
d="M243 770l-106 130h75l70 -87l70 87h75l-106 -130h-78zM295 392q38 -13 54.5 -18.5t48 -18t46.5 -22t36.5 -26t31 -33t17 -40t7.5 -50.5q0 -89 -65 -142.5t-171 -53.5q-96 0 -164.5 45.5t-95.5 125.5l60 35q19 -65 70 -101.5t131 -36.5q78 0 121.5 34.5t43.5 91.5
q0 55 -40 83t-132 58q-109 36 -144 58q-80 48 -80 139q0 89 62 140.5t153 51.5q82 0 142 -42.5t89 -108.5l-59 -33q-48 116 -172 116q-65 0 -105 -32t-40 -89q0 -52 36 -78t119 -53z" />
    <glyph glyph-name="scaron" unicode="&#x161;" horiz-adv-x="454" 
d="M190 570l-106 130h75l70 -87l70 87h75l-106 -130h-78zM122 369q0 -34 30 -54t73 -31t86 -24.5t73 -45t30 -82.5q0 -64 -50.5 -104t-130.5 -40q-72 0 -122.5 32t-70.5 83l56 33q14 -39 50.5 -61.5t86.5 -22.5q49 0 82 19.5t33 60.5q0 34 -30 54t-73 31t-86 24.5t-73 45
t-30 82.5q0 61 48.5 102t122.5 41q61 0 107 -27.5t68 -74.5l-55 -32q-29 70 -120 70q-43 0 -74 -20.5t-31 -58.5z" />
    <glyph glyph-name="uni0162" unicode="&#x162;" horiz-adv-x="540" 
d="M520 700v-66h-215v-634h-70v634h-215v66h500zM228 -240l10 170h66l-30 -170h-46z" />
    <glyph glyph-name="uni0163" unicode="&#x163;" horiz-adv-x="375" 
d="M335 436h-144v-303q0 -41 16 -58.5t48 -18t80 1.5v-58q-105 -16 -157.5 15t-52.5 118v303h-105v64h105v120l66 20v-140h144v-64zM194 -240l10 170h66l-30 -170h-46z" />
    <glyph glyph-name="Tcaron" unicode="&#x164;" horiz-adv-x="540" 
d="M231 770l-106 130h75l70 -87l70 87h75l-106 -130h-78zM520 700v-66h-215v-634h-70v634h-215v66h500z" />
    <glyph glyph-name="tcaron" unicode="&#x165;" horiz-adv-x="375" 
d="M322 715l-30 -160h-46l10 160h66zM335 436h-144v-303q0 -41 16 -58.5t48 -18t80 1.5v-58q-105 -16 -157.5 15t-52.5 118v303h-105v64h105v120l66 20v-140h144v-64z" />
    <glyph glyph-name="Tbar" unicode="&#x166;" horiz-adv-x="540" 
d="M520 634h-215v-252h145v-64h-145v-318h-70v318h-145v64h145v252h-215v66h500v-66z" />
    <glyph glyph-name="tbar" unicode="&#x167;" horiz-adv-x="375" 
d="M335 436h-144v-149h97v-54h-97v-100q0 -41 16 -58.5t48 -18t80 1.5v-58q-105 -16 -157.5 15t-52.5 118v100h-67v54h67v149h-105v64h105v120l66 20v-140h144v-64z" />
    <glyph glyph-name="Umacron" unicode="&#x16a;" horiz-adv-x="660" 
d="M200 780v58h260v-58h-260zM330 -12q-116 0 -188 68t-72 182v462h70v-462q0 -84 50 -133t140 -49t140 49t50 133v462h70v-462q0 -114 -72 -182t-188 -68z" />
    <glyph glyph-name="umacron" unicode="&#x16b;" horiz-adv-x="558" 
d="M401 638v-58h-260v58h260zM422 500h66v-500h-66v78q-56 -90 -168 -90q-91 0 -143.5 55.5t-52.5 149.5v307h66v-307q0 -67 35.5 -104t100.5 -37q72 0 117 45.5t45 140.5v262z" />
    <glyph glyph-name="Uring" unicode="&#x16e;" horiz-adv-x="660" 
d="M330 720q-47 0 -76.5 28.5t-29.5 71.5t29.5 71.5t76.5 28.5t76.5 -28.5t29.5 -71.5t-29.5 -71.5t-76.5 -28.5zM330 771q25 0 38.5 13.5t13.5 35.5t-13.5 35.5t-38.5 13.5q-24 0 -37.5 -13.5t-13.5 -35.5t13.5 -35.5t37.5 -13.5zM330 -12q-116 0 -188 68t-72 182v462h70
v-462q0 -84 50 -133t140 -49t140 49t50 133v462h70v-462q0 -114 -72 -182t-188 -68z" />
    <glyph glyph-name="uring" unicode="&#x16f;" horiz-adv-x="558" 
d="M271 550q-47 0 -76.5 28.5t-29.5 71.5t29.5 71.5t76.5 28.5t76.5 -28.5t29.5 -71.5t-29.5 -71.5t-76.5 -28.5zM271 699q-24 0 -37.5 -13.5t-13.5 -35.5t13.5 -35.5t37.5 -13.5q25 0 38.5 13.5t13.5 35.5t-13.5 35.5t-38.5 13.5zM422 500h66v-500h-66v78q-56 -90 -168 -90
q-91 0 -143.5 55.5t-52.5 149.5v307h66v-307q0 -67 35.5 -104t100.5 -37q72 0 117 45.5t45 140.5v262z" />
    <glyph glyph-name="Uhungarumlaut" unicode="&#x170;" horiz-adv-x="660" 
d="M200 770h68l76 130h-74zM343 770h68l86 130h-74zM330 -12q-116 0 -188 68t-72 182v462h70v-462q0 -84 50 -133t140 -49t140 49t50 133v462h70v-462q0 -114 -72 -182t-188 -68z" />
    <glyph glyph-name="uhungarumlaut" unicode="&#x171;" horiz-adv-x="558" 
d="M285 700l-76 -130h-68l70 130h74zM352 570h-68l80 130h74zM422 500h66v-500h-66v78q-56 -90 -168 -90q-91 0 -143.5 55.5t-52.5 149.5v307h66v-307q0 -67 35.5 -104t100.5 -37q72 0 117 45.5t45 140.5v262z" />
    <glyph glyph-name="Uogonek" unicode="&#x172;" horiz-adv-x="660" 
d="M520 700h70v-462q0 -130 -92 -198q-65 -61 -91.5 -96.5t-26.5 -67.5q0 -31 34 -31q21 0 42 9v-55q-27 -11 -59 -11q-39 0 -60.5 21t-21.5 55q0 61 64 127q-24 -3 -49 -3q-116 0 -188 68t-72 182v462h70v-462q0 -84 50 -133t140 -49t140 49t50 133v462z" />
    <glyph glyph-name="uogonek" unicode="&#x173;" horiz-adv-x="558" 
d="M488 0q-34 -31 -55 -65t-21 -59q0 -31 34 -31q21 0 42 9v-55q-27 -11 -59 -11q-39 0 -60.5 21t-21.5 55q0 60 75 147v67q-56 -90 -168 -90q-91 0 -143.5 55.5t-52.5 149.5v307h66v-307q0 -67 35.5 -104t100.5 -37q72 0 117 45.5t45 140.5v262h66v-500z" />
    <glyph glyph-name="Wcircumflex" unicode="&#x174;" horiz-adv-x="1000" 
d="M500 857l-70 -87h-75l106 130h78l106 -130h-75zM896 700h74l-203 -700h-84l-183 608l-183 -608h-84l-203 700h74l173 -605l182 605h82l182 -605z" />
    <glyph glyph-name="wcircumflex" unicode="&#x175;" horiz-adv-x="770" 
d="M385 657l-70 -87h-75l106 130h78l106 -130h-75zM672 500h68l-154 -500h-72l-129 403l-129 -403h-72l-154 500h68l123 -415l131 415h66l131 -415z" />
    <glyph glyph-name="Ycircumflex" unicode="&#x176;" horiz-adv-x="595" 
d="M294 857l-70 -87h-75l106 130h78l106 -130h-75zM585 700l-253 -413v-287h-70v289l-252 411h79l209 -343l208 343h79z" />
    <glyph glyph-name="ycircumflex" unicode="&#x177;" horiz-adv-x="510" 
d="M253 657l-70 -87h-75l106 130h78l106 -130h-75zM430 500h70l-214 -546q-29 -74 -82.5 -116.5t-119.5 -37.5v62q90 -10 137 104l13 31l-224 503h70l188 -419z" />
    <glyph glyph-name="Ydieresis" unicode="&#x178;" horiz-adv-x="595" 
d="M199 775q-19 0 -32 13t-13 32t13 32t32 13t32 -13t13 -32t-13 -32t-32 -13zM389 775q-19 0 -32 13t-13 32t13 32t32 13t32 -13t13 -32t-13 -32t-32 -13zM585 700l-253 -413v-287h-70v289l-252 411h79l209 -343l208 343h79z" />
    <glyph glyph-name="Zacute" unicode="&#x179;" horiz-adv-x="520" 
d="M375 900l-96 -130h-64l80 130h80zM118 66h372v-66h-450v66l362 568h-352v66h430v-66z" />
    <glyph glyph-name="zacute" unicode="&#x17a;" horiz-adv-x="470" 
d="M352 700l-96 -130h-64l80 130h80zM142 64h288v-64h-380v44l278 392h-268v64h360v-44z" />
    <glyph glyph-name="Zdotaccent" unicode="&#x17b;" horiz-adv-x="520" 
d="M265 770q-23 0 -39 16t-16 39t16 39t39 16t39 -16t16 -39t-16 -39t-39 -16zM118 66h372v-66h-450v66l362 568h-352v66h430v-66z" />
    <glyph glyph-name="zdotaccent" unicode="&#x17c;" horiz-adv-x="470" 
d="M242 570q-23 0 -39 16t-16 39t16 39t39 16t39 -16t16 -39t-16 -39t-39 -16zM142 64h288v-64h-380v44l278 392h-268v64h360v-44z" />
    <glyph glyph-name="Zcaron" unicode="&#x17d;" horiz-adv-x="520" 
d="M226 770l-106 130h75l70 -87l70 87h75l-106 -130h-78zM118 66h372v-66h-450v66l362 568h-352v66h430v-66z" />
    <glyph glyph-name="zcaron" unicode="&#x17e;" horiz-adv-x="470" 
d="M203 570l-106 130h75l70 -87l70 87h75l-106 -130h-78zM142 64h288v-64h-380v44l278 392h-268v64h360v-44z" />
    <glyph glyph-name="florin" unicode="&#x192;" horiz-adv-x="439" 
d="M439 639q-54 20 -89 1t-43 -69l-32 -188h115v-64h-126l-66 -388q-15 -88 -68.5 -121.5t-129.5 -10.5v64q54 -20 89 -1t43 69l66 388h-109v64h120l32 188q15 88 68.5 121.5t129.5 10.5v-64z" />
    <glyph glyph-name="Scommaaccent" unicode="&#x218;" horiz-adv-x="576" 
d="M300 -12q-96 0 -164.5 45.5t-95.5 125.5l60 35q19 -65 70 -101.5t131 -36.5q78 0 121.5 34.5t43.5 91.5q0 55 -40 83t-132 58q-109 36 -144 58q-80 48 -80 139q0 89 62 140.5t153 51.5q82 0 142 -42.5t89 -108.5l-59 -33q-48 116 -172 116q-65 0 -105 -32t-40 -89
q0 -52 36 -78t119 -53q38 -13 54.5 -18.5t48 -18t46.5 -22t36.5 -26t31 -33t17 -40t7.5 -50.5q0 -89 -65 -142.5t-171 -53.5zM309 -240l30 170h-66l-10 -170h46z" />
    <glyph glyph-name="scommaaccent" unicode="&#x219;" horiz-adv-x="454" 
d="M122 369q0 -34 30 -54t73 -31t86 -24.5t73 -45t30 -82.5q0 -64 -50.5 -104t-130.5 -40q-72 0 -122.5 32t-70.5 83l56 33q14 -39 50.5 -61.5t86.5 -22.5q49 0 82 19.5t33 60.5q0 34 -30 54t-73 31t-86 24.5t-73 45t-30 82.5q0 61 48.5 102t122.5 41q61 0 107 -27.5
t68 -74.5l-55 -32q-29 70 -120 70q-43 0 -74 -20.5t-31 -58.5zM204 -240l10 170h66l-30 -170h-46z" />
    <glyph glyph-name="uni021A" unicode="&#x21a;" horiz-adv-x="540" 
d="M520 700v-66h-215v-634h-70v634h-215v66h500zM228 -240l10 170h66l-30 -170h-46z" />
    <glyph glyph-name="uni021B" unicode="&#x21b;" horiz-adv-x="375" 
d="M335 436h-144v-303q0 -41 16 -58.5t48 -18t80 1.5v-58q-105 -16 -157.5 15t-52.5 118v303h-105v64h105v120l66 20v-140h144v-64zM194 -240l10 170h66l-30 -170h-46z" />
    <glyph glyph-name="circumflex" unicode="&#x2c6;" horiz-adv-x="330" 
d="M310 570h-75l-70 87l-70 -87h-75l106 130h78z" />
    <glyph glyph-name="caron" unicode="&#x2c7;" horiz-adv-x="330" 
d="M235 700h75l-106 -130h-78l-106 130h75l70 -87z" />
    <glyph glyph-name="breve" unicode="&#x2d8;" horiz-adv-x="320" 
d="M160 562q-64 0 -102 34.5t-38 95.5h64q0 -72 76 -72t76 72h64q0 -62 -37.5 -96t-102.5 -34z" />
    <glyph glyph-name="dotaccent" unicode="&#x2d9;" horiz-adv-x="150" 
d="M75 570q-23 0 -39 16t-16 39t16 39t39 16t39 -16t16 -39t-16 -39t-39 -16z" />
    <glyph glyph-name="ring" unicode="&#x2da;" horiz-adv-x="252" 
d="M126 550q-47 0 -76.5 28.5t-29.5 71.5t29.5 71.5t76.5 28.5t76.5 -28.5t29.5 -71.5t-29.5 -71.5t-76.5 -28.5zM126 601q25 0 38.5 13.5t13.5 35.5t-13.5 35.5t-38.5 13.5q-24 0 -37.5 -13.5t-13.5 -35.5t13.5 -35.5t37.5 -13.5z" />
    <glyph glyph-name="ogonek" unicode="&#x2db;" horiz-adv-x="181" 
d="M102 -212q-39 0 -60.5 21t-21.5 55q0 66 72 136h69q-34 -31 -55 -65t-21 -59q0 -31 34 -31q21 0 42 9v-55q-27 -11 -59 -11z" />
    <glyph glyph-name="tilde" unicode="&#x2dc;" horiz-adv-x="320" 
d="M20 580q0 59 21 88t53 27.5t67 -28.5q18 -14 29 -21t22 -11t17 1t9.5 18t3.5 36h58q0 -59 -21 -88t-52.5 -27.5t-66.5 28.5q-23 17 -35.5 24.5t-24.5 8.5t-17 -13t-5 -43h-58z" />
    <glyph glyph-name="hungarumlaut" unicode="&#x2dd;" horiz-adv-x="337" 
d="M20 570h68l76 130h-74zM163 570h68l86 130h-74z" />
    <glyph glyph-name="gravecomb" unicode="&#x300;" horiz-adv-x="0" 
d="M-20 570l-80 130h-80l96 -130h64z" />
    <glyph glyph-name="acutecomb" unicode="&#x301;" horiz-adv-x="0" 
d="M-180 570h64l96 130h-80z" />
    <glyph glyph-name="uni0302" unicode="&#x302;" horiz-adv-x="0" 
d="M-20 570h-75l-70 87l-70 -87h-75l106 130h78z" />
    <glyph glyph-name="tildecomb" unicode="&#x303;" horiz-adv-x="0" 
d="M-300 580q0 59 21 88t53 27.5t67 -28.5q18 -14 29 -21t22 -11t17 1t9.5 18t3.5 36h58q0 -59 -21 -88t-52.5 -27.5t-66.5 28.5q-23 17 -35.5 24.5t-24.5 8.5t-17 -13t-5 -43h-58z" />
    <glyph glyph-name="uni0304" unicode="&#x304;" horiz-adv-x="0" 
d="M-280 580v58h260v-58h-260z" />
    <glyph glyph-name="uni0306" unicode="&#x306;" horiz-adv-x="0" 
d="M-160 562q-64 0 -102 34.5t-38 95.5h64q0 -72 76 -72t76 72h64q0 -62 -37.5 -96t-102.5 -34z" />
    <glyph glyph-name="uni0307" unicode="&#x307;" horiz-adv-x="0" 
d="M-75 570q-23 0 -39 16t-16 39t16 39t39 16t39 -16t16 -39t-16 -39t-39 -16z" />
    <glyph glyph-name="uni0308" unicode="&#x308;" horiz-adv-x="0" 
d="M-255 575q-19 0 -32 13t-13 32t13 32t32 13t32 -13t13 -32t-13 -32t-32 -13zM-65 575q-19 0 -32 13t-13 32t13 32t32 13t32 -13t13 -32t-13 -32t-32 -13z" />
    <glyph glyph-name="uni030A" unicode="&#x30a;" horiz-adv-x="0" 
d="M-126 550q-47 0 -76.5 28.5t-29.5 71.5t29.5 71.5t76.5 28.5t76.5 -28.5t29.5 -71.5t-29.5 -71.5t-76.5 -28.5zM-126 601q25 0 38.5 13.5t13.5 35.5t-13.5 35.5t-38.5 13.5q-24 0 -37.5 -13.5t-13.5 -35.5t13.5 -35.5t37.5 -13.5z" />
    <glyph glyph-name="uni030B" unicode="&#x30b;" horiz-adv-x="0" 
d="M-317 570h68l76 130h-74zM-174 570h68l86 130h-74z" />
    <glyph glyph-name="uni030C" unicode="&#x30c;" horiz-adv-x="0" 
d="M-95 700h75l-106 -130h-78l-106 130h75l70 -87z" />
    <glyph glyph-name="uni0312" unicode="&#x312;" horiz-adv-x="0" 
d="M-66 960l-30 -170h66l10 170h-46z" />
    <glyph glyph-name="uni0326" unicode="&#x326;" horiz-adv-x="0" 
d="M-50 -240l30 170h-66l-10 -170h46z" />
    <glyph glyph-name="uni0327" unicode="&#x327;" horiz-adv-x="0" 
d="M-113 -45q43 -8 68 -29t25 -52q0 -102 -205 -90v54q147 -12 147 36q0 38 -93 41v85h58v-45z" />
    <glyph glyph-name="uni0328" unicode="&#x328;" horiz-adv-x="0" 
d="M-79 -212q-39 0 -60.5 21t-21.5 55q0 66 72 136h69q-34 -31 -55 -65t-21 -59q0 -31 34 -31q21 0 42 9v-55q-27 -11 -59 -11z" />
    <glyph glyph-name="uni0394" unicode="&#x394;" horiz-adv-x="630" 
d="M351 700l269 -700h-610l269 700h72zM109 66h412l-206 547z" />
    <glyph glyph-name="uni03A9" unicode="&#x3a9;" horiz-adv-x="804" 
d="M764 350q0 -90 -40.5 -164.5t-110.5 -119.5h139v-66h-273v66q95 25 155 103.5t60 180.5q0 123 -84 208.5t-208 85.5t-208 -85.5t-84 -208.5q0 -102 59.5 -180.5t155.5 -103.5v-66h-273v66h139q-71 45 -111 119.5t-40 164.5q0 151 105 256.5t257 105.5t257 -105.5
t105 -256.5z" />
    <glyph glyph-name="pi" unicode="&#x3c0;" horiz-adv-x="650" 
d="M620 500v-64h-83v-436h-66v436h-288v-436h-66v436h-87v64h590z" />
    <glyph glyph-name="uni0401" unicode="&#x401;" horiz-adv-x="530" 
d="M188 775q-19 0 -32 13t-13 32t13 32t32 13t32 -13t13 -32t-13 -32t-32 -13zM378 775q-19 0 -32 13t-13 32t13 32t32 13t32 -13t13 -32t-13 -32t-32 -13zM150 66h340v-66h-410v700h405v-66h-335v-248h310v-66h-310v-254z" />
    <glyph glyph-name="uni0402" unicode="&#x402;" horiz-adv-x="698" 
d="M444 472q84 0 136.5 -49t52.5 -141v-118q0 -90 -47 -135t-133 -37v64q58 -6 84 19t26 89v118q0 126 -118 126q-83 0 -160 -33v-375h-70v634h-195v66h490v-66h-225v-196q71 34 159 34z" />
    <glyph glyph-name="uni0403" unicode="&#x403;" horiz-adv-x="490" 
d="M386 899l-96 -130h-64l80 130h80zM470 700v-66h-320v-634h-70v700h390z" />
    <glyph glyph-name="uni0404" unicode="&#x404;" horiz-adv-x="740" 
d="M402 56q78 0 143 38t98 102l62 -35q-43 -79 -124.5 -126t-178.5 -47q-159 0 -260.5 104.5t-101.5 257.5t101.5 257.5t260.5 104.5q97 0 178 -46.5t125 -125.5l-62 -36q-33 64 -98 102t-143 38q-121 0 -200 -74t-90 -187h383v-66h-383q11 -113 90 -187t200 -74z" />
    <glyph glyph-name="uni0405" unicode="&#x405;" horiz-adv-x="576" 
d="M300 -12q-96 0 -164.5 45.5t-95.5 125.5l60 35q19 -65 70 -101.5t131 -36.5q78 0 121.5 34.5t43.5 91.5q0 55 -40 83t-132 58q-109 36 -144 58q-80 48 -80 139q0 89 62 140.5t153 51.5q82 0 142 -42.5t89 -108.5l-59 -33q-48 116 -172 116q-65 0 -105 -32t-40 -89
q0 -52 36 -78t119 -53q38 -13 54.5 -18.5t48 -18t46.5 -22t36.5 -26t31 -33t17 -40t7.5 -50.5q0 -89 -65 -142.5t-171 -53.5z" />
    <glyph glyph-name="uni0406" unicode="&#x406;" horiz-adv-x="230" 
d="M80 700h70v-700h-70v700z" />
    <glyph glyph-name="uni0407" unicode="&#x407;" horiz-adv-x="230" 
d="M20 775q-19 0 -32 13t-13 32t13 32t32 13t32 -13t13 -32t-13 -32t-32 -13zM210 775q-19 0 -32 13t-13 32t13 32t32 13t32 -13t13 -32t-13 -32t-32 -13zM80 700h70v-700h-70v700z" />
    <glyph glyph-name="uni0408" unicode="&#x408;" horiz-adv-x="553" 
d="M253 -12q-73 0 -130.5 30.5t-82.5 89.5l59 35q33 -87 154 -87q73 0 116.5 35t43.5 107v502h70v-502q0 -102 -65.5 -156t-164.5 -54z" />
    <glyph glyph-name="uni0409" unicode="&#x409;" horiz-adv-x="995" 
d="M745 400q88 0 149 -57.5t61 -142.5q0 -86 -61 -143t-149 -57h-230v634h-284v-325q0 -184 -54.5 -251.5t-161.5 -58.5v62q73 -10 109.5 46t36.5 204v389h424v-300h160zM745 66q59 0 99.5 37.5t40.5 96.5q0 58 -40.5 96t-99.5 38h-160v-268h160z" />
    <glyph glyph-name="uni040A" unicode="&#x40a;" horiz-adv-x="980" 
d="M730 400q88 0 149 -57.5t61 -142.5q0 -86 -61 -143t-149 -57h-230v334h-350v-334h-70v700h70v-300h350v300h70v-300h160zM730 66q59 0 99.5 37.5t40.5 96.5q0 58 -40.5 96t-99.5 38h-160v-268h160z" />
    <glyph glyph-name="uni040B" unicode="&#x40b;" horiz-adv-x="703" 
d="M444 472q84 0 136.5 -49t52.5 -141v-282h-70v282q0 126 -118 126q-83 0 -160 -33v-375h-70v634h-195v66h490v-66h-225v-196q71 34 159 34z" />
    <glyph glyph-name="uni040C" unicode="&#x40c;" horiz-adv-x="580" 
d="M396 899l-96 -130h-64l80 130h80zM570 0h-92l-328 339v-339h-70v700h70v-320l318 320h92l-336 -340z" />
    <glyph glyph-name="uni040E" unicode="&#x40e;" horiz-adv-x="570" 
d="M421 837v-58h-260v58h260zM488 700h72l-233 -547q-35 -84 -89 -121t-134 -32v64q56 -6 92.5 16.5t60.5 78.5l14 33l-241 508h72l202 -430z" />
    <glyph glyph-name="uni040F" unicode="&#x40f;" horiz-adv-x="660" 
d="M510 700h70v-700h-215v-134h-70v134h-215v700h70v-634h360v634z" />
    <glyph glyph-name="uni0410" unicode="&#x410;" horiz-adv-x="630" 
d="M546 0l-65 172h-332l-65 -172h-74l269 700h72l269 -700h-74zM174 238h282l-141 375z" />
    <glyph glyph-name="uni0411" unicode="&#x411;" horiz-adv-x="585" 
d="M340 420q87 0 148.5 -62t61.5 -148q0 -87 -61.5 -148.5t-148.5 -61.5h-260v700h410v-66h-340v-214h190zM340 66q58 0 99 42t41 102q0 59 -41 101.5t-99 42.5h-190v-288h190z" />
    <glyph glyph-name="uni0412" unicode="&#x412;" horiz-adv-x="620" 
d="M468 363q51 -22 81.5 -66.5t30.5 -101.5q0 -81 -57 -138t-138 -57h-305v700h282q78 0 133 -55.5t55 -132.5q0 -98 -82 -149zM362 634h-212v-244h212q49 0 83.5 35.5t34.5 86.5q0 50 -34.5 86t-83.5 36zM385 66q52 0 88.5 37.5t36.5 91.5q0 53 -36.5 91t-88.5 38h-235
v-258h235z" />
    <glyph glyph-name="uni0413" unicode="&#x413;" horiz-adv-x="490" 
d="M470 700v-66h-320v-634h-70v700h390z" />
    <glyph glyph-name="uni0414" unicode="&#x414;" horiz-adv-x="690" 
d="M580 66h75v-200h-70v134h-500v-134h-70v200h57q69 81 69 250v384h439v-634zM155 66h355v568h-299v-320q0 -166 -56 -248z" />
    <glyph glyph-name="uni0415" unicode="&#x415;" horiz-adv-x="530" 
d="M150 66h340v-66h-410v700h405v-66h-335v-248h310v-66h-310v-254z" />
    <glyph glyph-name="uni0416" unicode="&#x416;" horiz-adv-x="850" 
d="M830 0h-82l-288 342v-342h-70v342l-288 -342h-82l301 360l-291 340h82l278 -323v323h70v-323l278 323h82l-291 -340z" />
    <glyph glyph-name="uni0417" unicode="&#x417;" horiz-adv-x="565" 
d="M403 362q58 -22 90 -67t32 -106q0 -88 -65.5 -144.5t-176.5 -56.5q-100 0 -160 45t-83 113l60 34q13 -53 56.5 -89.5t126.5 -36.5q82 0 127 37.5t45 97.5t-41.5 97.5t-114.5 37.5h-80v66h55q71 0 113 36t42 93q0 56 -40.5 91.5t-110.5 35.5q-129 0 -170 -110l-58 34
q26 64 82.5 103t145.5 39q99 0 160 -55.5t61 -138.5q0 -105 -96 -156z" />
    <glyph glyph-name="uni0418" unicode="&#x418;" horiz-adv-x="680" 
d="M530 0v570l-390 -570h-60v700h70v-570l390 570h60v-700h-70z" />
    <glyph glyph-name="uni0419" unicode="&#x419;" horiz-adv-x="680" 
d="M210 780v58h260v-58h-260zM530 0v570l-390 -570h-60v700h70v-570l390 570h60v-700h-70z" />
    <glyph glyph-name="uni041A" unicode="&#x41a;" horiz-adv-x="580" 
d="M570 0h-92l-328 339v-339h-70v700h70v-320l318 320h92l-336 -340z" />
    <glyph glyph-name="uni041B" unicode="&#x41b;" horiz-adv-x="695" 
d="M15 0v62q73 -10 109.5 45.5t36.5 203.5v389h454v-700h-70v634h-314v-325q0 -95 -15 -159t-44.5 -97.5t-67 -45t-89.5 -7.5z" />
    <glyph glyph-name="uni041C" unicode="&#x41c;" horiz-adv-x="800" 
d="M720 700v-700h-70v594l-245 -410h-10l-245 410v-594h-70v700h87l233 -390l233 390h87z" />
    <glyph glyph-name="uni041D" unicode="&#x41d;" horiz-adv-x="680" 
d="M530 700h70v-700h-70v327h-380v-327h-70v700h70v-307h380v307z" />
    <glyph glyph-name="uni041E" unicode="&#x41e;" horiz-adv-x="804" 
d="M402 -12q-152 0 -257 105.5t-105 256.5t105 256.5t257 105.5t257 -105.5t105 -256.5t-105 -256.5t-257 -105.5zM402 56q124 0 208 85.5t84 208.5t-84 208.5t-208 85.5t-208 -85.5t-84 -208.5t84 -208.5t208 -85.5z" />
    <glyph glyph-name="uni041F" unicode="&#x41f;" horiz-adv-x="660" 
d="M580 700v-700h-70v634h-360v-634h-70v700h500z" />
    <glyph glyph-name="uni0420" unicode="&#x420;" horiz-adv-x="590" 
d="M330 700q94 0 157 -63t63 -157t-63 -157t-157 -63h-180v-260h-70v700h250zM330 326q65 0 107.5 43.5t42.5 110.5t-42.5 110.5t-107.5 43.5h-180v-308h180z" />
    <glyph glyph-name="uni0421" unicode="&#x421;" horiz-adv-x="745" 
d="M407 -12q-159 0 -263 105t-104 257t104 257t263 105q97 0 178 -46.5t125 -125.5l-62 -36q-33 64 -98 102t-143 38q-131 0 -214 -85t-83 -209t83 -209t214 -85q78 0 143 38t98 102l62 -35q-43 -79 -124.5 -126t-178.5 -47z" />
    <glyph glyph-name="uni0422" unicode="&#x422;" horiz-adv-x="540" 
d="M520 700v-66h-215v-634h-70v634h-215v66h500z" />
    <glyph glyph-name="uni0423" unicode="&#x423;" horiz-adv-x="570" 
d="M488 700h72l-233 -547q-35 -84 -89 -121t-134 -32v64q56 -6 92.5 16.5t60.5 78.5l14 33l-241 508h72l202 -430z" />
    <glyph glyph-name="uni0424" unicode="&#x424;" horiz-adv-x="804" 
d="M774 350q0 -124 -92.5 -194t-244.5 -77v-79h-70v79q-152 7 -244.5 77t-92.5 194t92.5 194t244.5 77v79h70v-79q152 -7 244.5 -77t92.5 -194zM100 350q0 -96 72 -148.5t195 -58.5v414q-123 -6 -195 -58.5t-72 -148.5zM437 143q123 6 195 58.5t72 148.5t-72 148.5
t-195 58.5v-414z" />
    <glyph glyph-name="uni0425" unicode="&#x425;" horiz-adv-x="580" 
d="M560 0h-80l-190 299l-190 -299h-80l230 361l-215 339h79l176 -276l176 276h79l-215 -339z" />
    <glyph glyph-name="uni0426" unicode="&#x426;" horiz-adv-x="690" 
d="M580 66h75v-200h-70v134h-505v700h70v-634h360v634h70v-634z" />
    <glyph glyph-name="uni0427" unicode="&#x427;" horiz-adv-x="625" 
d="M475 700h70v-700h-70v295q-91 -45 -190 -45q-100 0 -160 56t-60 144v250h70v-250q0 -61 39.5 -97.5t110.5 -36.5q99 0 190 45v339z" />
    <glyph glyph-name="uni0428" unicode="&#x428;" horiz-adv-x="950" 
d="M800 700h70v-700h-790v700h70v-634h290v634h70v-634h290v634z" />
    <glyph glyph-name="uni0429" unicode="&#x429;" horiz-adv-x="980" 
d="M870 66h75v-200h-70v134h-795v700h70v-634h290v634h70v-634h290v634h70v-634z" />
    <glyph glyph-name="uni042A" unicode="&#x42a;" horiz-adv-x="700" 
d="M190 0v634h-190v66h260v-260h180q94 0 157 -63t63 -157t-63 -157t-157 -63h-250zM260 66h180q65 0 107.5 43.5t42.5 110.5t-42.5 110.5t-107.5 43.5h-180v-308z" />
    <glyph glyph-name="uni042B" unicode="&#x42b;" horiz-adv-x="775" 
d="M80 0v700h70v-260h180q94 0 157 -63t63 -157t-63 -157t-157 -63h-250zM625 0v700h70v-700h-70zM150 66h180q65 0 107.5 43.5t42.5 110.5t-42.5 110.5t-107.5 43.5h-180v-308z" />
    <glyph glyph-name="uni042C" unicode="&#x42c;" horiz-adv-x="590" 
d="M330 440q94 0 157 -63t63 -157t-63 -157t-157 -63h-250v700h70v-260h180zM330 66q65 0 107.5 43.5t42.5 110.5t-42.5 110.5t-107.5 43.5h-180v-308h180z" />
    <glyph glyph-name="uni042D" unicode="&#x42d;" horiz-adv-x="740" 
d="M338 712q159 0 260.5 -104.5t101.5 -257.5t-101.5 -257.5t-260.5 -104.5q-97 0 -178.5 47t-124.5 126l62 35q33 -64 98 -102t143 -38q121 0 200 74t90 187h-383v66h383q-11 113 -90 187t-200 74q-78 0 -143 -38t-98 -102l-62 36q44 79 125 125.5t178 46.5z" />
    <glyph glyph-name="uni042E" unicode="&#x42e;" horiz-adv-x="1040" 
d="M638 712q152 0 257 -105.5t105 -256.5t-105 -256.5t-257 -105.5q-146 0 -247.5 98t-109.5 241h-131v-327h-70v700h70v-307h132q16 137 116 228t240 91zM638 56q124 0 208 85.5t84 208.5t-84 208.5t-208 85.5t-208 -85.5t-84 -208.5t84 -208.5t208 -85.5z" />
    <glyph glyph-name="uni042F" unicode="&#x42f;" horiz-adv-x="620" 
d="M540 700v-700h-70v280h-168l-192 -280h-80l195 283q-75 13 -125 71.5t-50 135.5q0 87 61.5 148.5t148.5 61.5h280zM260 346h210v288h-210q-58 0 -99 -42t-41 -102q0 -59 41 -101.5t99 -42.5z" />
    <glyph glyph-name="uni0430" unicode="&#x430;" 
d="M500 500h66v-500h-66v98q-69 -110 -202 -110q-107 0 -182.5 76t-75.5 186t75.5 186t182.5 76q133 0 202 -110v98zM303 52q83 0 140 57.5t57 140.5t-57 140.5t-140 57.5t-140 -57.5t-57 -140.5t57 -140.5t140 -57.5z" />
    <glyph glyph-name="uni0431" unicode="&#x431;" horiz-adv-x="567" 
d="M292 -12q-108 0 -180 71.5t-72 185.5q0 128 38 196.5t154 124.5q22 11 58.5 26t55 24t40.5 23.5t33 32.5t14 43l52 -30q-4 -24 -16 -45t-24.5 -34t-39 -28.5t-41 -22t-50 -21.5t-47.5 -20q-70 -30 -103 -62.5t-47 -84.5q34 45 86.5 66.5t102.5 21.5q100 0 165.5 -65.5
t65.5 -167.5q0 -101 -69.5 -167.5t-175.5 -66.5zM292 54q78 0 128.5 47.5t50.5 120.5q0 74 -47.5 121.5t-126.5 47.5q-71 0 -129 -44.5t-58 -118.5q0 -76 52.5 -125t129.5 -49z" />
    <glyph glyph-name="uni0432" unicode="&#x432;" horiz-adv-x="500" 
d="M388 257q82 -30 82 -117q0 -61 -40.5 -100.5t-116.5 -39.5h-243v500h223q73 0 113 -37.5t40 -96.5q0 -75 -58 -109zM293 436h-157v-152h157q87 0 87 78q0 35 -22.5 54.5t-64.5 19.5zM313 64q44 0 67.5 21t23.5 59q0 35 -23.5 55.5t-67.5 20.5h-177v-156h177z" />
    <glyph glyph-name="uni0433" unicode="&#x433;" horiz-adv-x="400" 
d="M390 500v-64h-254v-436h-66v500h320z" />
    <glyph glyph-name="uni0434" unicode="&#x434;" horiz-adv-x="590" 
d="M490 64h70v-198h-66v134h-408v-134h-66v198h61q51 67 51 189v247h358v-436zM161 64h263v372h-226v-183q0 -115 -37 -189z" />
    <glyph glyph-name="uni0435" unicode="&#x435;" horiz-adv-x="584" 
d="M301 512q111 0 179.5 -78.5t68.5 -185.5q0 -11 -2 -31h-439q10 -76 64.5 -120.5t134.5 -44.5q57 0 98.5 23.5t62.5 61.5l58 -34q-33 -53 -90 -84t-130 -31q-118 0 -192 74t-74 188q0 112 73 187t188 75zM301 448q-78 0 -130.5 -46.5t-62.5 -120.5h373q-10 79 -61 123
t-119 44z" />
    <glyph glyph-name="uni0436" unicode="&#x436;" horiz-adv-x="674" 
d="M654 0h-80l-204 241v-241h-66v241l-204 -241h-80l224 260l-214 240h80l194 -222v222h66v-222l194 222h80l-214 -240z" />
    <glyph glyph-name="uni0437" unicode="&#x437;" horiz-adv-x="445" 
d="M328 257q87 -33 87 -120q0 -62 -48.5 -105.5t-138.5 -43.5q-151 0 -198 120l56 33q31 -89 142 -89q58 0 89.5 25t31.5 64q0 35 -26 57t-70 22h-73v64h53q43 0 67.5 21.5t24.5 59.5q0 36 -29 59.5t-78 23.5q-94 0 -125 -75l-55 32q50 107 180 107q79 0 126 -41.5
t47 -101.5q0 -77 -63 -112z" />
    <glyph glyph-name="uni0438" unicode="&#x438;" horiz-adv-x="560" 
d="M434 500h56v-500h-66v385l-298 -385h-56v500h66v-385z" />
    <glyph glyph-name="uni0439" unicode="&#x439;" horiz-adv-x="560" 
d="M150 580v58h260v-58h-260zM434 500h56v-500h-66v385l-298 -385h-56v500h66v-385z" />
    <glyph glyph-name="uni043A" unicode="&#x43a;" horiz-adv-x="494" 
d="M474 0h-88l-250 241v-241h-66v500h66v-221l238 221h90l-258 -240z" />
    <glyph glyph-name="uni043B" unicode="&#x43b;" horiz-adv-x="550" 
d="M480 500v-500h-66v436h-226v-223q0 -125 -47.5 -172t-130.5 -41v62q57 -6 84.5 27t27.5 124v287h358z" />
    <glyph glyph-name="uni043C" unicode="&#x43c;" horiz-adv-x="630" 
d="M560 500v-500h-66v399l-175 -284h-8l-175 284v-399h-66v500h76l169 -274l169 274h76z" />
    <glyph glyph-name="uni043D" unicode="&#x43d;" horiz-adv-x="560" 
d="M424 500h66v-500h-66v218h-288v-218h-66v500h66v-218h288v218z" />
    <glyph glyph-name="uni043E" unicode="&#x43e;" horiz-adv-x="606" 
d="M303 -12q-110 0 -186.5 75.5t-76.5 186.5t76.5 186.5t186.5 75.5t186.5 -75.5t76.5 -186.5t-76.5 -186.5t-186.5 -75.5zM303 52q83 0 140 57.5t57 140.5t-57 140.5t-140 57.5t-140 -57.5t-57 -140.5t57 -140.5t140 -57.5z" />
    <glyph glyph-name="uni043F" unicode="&#x43f;" horiz-adv-x="560" 
d="M490 500v-500h-66v436h-288v-436h-66v500h420z" />
    <glyph glyph-name="uni0440" unicode="&#x440;" 
d="M338 512q107 0 182.5 -76t75.5 -186t-75.5 -186t-182.5 -76q-133 0 -202 110v-298h-66v700h66v-98q69 110 202 110zM333 52q83 0 140 57.5t57 140.5t-57 140.5t-140 57.5t-140 -57.5t-57 -140.5t57 -140.5t140 -57.5z" />
    <glyph glyph-name="uni0441" unicode="&#x441;" horiz-adv-x="552" 
d="M303 -12q-113 0 -188 75.5t-75 186.5t75 186.5t188 75.5q74 0 133 -35.5t86 -95.5l-54 -31q-20 45 -64.5 71.5t-100.5 26.5q-83 0 -140 -57.5t-57 -140.5t57 -140.5t140 -57.5q56 0 100 26.5t69 71.5l55 -32q-31 -60 -91 -95t-133 -35z" />
    <glyph glyph-name="uni0442" unicode="&#x442;" horiz-adv-x="440" 
d="M430 500v-64h-177v-436h-66v436h-177v64h420z" />
    <glyph glyph-name="uni0443" unicode="&#x443;" horiz-adv-x="510" 
d="M430 500h70l-214 -546q-29 -74 -82.5 -116.5t-119.5 -37.5v62q90 -10 137 104l13 31l-224 503h70l188 -419z" />
    <glyph glyph-name="uni0444" unicode="&#x444;" horiz-adv-x="670" 
d="M630 250q0 -105 -72 -178t-190 -83v-189h-66v189q-118 10 -190 83t-72 178t72 178t190 83v189h66v-189q118 -10 190 -83t72 -178zM106 250q0 -78 53 -132.5t143 -63.5v392q-90 -9 -143 -63.5t-53 -132.5zM368 54q90 9 143 63.5t53 132.5t-53 132.5t-143 63.5v-392z" />
    <glyph glyph-name="uni0445" unicode="&#x445;" horiz-adv-x="510" 
d="M490 0h-79l-156 206l-156 -206h-79l196 259l-183 241h79l143 -189l143 189h79l-182 -241z" />
    <glyph glyph-name="uni0446" unicode="&#x446;" horiz-adv-x="590" 
d="M480 64h80v-198h-66v134h-424v500h66v-436h278v436h66v-436z" />
    <glyph glyph-name="uni0447" unicode="&#x447;" horiz-adv-x="530" 
d="M394 500h66v-500h-66v190q-58 -30 -143 -30q-98 0 -149.5 45.5t-51.5 134.5v160h66v-160q0 -63 33 -90.5t100 -27.5q78 0 145 29v249z" />
    <glyph glyph-name="uni0448" unicode="&#x448;" horiz-adv-x="810" 
d="M674 500h66v-500h-670v500h66v-436h236v436h66v-436h236v436z" />
    <glyph glyph-name="uni0449" unicode="&#x449;" horiz-adv-x="840" 
d="M740 64h70v-198h-66v134h-674v500h66v-436h236v436h66v-436h236v436h66v-436z" />
    <glyph glyph-name="uni044A" unicode="&#x44a;" horiz-adv-x="540" 
d="M343 310q70 0 118.5 -43.5t48.5 -111.5t-48.5 -111.5t-118.5 -43.5h-203v436h-140v64h206v-190h137zM343 64q42 0 71.5 25t29.5 66t-29.5 66t-71.5 25h-137v-182h137z" />
    <glyph glyph-name="uni044B" unicode="&#x44b;" horiz-adv-x="646" 
d="M273 310q70 0 118.5 -43.5t48.5 -111.5t-48.5 -111.5t-118.5 -43.5h-203v500h66v-190h137zM510 500h66v-500h-66v500zM273 64q42 0 71.5 25t29.5 66t-29.5 66t-71.5 25h-137v-182h137z" />
    <glyph glyph-name="uni044C" unicode="&#x44c;" horiz-adv-x="470" 
d="M273 310q70 0 118.5 -43.5t48.5 -111.5t-48.5 -111.5t-118.5 -43.5h-203v500h66v-190h137zM273 64q42 0 71.5 25t29.5 66t-29.5 66t-71.5 25h-137v-182h137z" />
    <glyph glyph-name="uni044D" unicode="&#x44d;" horiz-adv-x="539" 
d="M248 512q113 0 182 -74.5t69 -187.5t-69.5 -187.5t-183.5 -74.5q-81 0 -140.5 35.5t-85.5 96.5l57 33q17 -46 61 -73.5t108 -27.5q75 0 125 46.5t60 119.5h-249v64h249q-9 73 -58.5 119.5t-124.5 46.5q-57 0 -101 -27t-65 -73l-58 33q30 61 89.5 96t134.5 35z" />
    <glyph glyph-name="uni044E" unicode="&#x44e;" horiz-adv-x="800" 
d="M497 512q110 0 186.5 -75.5t76.5 -186.5t-76.5 -186.5t-186.5 -75.5q-101 0 -173.5 65.5t-83.5 164.5h-104v-218h-66v500h66v-218h104q11 99 83.5 164.5t173.5 65.5zM497 52q83 0 140 57.5t57 140.5t-57 140.5t-140 57.5t-140 -57.5t-57 -140.5t57 -140.5t140 -57.5z" />
    <glyph glyph-name="uni044F" unicode="&#x44f;" horiz-adv-x="500" 
d="M430 500v-500h-66v192h-86l-154 -192h-84l158 194q-60 9 -99 50t-39 101q0 68 48.5 111.5t118.5 43.5h203zM227 254h137v182h-137q-42 0 -71.5 -25t-29.5 -66t29.5 -66t71.5 -25z" />
    <glyph glyph-name="uni0451" unicode="&#x451;" horiz-adv-x="584" 
d="M200 575q-19 0 -32 13t-13 32t13 32t32 13t32 -13t13 -32t-13 -32t-32 -13zM390 575q-19 0 -32 13t-13 32t13 32t32 13t32 -13t13 -32t-13 -32t-32 -13zM301 512q111 0 179.5 -78.5t68.5 -185.5q0 -11 -2 -31h-439q10 -76 64.5 -120.5t134.5 -44.5q57 0 98.5 23.5
t62.5 61.5l58 -34q-33 -53 -90 -84t-130 -31q-118 0 -192 74t-74 188q0 112 73 187t188 75zM301 448q-78 0 -130.5 -46.5t-62.5 -120.5h373q-10 79 -61 123t-119 44z" />
    <glyph glyph-name="uni0452" unicode="&#x452;" horiz-adv-x="568" 
d="M314 512q91 0 143.5 -55.5t52.5 -149.5v-347q0 -90 -47 -135t-133 -37v64q59 -6 86.5 19t27.5 89v347q0 67 -35.5 104t-100.5 37q-72 0 -117 -45.5t-45 -140.5v-262h-66v576h-70v54h70v70h66v-70h144v-54h-144v-154q56 90 168 90z" />
    <glyph glyph-name="uni0453" unicode="&#x453;" horiz-adv-x="400" 
d="M316 700l-96 -130h-64l80 130h80zM390 500v-64h-254v-436h-66v500h320z" />
    <glyph glyph-name="uni0454" unicode="&#x454;" horiz-adv-x="539" 
d="M462 153l57 -33q-26 -61 -85.5 -96.5t-140.5 -35.5q-114 0 -183.5 74.5t-69.5 187.5t69 187.5t182 74.5q75 0 134.5 -35t89.5 -96l-58 -33q-21 46 -65 73t-101 27q-75 0 -124.5 -46.5t-58.5 -119.5h249v-64h-249q10 -73 60 -119.5t125 -46.5q64 0 108 27.5t61 73.5z" />
    <glyph glyph-name="uni0455" unicode="&#x455;" horiz-adv-x="454" 
d="M122 369q0 -34 30 -54t73 -31t86 -24.5t73 -45t30 -82.5q0 -64 -50.5 -104t-130.5 -40q-72 0 -122.5 32t-70.5 83l56 33q14 -39 50.5 -61.5t86.5 -22.5q49 0 82 19.5t33 60.5q0 34 -30 54t-73 31t-86 24.5t-73 45t-30 82.5q0 61 48.5 102t122.5 41q61 0 107 -27.5
t68 -74.5l-55 -32q-29 70 -120 70q-43 0 -74 -20.5t-31 -58.5z" />
    <glyph glyph-name="uni0456" unicode="&#x456;" horiz-adv-x="206" 
d="M103 606q-20 0 -34 14t-14 34t14 34t34 14t34 -14t14 -34t-14 -34t-34 -14zM70 0v500h66v-500h-66z" />
    <glyph glyph-name="uni0457" unicode="&#x457;" horiz-adv-x="206" 
d="M8 575q-19 0 -32 13t-13 32t13 32t32 13t32 -13t13 -32t-13 -32t-32 -13zM198 575q-19 0 -32 13t-13 32t13 32t32 13t32 -13t13 -32t-13 -32t-32 -13zM70 0v500h66v-500h-66z" />
    <glyph glyph-name="uni0458" unicode="&#x458;" horiz-adv-x="230" 
d="M127 702q20 0 34 -14t14 -34t-14 -34t-34 -14t-34 14t-14 34t14 34t34 14zM94 -40v540h66v-540q0 -90 -47 -135t-133 -37v64q59 -6 86.5 19t27.5 89z" />
    <glyph glyph-name="uni0459" unicode="&#x459;" horiz-adv-x="789" 
d="M602 290q67 0 112 -39t45 -106t-45 -106t-112 -39h-198v436h-216v-223q0 -125 -47.5 -172t-130.5 -41v62q57 -6 84.5 27t27.5 124v287h348v-210h132zM602 64q40 0 65.5 20.5t25.5 60.5t-25.5 60.5t-65.5 20.5h-132v-162h132z" />
    <glyph glyph-name="uni045A" unicode="&#x45a;" horiz-adv-x="789" 
d="M602 290q67 0 112 -39t45 -106t-45 -106t-112 -39h-198v226h-268v-226h-66v500h66v-210h268v210h66v-210h132zM602 64q40 0 65.5 20.5t25.5 60.5t-25.5 60.5t-65.5 20.5h-132v-162h132z" />
    <glyph glyph-name="uni045B" unicode="&#x45b;" horiz-adv-x="568" 
d="M314 512q91 0 143.5 -55.5t52.5 -149.5v-307h-66v307q0 67 -35.5 104t-100.5 37q-72 0 -117 -45.5t-45 -140.5v-262h-66v576h-70v54h70v70h66v-70h144v-54h-144v-154q56 90 168 90z" />
    <glyph glyph-name="uni045C" unicode="&#x45c;" horiz-adv-x="494" 
d="M356 700l-96 -130h-64l80 130h80zM474 0h-88l-250 241v-241h-66v500h66v-221l238 221h90l-258 -240z" />
    <glyph glyph-name="uni045E" unicode="&#x45e;" horiz-adv-x="510" 
d="M383 638v-58h-260v58h260zM430 500h70l-214 -546q-29 -74 -82.5 -116.5t-119.5 -37.5v62q90 -10 137 104l13 31l-224 503h70l188 -419z" />
    <glyph glyph-name="uni045F" unicode="&#x45f;" horiz-adv-x="560" 
d="M424 500h66v-500h-177v-134h-66v134h-177v500h66v-436h288v436z" />
    <glyph glyph-name="uni0490" unicode="&#x490;" horiz-adv-x="490" 
d="M400 820h70v-186h-320v-634h-70v700h320v120z" />
    <glyph glyph-name="uni0491" unicode="&#x491;" horiz-adv-x="400" 
d="M324 604h66v-168h-254v-436h-66v500h254v104z" />
    <glyph glyph-name="Wgrave" unicode="&#x1e80;" horiz-adv-x="1000" 
d="M560 770l-80 130h-80l96 -130h64zM233 0l-203 700h74l173 -605l182 605h82l182 -605l173 605h74l-203 -700h-84l-183 608l-183 -608h-84z" />
    <glyph glyph-name="wgrave" unicode="&#x1e81;" horiz-adv-x="770" 
d="M445 570h-64l-96 130h80zM672 500h68l-154 -500h-72l-129 403l-129 -403h-72l-154 500h68l123 -415l131 415h66l131 -415z" />
    <glyph glyph-name="Wacute" unicode="&#x1e82;" horiz-adv-x="1000" 
d="M450 770h64l96 130h-80zM233 0l-203 700h74l173 -605l182 605h82l182 -605l173 605h74l-203 -700h-84l-183 608l-183 -608h-84z" />
    <glyph glyph-name="wacute" unicode="&#x1e83;" horiz-adv-x="770" 
d="M495 700l-96 -130h-64l80 130h80zM672 500h68l-154 -500h-72l-129 403l-129 -403h-72l-154 500h68l123 -415l131 415h66l131 -415z" />
    <glyph glyph-name="Wdieresis" unicode="&#x1e84;" horiz-adv-x="1000" 
d="M405 775q-19 0 -32 13t-13 32t13 32t32 13t32 -13t13 -32t-13 -32t-32 -13zM595 775q-19 0 -32 13t-13 32t13 32t32 13t32 -13t13 -32t-13 -32t-32 -13zM233 0l-203 700h74l173 -605l182 605h82l182 -605l173 605h74l-203 -700h-84l-183 608l-183 -608h-84z" />
    <glyph glyph-name="wdieresis" unicode="&#x1e85;" horiz-adv-x="770" 
d="M290 575q-19 0 -32 13t-13 32t13 32t32 13t32 -13t13 -32t-13 -32t-32 -13zM480 575q-19 0 -32 13t-13 32t13 32t32 13t32 -13t13 -32t-13 -32t-32 -13zM672 500h68l-154 -500h-72l-129 403l-129 -403h-72l-154 500h68l123 -415l131 415h66l131 -415z" />
    <glyph glyph-name="Ygrave" unicode="&#x1ef2;" horiz-adv-x="595" 
d="M354 770h-64l-96 130h80zM585 700l-253 -413v-287h-70v289l-252 411h79l209 -343l208 343h79z" />
    <glyph glyph-name="ygrave" unicode="&#x1ef3;" horiz-adv-x="510" 
d="M313 570h-64l-96 130h80zM430 500h70l-214 -546q-29 -74 -82.5 -116.5t-119.5 -37.5v62q90 -10 137 104l13 31l-224 503h70l188 -419z" />
    <glyph glyph-name="endash" unicode="&#x2013;" horiz-adv-x="660" 
d="M80 277v64h500v-64h-500z" />
    <glyph glyph-name="emdash" unicode="&#x2014;" horiz-adv-x="760" 
d="M80 277v64h600v-64h-600z" />
    <glyph glyph-name="quoteleft" unicode="&#x2018;" horiz-adv-x="240" 
d="M60 475l60 225h60l-40 -225h-80z" />
    <glyph glyph-name="quoteright" unicode="&#x2019;" horiz-adv-x="240" 
d="M180 700l-60 -225h-60l40 225h80z" />
    <glyph glyph-name="quotesinglbase" unicode="&#x201a;" horiz-adv-x="240" 
d="M180 85l-60 -225h-60l40 225h80z" />
    <glyph glyph-name="quotedblleft" unicode="&#x201c;" horiz-adv-x="380" 
d="M60 475l60 225h60l-40 -225h-80zM200 475l60 225h60l-40 -225h-80z" />
    <glyph glyph-name="quotedblright" unicode="&#x201d;" horiz-adv-x="380" 
d="M180 700l-60 -225h-60l40 225h80zM320 700l-60 -225h-60l40 225h80z" />
    <glyph glyph-name="quotedblbase" unicode="&#x201e;" horiz-adv-x="380" 
d="M180 85l-60 -225h-60l40 225h80zM320 85l-60 -225h-60l40 225h80z" />
    <glyph glyph-name="dagger" unicode="&#x2020;" horiz-adv-x="480" 
d="M420 535v-64h-147v-471h-66v471h-147v64h147v165h66v-165h147z" />
    <glyph glyph-name="daggerdbl" unicode="&#x2021;" horiz-adv-x="480" 
d="M420 471h-147v-242h147v-64h-147v-165h-66v165h-147v64h147v242h-147v64h147v165h66v-165h147v-64z" />
    <glyph glyph-name="bullet" unicode="&#x2022;" horiz-adv-x="300" 
d="M151 250q-42 0 -71.5 29.5t-29.5 71.5q0 41 29.5 70t71.5 29q41 0 70 -29t29 -70q0 -42 -29 -71.5t-70 -29.5z" />
    <glyph glyph-name="ellipsis" unicode="&#x2026;" horiz-adv-x="610" 
d="M115 -10q-23 0 -39 16t-16 39t16 39t39 16t39 -16t16 -39t-16 -39t-39 -16zM305 -10q-23 0 -39 16t-16 39t16 39t39 16t39 -16t16 -39t-16 -39t-39 -16zM495 -10q-23 0 -39 16t-16 39t16 39t39 16t39 -16t16 -39t-16 -39t-39 -16z" />
    <glyph glyph-name="perthousand" unicode="&#x2030;" horiz-adv-x="1064" 
d="M213 412q-65 0 -109 43.5t-44 106.5t44 106.5t109 43.5t109 -43.5t44 -106.5t-43 -106.5t-110 -43.5zM213 472q39 0 64 26t25 64t-25 64t-64 26t-64 -26t-25 -64t25 -64t64 -26zM95 95l469 527l43 -24l-470 -527zM496 -12q-65 0 -109 43.5t-44 106.5t44 106.5t109 43.5
t109 -43.5t44 -106.5t-44 -106.5t-109 -43.5zM851 -12q-65 0 -109 43.5t-44 106.5t44 106.5t109 43.5t109 -43.5t44 -106.5t-44 -106.5t-109 -43.5zM496 48q39 0 64 26t25 64t-25 64t-64 26t-64 -26t-25 -64t25 -64t64 -26zM851 48q39 0 64 26t25 64t-25 64t-64 26t-64 -26
t-25 -64t25 -64t64 -26z" />
    <glyph glyph-name="guilsinglleft" unicode="&#x2039;" horiz-adv-x="332" 
d="M262 489l-110 -180l110 -180h-82l-110 180l110 180h82z" />
    <glyph glyph-name="guilsinglright" unicode="&#x203a;" horiz-adv-x="332" 
d="M152 489l110 -180l-110 -180h-82l110 180l-110 180h82z" />
    <glyph glyph-name="fraction" unicode="&#x2044;" horiz-adv-x="220" 
d="M-60 0h-60l400 700h60z" />
    <glyph glyph-name="Euro" unicode="&#x20ac;" horiz-adv-x="594" 
d="M360 56q53 0 92.5 26t58.5 75l58 -33q-26 -65 -80.5 -100.5t-128.5 -35.5q-109 0 -178 74.5t-87 203.5h-75v58h70v26q0 23 1 34h-71v58h77q18 125 87 197.5t176 72.5q74 0 128.5 -35.5t80.5 -99.5l-58 -33q-42 100 -151 100q-76 0 -126.5 -52.5t-66.5 -149.5h253v-58
h-259q-1 -11 -1 -34q0 -18 1 -26h259v-58h-254q15 -101 65.5 -155.5t128.5 -54.5z" />
    <glyph glyph-name="uni20BD" unicode="&#x20bd;" horiz-adv-x="590" 
d="M360 280h-180v-94h260v-58h-260v-128h-70v128h-90v58h90v94h-90v66h90v354h250q87 0 148.5 -61.5t61.5 -148.5q0 -86 -61.5 -148t-148.5 -62zM180 634v-288h180q58 0 99 42.5t41 101.5q0 60 -41 102t-99 42h-180z" />
    <glyph glyph-name="uni2116" unicode="&#x2116;" horiz-adv-x="1016" 
d="M823 412q-65 0 -109 43.5t-44 106.5t44 106.5t109 43.5t109 -43.5t44 -106.5t-43 -106.5t-110 -43.5zM530 700h70v-700h-60l-390 570v-570h-70v700h60l390 -570v570zM823 472q39 0 64 26t25 64t-25 64t-64 26t-64 -26t-25 -64t25 -64t64 -26zM682 278v64h282v-64h-282z
" />
    <glyph glyph-name="trademark" unicode="&#x2122;" horiz-adv-x="465" 
d="M195 700v-37h-57v-163h-40v163h-58v37h155zM385 700h40v-200h-40v133l-61 -97h-4l-61 97v-133h-40v200h40l63 -100z" />
    <glyph glyph-name="estimated" unicode="&#x212e;" horiz-adv-x="820" 
d="M410 710q163 0 266.5 -104t103.5 -256q0 -15 -15 -15h-560q-15 0 -15 -15v-192q0 -11 7 -19q84 -89 233 -89q145 0 231 97q7 9 18 9h37q10 0 13 -6t-4 -13q-109 -117 -295 -117q-176 0 -283 103.5t-107 256.5q0 152 103.5 256t266.5 104zM630 572q0 11 -7 19
q-84 89 -213 89t-213 -89q-7 -8 -7 -19v-192q0 -15 15 -15h410q15 0 15 15v192z" />
    <glyph glyph-name="oneeighth" unicode="&#x215b;" horiz-adv-x="802" 
d="M179 300h-62v332l-91 -27l-16 53l116 42h53v-400zM527 700h60l-400 -700h-60zM712 211q66 -35 66 -105q0 -54 -39.5 -86t-103.5 -32t-104 32t-40 86q0 71 66 104q-53 32 -53 88q0 53 37.5 83.5t93.5 30.5q55 0 92.5 -30.5t37.5 -83.5q0 -56 -53 -87zM635 354
q-33 0 -51 -15t-18 -41q0 -27 18 -43t51 -16q32 0 50 16t18 43q0 26 -17.5 41t-50.5 15zM635 48q38 0 59.5 18t21.5 48t-22 47.5t-59 17.5q-40 0 -61 -17t-21 -48q0 -30 21.5 -48t60.5 -18z" />
    <glyph glyph-name="threeeighths" unicode="&#x215c;" horiz-adv-x="907" 
d="M313 417q0 -58 -40 -93.5t-106 -35.5q-102 0 -142 84l52 30q25 -54 90 -54q40 0 62 18.5t22 50.5q0 31 -22.5 50t-61.5 19h-4l-31 47l90 107h-184v60h258v-60l-89 -106q50 -10 78 -40.5t28 -76.5zM632 700h60l-400 -700h-60zM817 211q66 -35 66 -105q0 -54 -39.5 -86
t-103.5 -32t-104 32t-40 86q0 71 66 104q-53 32 -53 88q0 53 37.5 83.5t93.5 30.5q55 0 92.5 -30.5t37.5 -83.5q0 -56 -53 -87zM740 354q-33 0 -51 -15t-18 -41q0 -27 18 -43t51 -16q32 0 50 16t18 43q0 26 -17.5 41t-50.5 15zM740 48q38 0 59.5 18t21.5 48t-22 47.5
t-59 17.5q-40 0 -61 -17t-21 -48q0 -30 21.5 -48t60.5 -18z" />
    <glyph glyph-name="fiveeighths" unicode="&#x215d;" horiz-adv-x="896" 
d="M303 417q0 -59 -38 -94t-105 -35q-102 0 -140 85l53 29q25 -54 87 -54q38 0 59.5 19t21.5 50q0 34 -21.5 53.5t-59.5 19.5h-122l15 210h234v-58h-181l-6 -92h62q63 0 102 -36.5t39 -96.5zM621 700h60l-400 -700h-60zM806 211q66 -35 66 -105q0 -54 -39.5 -86t-103.5 -32
t-104 32t-40 86q0 71 66 104q-53 32 -53 88q0 53 37.5 83.5t93.5 30.5q55 0 92.5 -30.5t37.5 -83.5q0 -56 -53 -87zM729 354q-33 0 -51 -15t-18 -41q0 -27 18 -43t51 -16q32 0 50 16t18 43q0 26 -17.5 41t-50.5 15zM729 48q38 0 59.5 18t21.5 48t-22 47.5t-59 17.5
q-40 0 -61 -17t-21 -48q0 -30 21.5 -48t60.5 -18z" />
    <glyph glyph-name="seveneighths" unicode="&#x215e;" horiz-adv-x="851" 
d="M276 700v-50l-148 -350h-66l146 340h-198v60h266zM576 700h60l-400 -700h-60zM761 211q66 -35 66 -105q0 -54 -39.5 -86t-103.5 -32t-104 32t-40 86q0 71 66 104q-53 32 -53 88q0 53 37.5 83.5t93.5 30.5q55 0 92.5 -30.5t37.5 -83.5q0 -56 -53 -87zM684 354
q-33 0 -51 -15t-18 -41q0 -27 18 -43t51 -16q32 0 50 16t18 43q0 26 -17.5 41t-50.5 15zM684 48q38 0 59.5 18t21.5 48t-22 47.5t-59 17.5q-40 0 -61 -17t-21 -48q0 -30 21.5 -48t60.5 -18z" />
    <glyph glyph-name="arrowleft" unicode="&#x2190;" horiz-adv-x="820" 
d="M760 382v-64h-578l268 -268h-90l-300 300l300 300h90l-268 -268h578z" />
    <glyph glyph-name="arrowup" unicode="&#x2191;" horiz-adv-x="720" 
d="M660 400v-90l-267 267v-577h-66v577l-267 -267v90l300 300z" />
    <glyph glyph-name="arrowright" unicode="&#x2192;" horiz-adv-x="820" 
d="M460 650l300 -300l-300 -300h-90l268 268h-578v64h578l-268 268h90z" />
    <glyph glyph-name="arrowdown" unicode="&#x2193;" horiz-adv-x="720" 
d="M393 123l267 267v-90l-300 -300l-300 300v90l267 -267v577h66v-577z" />
    <glyph glyph-name="arrowboth" unicode="&#x2194;" horiz-adv-x="1040" 
d="M731 600l249 -250l-249 -250h-90l217 218h-676l217 -218h-90l-249 250l249 250h90l-217 -218h676l-217 218h90z" />
    <glyph glyph-name="arrowupdn" unicode="&#x2195;" horiz-adv-x="620" 
d="M560 471l-217 216v-674l217 216v-90l-250 -249l-250 249v90l217 -216v674l-217 -216v90l250 249l250 -249v-90z" />
    <glyph glyph-name="uni2196" unicode="&#x2196;" horiz-adv-x="638" 
d="M578 116l-47 -47l-408 408v-377l-63 63v424h424l63 -63h-377z" />
    <glyph glyph-name="uni2197" unicode="&#x2197;" horiz-adv-x="638" 
d="M154 587h424v-424l-63 -63v377l-408 -408l-47 47l408 408h-377z" />
    <glyph glyph-name="uni2198" unicode="&#x2198;" horiz-adv-x="638" 
d="M515 576l63 -63v-424h-424l-63 63h377l-408 408l47 47l408 -408v377z" />
    <glyph glyph-name="uni2199" unicode="&#x2199;" horiz-adv-x="638" 
d="M578 560l-408 -408h377l-63 -63h-424v424l63 63v-377l408 408z" />
    <glyph glyph-name="partialdiff" unicode="&#x2202;" horiz-adv-x="576" 
d="M232 712q121 0 202.5 -100t81.5 -262q0 -170 -73 -266t-186 -96q-96 0 -151.5 60t-55.5 152q0 103 61 166.5t168 63.5q93 0 170 -53q-6 114 -63 192t-154 78q-72 0 -131 -35v64q56 36 131 36zM257 52q81 0 133 68.5t59 189.5q-72 56 -170 56q-75 0 -119 -43t-44 -123
q0 -65 36 -106.5t105 -41.5z" />
    <glyph glyph-name="emptyset" unicode="&#x2205;" horiz-adv-x="804" 
d="M653 611q111 -106 111 -261q0 -150 -106 -256t-256 -106q-116 0 -210 67l-62 -75h-70l91 109q-111 106 -111 261q0 150 106 256t256 106q116 0 210 -67l62 75h70zM100 350q0 -126 88 -216l387 466q-78 54 -173 54q-126 0 -214 -88.5t-88 -215.5zM402 46q126 0 214 88.5
t88 215.5q0 126 -88 216l-387 -466q78 -54 173 -54z" />
    <glyph glyph-name="product" unicode="&#x220f;" horiz-adv-x="640" 
d="M80 -200v900h480v-900h-66v836h-348v-836h-66z" />
    <glyph glyph-name="summation" unicode="&#x2211;" horiz-adv-x="540" 
d="M50 -200v65l240 395l-225 374v66h430v-64h-355l227 -376l-241 -396h384v-64h-460z" />
    <glyph glyph-name="minus" unicode="&#x2212;" horiz-adv-x="540" 
d="M60 318v64h420v-64h-420z" />
    <glyph glyph-name="radical" unicode="&#x221a;" horiz-adv-x="644" 
d="M285 0l-137 236h-88v64h126l127 -220l241 720h70l-269 -800h-70z" />
    <glyph glyph-name="infinity" unicode="&#x221e;" horiz-adv-x="800" 
d="M584 510q69 0 115 -46t46 -114t-46 -114t-115 -46q-97 0 -184 110q-87 -110 -184 -110q-69 0 -115 46t-46 114t46 114t115 46q97 0 184 -110q87 110 184 110zM217 250q73 0 145 100q-72 100 -145 100q-43 0 -70 -28t-27 -72t27 -72t70 -28zM584 250q43 0 70 28t27 72
t-27 72t-70 28q-73 0 -145 -100q72 -100 145 -100z" />
    <glyph glyph-name="integral" unicode="&#x222b;" horiz-adv-x="439" 
d="M0 -202v64q54 -20 86 -1.5t40 69.5l109 640q15 89 67.5 122t136.5 10v-64q-120 40 -138 -68l-109 -640q-15 -88 -66 -121.5t-126 -10.5z" />
    <glyph glyph-name="approxequal" unicode="&#x2248;" horiz-adv-x="594" 
d="M282 402q-77 44 -111.5 33t-50.5 -69l-60 28q26 84 89.5 103t162.5 -39q50 -31 83.5 -34.5t50.5 14t28 56.5l60 -28q-26 -85 -88 -104t-164 40zM120 206l-60 28q26 84 89.5 103t162.5 -39q50 -31 83.5 -34.5t50.5 14t28 56.5l60 -28q-26 -85 -88 -104t-164 40
q-77 44 -111.5 33t-50.5 -69z" />
    <glyph glyph-name="notequal" unicode="&#x2260;" horiz-adv-x="540" 
d="M480 418h-155l-60 -136h215v-64h-244l-66 -148h-50l66 148h-126v64h155l60 136h-215v64h244l66 148h50l-66 -148h126v-64z" />
    <glyph glyph-name="lessequal" unicode="&#x2264;" horiz-adv-x="520" 
d="M460 600v-74l-317 -115l317 -115v-74l-400 156v66zM60 100v64h400v-64h-400z" />
    <glyph glyph-name="greaterequal" unicode="&#x2265;" horiz-adv-x="520" 
d="M60 600l400 -156v-66l-400 -156v74l317 115l-317 115v74zM60 100v64h400v-64h-400z" />
    <glyph glyph-name="lozenge" unicode="&#x25ca;" horiz-adv-x="540" 
d="M236 0l-186 350l186 350h68l186 -350l-186 -350h-68zM270 71l149 279l-149 279l-149 -279z" />
    <glyph glyph-name="i.loclTRK" horiz-adv-x="206" 
d="M103 570q-23 0 -39 16t-16 39t16 39t39 16t39 -16t16 -39t-16 -39t-39 -16zM70 0v500h66v-500h-66z" />
    <glyph glyph-name="f_f_j" horiz-adv-x="786" 
d="M716 500v-540q0 -90 -47 -135t-133 -37v64q59 -6 86.5 19t27.5 89v476h-204v-436h-66v436h-204v-436h-66v436h-85v64h85v20q0 98 54.5 148.5t155.5 43.5v-64q-73 6 -108.5 -25t-35.5 -103v-20h204v30q0 192 210 192q42 0 96 -12v-60q-47 8 -96 8q-75 0 -109.5 -29
t-34.5 -99v-30h270z" />
    <glyph glyph-name="f_j" horiz-adv-x="516" 
d="M446 500v-540q0 -90 -47 -135t-133 -37v64q59 -6 86.5 19t27.5 89v476h-204v-436h-66v436h-85v64h85v20q0 192 210 192q42 0 96 -12v-60q-47 8 -96 8q-75 0 -109.5 -29t-34.5 -99v-20h270z" />
    <glyph glyph-name="uni0414.loclBGR" horiz-adv-x="700" 
d="M611 66h64v-200h-70v134h-510v-134h-70v200h64l225 634h72zM163 66h374l-187 547z" />
    <glyph glyph-name="uni041B.loclBGR" horiz-adv-x="608" 
d="M268 700h72l258 -700h-76l-218 607l-218 -607h-76z" />
    <glyph glyph-name="uni0424.loclBGR" horiz-adv-x="844" 
d="M804 350q0 -154 -96 -252t-251 -109v-89h-70v89q-155 11 -251 109t-96 252t96 252t251 109v89h70v-89q155 -11 251 -109t96 -252zM110 350q0 -127 75.5 -206.5t201.5 -90.5v594q-126 -11 -201.5 -90.5t-75.5 -206.5zM457 53q126 11 201.5 90.5t75.5 206.5t-75.5 206.5
t-201.5 90.5v-594z" />
    <glyph glyph-name="uni0414.ss01" horiz-adv-x="690" 
d="M580 66h75v-66h-640v66h57q69 81 69 250v384h439v-634zM155 66h355v568h-299v-320q0 -166 -56 -248z" />
    <glyph glyph-name="uni0426.ss01" horiz-adv-x="690" 
d="M580 66h75v-66h-575v700h70v-634h360v634h70v-634z" />
    <glyph glyph-name="uni0429.ss01" horiz-adv-x="980" 
d="M870 66h75v-66h-865v700h70v-634h290v634h70v-634h290v634h70v-634z" />
    <glyph glyph-name="uni0414.loclBGR.ss01" horiz-adv-x="700" 
d="M611 66h64v-66h-650v66h64l225 634h72zM163 66h374l-187 547z" />
    <glyph glyph-name="uni0432.loclBGR" horiz-adv-x="570" 
d="M399 400q62 -20 96.5 -72t34.5 -128q0 -100 -60.5 -156t-169.5 -56t-169.5 64t-60.5 178v235q0 114 58 180.5t160 66.5q84 0 133 -46.5t49 -121.5q0 -79 -71 -144zM288 648q-71 0 -111.5 -49.5t-40.5 -133.5v-81l103 21q39 8 82 8q83 60 83 131q0 45 -31 74.5t-85 29.5z
M300 52q77 0 120.5 39t43.5 109q0 84 -62 123t-163 18l-103 -21v-90q0 -84 43.5 -131t120.5 -47z" />
    <glyph glyph-name="uni0433.loclBGR" horiz-adv-x="454" 
d="M363 141l56 -33q-20 -51 -71 -85.5t-122 -34.5q-80 0 -130.5 40t-50.5 104q0 51 29.5 82.5t71.5 45t84.5 24.5t72 31t29.5 54q0 38 -30.5 58.5t-69.5 20.5q-42 0 -76 -19t-49 -56l-55 32q23 48 70 77.5t110 29.5q71 0 118.5 -41.5t47.5 -101.5q0 -51 -29.5 -82.5
t-71.5 -45t-84.5 -24.5t-72 -31t-29.5 -54q0 -41 33 -60.5t82 -19.5t86 25t51 64z" />
    <glyph glyph-name="uni0434.loclBGR" 
d="M500 500h66v-480q0 -108 -74 -170t-177 -62q-176 0 -237 122l58 33q45 -91 179 -91q86 0 135.5 45.5t49.5 122.5v78q-69 -110 -202 -110q-107 0 -182.5 76t-75.5 186t75.5 186t182.5 76q133 0 202 -110v98zM303 52q83 0 140 57.5t57 140.5t-57 140.5t-140 57.5
t-140 -57.5t-57 -140.5t57 -140.5t140 -57.5z" />
    <glyph glyph-name="uni0436.loclBGR" horiz-adv-x="674" 
d="M654 0h-80l-204 241v-241h-66v241l-204 -241h-80l224 260l-214 240h80l194 -222v422h66v-422l194 222h80l-214 -240z" />
    <glyph glyph-name="uni0438.loclBGR" horiz-adv-x="558" 
d="M422 500h66v-500h-66v78q-56 -90 -168 -90q-91 0 -143.5 55.5t-52.5 149.5v307h66v-307q0 -67 35.5 -104t100.5 -37q72 0 117 45.5t45 140.5v262z" />
    <glyph glyph-name="uni0439.loclBGR" horiz-adv-x="558" 
d="M401 638v-58h-260v58h260zM422 500h66v-500h-66v78q-56 -90 -168 -90q-91 0 -143.5 55.5t-52.5 149.5v307h66v-307q0 -67 35.5 -104t100.5 -37q72 0 117 45.5t45 140.5v262z" />
    <glyph glyph-name="uni043A.loclBGR" horiz-adv-x="494" 
d="M474 0h-88l-250 241v-241h-66v700h66v-421l238 221h90l-258 -240z" />
    <glyph glyph-name="uni043B.loclBGR" horiz-adv-x="510" 
d="M500 0h-70l-175 431l-175 -431h-70l205 500h80z" />
    <glyph glyph-name="uni043F.loclBGR" horiz-adv-x="558" 
d="M304 512q91 0 143.5 -55.5t52.5 -149.5v-307h-66v307q0 67 -35.5 104t-100.5 37q-72 0 -117 -45.5t-45 -140.5v-262h-66v500h66v-78q56 90 168 90z" />
    <glyph glyph-name="uni0442.loclBGR" horiz-adv-x="848" 
d="M603 512q84 0 135.5 -54t51.5 -146v-312h-66v312q0 65 -33.5 100.5t-88.5 35.5q-62 0 -100.5 -41.5t-38.5 -129.5v-277h-66v312q0 66 -31.5 101t-85.5 35q-60 0 -102 -42t-42 -129v-277h-66v500h66v-73q54 85 153 85q108 0 152 -91q54 91 162 91z" />
    <glyph glyph-name="uni0446.loclBGR" horiz-adv-x="594" 
d="M525 64h39v-198h-66v136q-30 5 -50 26t-25 53q-55 -93 -169 -93q-91 0 -143.5 55.5t-52.5 149.5v307h66v-307q0 -67 35.5 -104t100.5 -37q72 0 117 45.5t45 140.5v262h66v-400q0 -16 10 -26t27 -10z" />
    <glyph glyph-name="uni0448.loclBGR" horiz-adv-x="848" 
d="M712 500h66v-500h-66v73q-54 -85 -153 -85q-108 0 -152 91q-54 -91 -162 -91q-84 0 -135.5 54t-51.5 146v312h66v-312q0 -65 33.5 -100.5t88.5 -35.5q62 0 100.5 41.5t38.5 129.5v277h66v-312q0 -66 31.5 -101t85.5 -35q60 0 102 42t42 129v277z" />
    <glyph glyph-name="uni0449.loclBGR" horiz-adv-x="884" 
d="M815 64h39v-198h-66v136q-29 4 -48.5 24t-25.5 50q-54 -88 -155 -88q-108 0 -152 91q-54 -91 -162 -91q-84 0 -135.5 54t-51.5 146v312h66v-312q0 -65 33.5 -100.5t88.5 -35.5q62 0 100.5 41.5t38.5 129.5v277h66v-312q0 -66 31.5 -101t85.5 -35q60 0 102 42t42 129v277
h66v-400q0 -16 10 -26t27 -10z" />
    <glyph glyph-name="uni044C.loclBGR" horiz-adv-x="478" 
d="M253 338q92 0 143.5 -45t51.5 -125q0 -74 -54.5 -127t-140.5 -53q-90 0 -142.5 51t-52.5 129v332h66v-162h129zM253 52q56 0 92.5 35t36.5 81q0 50 -34 78t-95 28h-129v-106q0 -47 35.5 -81.5t93.5 -34.5z" />
    <glyph glyph-name="uni044A.loclBGR" horiz-adv-x="562" 
d="M335 338q92 0 143.5 -45t51.5 -125q0 -74 -54.5 -127t-140.5 -53q-90 0 -142.5 51t-52.5 129v268h-140v64h206v-162h129zM335 52q56 0 92.5 35t36.5 81q0 50 -34 78t-95 28h-129v-106q0 -47 35.5 -81.5t93.5 -34.5z" />
    <glyph glyph-name="uni044E.loclBGR" horiz-adv-x="800" 
d="M497 512q110 0 186.5 -75.5t76.5 -186.5t-76.5 -186.5t-186.5 -75.5q-101 0 -173.5 65.5t-83.5 164.5h-104v-218h-66v700h66v-418h104q11 99 83.5 164.5t173.5 65.5zM497 52q83 0 140 57.5t57 140.5t-57 140.5t-140 57.5t-140 -57.5t-57 -140.5t57 -140.5t140 -57.5z" />
    <glyph glyph-name="zero.sinf" horiz-adv-x="410" 
d="M205 -172q-82 0 -128.5 58t-46.5 154t46.5 154t128.5 58t128.5 -58t46.5 -154t-46.5 -154t-128.5 -58zM205 -112q53 0 83 39t30 113t-30 113t-83 39t-83 -39t-30 -113t30 -113t83 -39z" />
    <glyph glyph-name="one.sinf" horiz-adv-x="239" 
d="M126 240h53v-400h-62v332l-91 -27l-16 53z" />
    <glyph glyph-name="two.sinf" horiz-adv-x="341" 
d="M31 -160v51l168 154q42 37 42 85q0 28 -19.5 45t-52.5 17q-62 0 -87 -62l-52 29q38 93 139 93q60 0 97 -35t37 -87q0 -69 -62 -125l-118 -105h188v-60h-280z" />
    <glyph glyph-name="three.sinf" horiz-adv-x="348" 
d="M207 74q50 -10 78 -40.5t28 -76.5q0 -58 -40 -93.5t-106 -35.5q-102 0 -142 84l52 30q25 -54 90 -54q40 0 62 18.5t22 50.5q0 31 -22.5 50t-61.5 19h-4l-31 47l90 107h-184v60h258v-60z" />
    <glyph glyph-name="four.sinf" horiz-adv-x="354" 
d="M334 -27v-58h-51v-75h-62v75h-206v58l149 267h67l-148 -267h138v96h62v-96h51z" />
    <glyph glyph-name="five.sinf" horiz-adv-x="328" 
d="M167 90q63 0 102 -36.5t39 -96.5q0 -59 -38 -94t-105 -35q-102 0 -140 85l53 29q25 -54 87 -54q38 0 59.5 19t21.5 50q0 34 -21.5 53.5t-59.5 19.5h-122l15 210h234v-58h-181l-6 -92h62z" />
    <glyph glyph-name="six.sinf" horiz-adv-x="335" 
d="M167 107q63 0 105.5 -40t42.5 -99t-42.5 -99.5t-105.5 -40.5t-105 40.5t-42 99.5q0 38 19 70v1l3 3l1 2l125 196h75l-92 -134q5 1 16 1zM167 -112q39 0 62.5 22.5t23.5 57.5t-23.5 57t-62.5 22t-62 -22t-23 -57t23.5 -57.5t61.5 -22.5z" />
    <glyph glyph-name="seven.sinf" horiz-adv-x="296" 
d="M10 240h266v-50l-148 -350h-66l146 340h-198v60z" />
    <glyph glyph-name="eight.sinf" horiz-adv-x="335" 
d="M245 51q66 -35 66 -105q0 -54 -39.5 -86t-103.5 -32t-104 32t-40 86q0 71 66 104q-53 32 -53 88q0 53 37.5 83.5t93.5 30.5q55 0 92.5 -30.5t37.5 -83.5q0 -56 -53 -87zM168 194q-33 0 -51 -15t-18 -41q0 -27 18 -43t51 -16q32 0 50 16t18 43q0 26 -17.5 41t-50.5 15z
M168 -112q38 0 59.5 18t21.5 48t-22 47.5t-59 17.5q-40 0 -61 -17t-21 -48q0 -30 21.5 -48t60.5 -18z" />
    <glyph glyph-name="nine.sinf" horiz-adv-x="335" 
d="M296 42v-1q-1 -1 -2 -3l-2 -2l-125 -196h-75l92 134q-5 -1 -16 -1q-63 0 -105.5 40t-42.5 99t42.5 99.5t105.5 40.5t105 -40.5t42 -99.5q0 -38 -19 -70zM82 112q0 -35 23.5 -57t62.5 -22t62 22t23 57t-23.5 57.5t-61.5 22.5q-39 0 -62.5 -22.5t-23.5 -57.5z" />
    <glyph glyph-name="zero.tf" horiz-adv-x="570" 
d="M285 -12q-126 0 -195.5 98.5t-69.5 263.5t69.5 263.5t195.5 98.5t195.5 -98.5t69.5 -263.5t-69.5 -263.5t-195.5 -98.5zM285 56q92 0 143.5 77t51.5 217t-51.5 217t-143.5 77t-143.5 -77t-51.5 -217t51.5 -217t143.5 -77z" />
    <glyph glyph-name="one.tf" horiz-adv-x="570" 
d="M335 66h205v-66h-500v66h225v557l-157 -47l-18 60l185 64h60v-634z" />
    <glyph glyph-name="two.tf" horiz-adv-x="570" 
d="M45 0v63l253 218q73 62 110 110.5t37 100.5q0 71 -44 111.5t-117 40.5q-58 0 -103.5 -31t-69.5 -87l-58 34q32 72 93.5 112t137.5 40q99 0 165 -60t66 -160q0 -69 -44 -131.5t-125 -128.5l-201 -164h385v-68h-485z" />
    <glyph glyph-name="three.tf" horiz-adv-x="570" 
d="M321 409q94 -10 151.5 -63t57.5 -143q0 -101 -72 -158t-183 -57q-88 0 -156.5 42.5t-92.5 115.5l59 34q15 -57 66.5 -90.5t123.5 -33.5q85 0 135 38t50 109t-50 109t-135 38v1l-1 -1h-18l-31 46l191 238h-366v66h450v-66z" />
    <glyph glyph-name="four.tf" horiz-adv-x="570" 
d="M550 206v-66h-90v-140h-70v140h-370v66l260 494h76l-260 -494h294v194h70v-194h90z" />
    <glyph glyph-name="five.tf" horiz-adv-x="570" 
d="M285 418q104 0 174.5 -57.5t70.5 -157.5t-70.5 -157.5t-174.5 -57.5q-88 0 -156.5 42.5t-92.5 115.5l59 34q15 -57 66.5 -90.5t123.5 -33.5q78 0 126.5 38t48.5 109t-48.5 109t-126.5 38h-210l25 350h405v-66h-341l-15 -216h136z" />
    <glyph glyph-name="six.tf" horiz-adv-x="570" 
d="M275 450q116 0 185.5 -63.5t69.5 -167.5t-69.5 -167.5t-185.5 -63.5t-185.5 63.5t-69.5 167.5q0 81 44 139l244 342h83l-182 -256q30 6 66 6zM275 56q88 0 136.5 44t48.5 119t-48.5 119t-136.5 44t-136.5 -44t-48.5 -119t48.5 -119t136.5 -44z" />
    <glyph glyph-name="seven.tf" horiz-adv-x="570" 
d="M40 700h490v-66l-285 -634h-72l284 634h-417v66z" />
    <glyph glyph-name="eight.tf" horiz-adv-x="570" 
d="M418 361q55 -25 86 -69.5t31 -101.5q0 -96 -68.5 -149t-181.5 -53t-181.5 53t-68.5 149q0 57 31 101.5t86 69.5q-93 55 -93 157q0 93 64 143.5t162 50.5t162 -50.5t64 -143.5q0 -102 -93 -157zM285 644q-73 0 -114.5 -31.5t-41.5 -94.5q0 -60 42.5 -93t113.5 -33
t113.5 33t42.5 93q0 63 -41.5 94.5t-114.5 31.5zM285 56q87 0 133.5 35t46.5 99t-46.5 99t-133.5 35t-133.5 -35t-46.5 -99t46.5 -99t133.5 -35z" />
    <glyph glyph-name="nine.tf" horiz-adv-x="570" 
d="M550 481q0 -81 -44 -139l-244 -342h-83l182 256q-30 -6 -66 -6q-116 0 -185.5 63.5t-69.5 167.5t69.5 167.5t185.5 63.5t185.5 -63.5t69.5 -167.5zM110 481q0 -75 48.5 -119t136.5 -44t136.5 44t48.5 119t-48.5 119t-136.5 44t-136.5 -44t-48.5 -119z" />
    <glyph glyph-name="zero.dnom" horiz-adv-x="410" 
d="M205 -12q-82 0 -128.5 58t-46.5 154t46.5 154t128.5 58t128.5 -58t46.5 -154t-46.5 -154t-128.5 -58zM205 48q53 0 83 39t30 113t-30 113t-83 39t-83 -39t-30 -113t30 -113t83 -39z" />
    <glyph glyph-name="one.dnom" horiz-adv-x="247" 
d="M126 400h53v-400h-62v332l-91 -27l-16 53z" />
    <glyph glyph-name="two.dnom" horiz-adv-x="340" 
d="M31 0v51l168 154q42 37 42 85q0 28 -19.5 45t-52.5 17q-62 0 -87 -62l-52 29q38 93 139 93q60 0 97 -35t37 -87q0 -69 -62 -125l-118 -105h188v-60h-280z" />
    <glyph glyph-name="three.dnom" horiz-adv-x="352" 
d="M207 234q50 -10 78 -40.5t28 -76.5q0 -58 -40 -93.5t-106 -35.5q-102 0 -142 84l52 30q25 -54 90 -54q40 0 62 18.5t22 50.5q0 31 -22.5 50t-61.5 19h-4l-31 47l90 107h-184v60h258v-60z" />
    <glyph glyph-name="four.dnom" horiz-adv-x="354" 
d="M334 133v-58h-51v-75h-62v75h-206v58l149 267h67l-148 -267h138v96h62v-96h51z" />
    <glyph glyph-name="five.dnom" horiz-adv-x="341" 
d="M162 250q63 0 102 -36.5t39 -96.5q0 -59 -38 -94t-105 -35q-102 0 -140 85l53 29q25 -54 87 -54q38 0 59.5 19t21.5 50q0 34 -21.5 53.5t-59.5 19.5h-122l15 210h234v-58h-181l-6 -92h62z" />
    <glyph glyph-name="six.dnom" horiz-adv-x="335" 
d="M167 267q63 0 105.5 -40t42.5 -99t-42.5 -99.5t-105.5 -40.5t-105 40.5t-42 99.5q0 38 19 70v1l3 3l1 2l125 196h75l-92 -134q5 1 16 1zM167 48q39 0 62.5 22.5t23.5 57.5t-23.5 57t-62.5 22t-62 -22t-23 -57t23.5 -57.5t61.5 -22.5z" />
    <glyph glyph-name="seven.dnom" horiz-adv-x="296" 
d="M10 400h266v-50l-148 -350h-66l146 340h-198v60z" />
    <glyph glyph-name="eight.dnom" horiz-adv-x="335" 
d="M245 211q66 -35 66 -105q0 -54 -39.5 -86t-103.5 -32t-104 32t-40 86q0 71 66 104q-53 32 -53 88q0 53 37.5 83.5t93.5 30.5q55 0 92.5 -30.5t37.5 -83.5q0 -56 -53 -87zM168 354q-33 0 -51 -15t-18 -41q0 -27 18 -43t51 -16q32 0 50 16t18 43q0 26 -17.5 41t-50.5 15z
M168 48q38 0 59.5 18t21.5 48t-22 47.5t-59 17.5q-40 0 -61 -17t-21 -48q0 -30 21.5 -48t60.5 -18z" />
    <glyph glyph-name="nine.dnom" horiz-adv-x="335" 
d="M296 202v-1q-1 -1 -2 -3l-2 -2l-125 -196h-75l92 134q-5 -1 -16 -1q-63 0 -105.5 40t-42.5 99t42.5 99.5t105.5 40.5t105 -40.5t42 -99.5q0 -38 -19 -70zM82 272q0 -35 23.5 -57t62.5 -22t62 22t23 57t-23.5 57.5t-61.5 22.5q-39 0 -62.5 -22.5t-23.5 -57.5z" />
    <glyph glyph-name="zero.numr" horiz-adv-x="410" 
d="M205 288q-82 0 -128.5 58t-46.5 154t46.5 154t128.5 58t128.5 -58t46.5 -154t-46.5 -154t-128.5 -58zM205 348q53 0 83 39t30 113t-30 113t-83 39t-83 -39t-30 -113t30 -113t83 -39z" />
    <glyph glyph-name="one.numr" horiz-adv-x="247" 
d="M126 700h53v-400h-62v332l-91 -27l-16 53z" />
    <glyph glyph-name="two.numr" horiz-adv-x="340" 
d="M31 300v51l168 154q42 37 42 85q0 28 -19.5 45t-52.5 17q-62 0 -87 -62l-52 29q38 93 139 93q60 0 97 -35t37 -87q0 -69 -62 -125l-118 -105h188v-60h-280z" />
    <glyph glyph-name="three.numr" horiz-adv-x="352" 
d="M207 534q50 -10 78 -40.5t28 -76.5q0 -58 -40 -93.5t-106 -35.5q-102 0 -142 84l52 30q25 -54 90 -54q40 0 62 18.5t22 50.5q0 31 -22.5 50t-61.5 19h-4l-31 47l90 107h-184v60h258v-60z" />
    <glyph glyph-name="four.numr" horiz-adv-x="354" 
d="M334 433v-58h-51v-75h-62v75h-206v58l149 267h67l-148 -267h138v96h62v-96h51z" />
    <glyph glyph-name="five.numr" horiz-adv-x="341" 
d="M162 550q63 0 102 -36.5t39 -96.5q0 -59 -38 -94t-105 -35q-102 0 -140 85l53 29q25 -54 87 -54q38 0 59.5 19t21.5 50q0 34 -21.5 53.5t-59.5 19.5h-122l15 210h234v-58h-181l-6 -92h62z" />
    <glyph glyph-name="six.numr" horiz-adv-x="335" 
d="M167 567q63 0 105.5 -40t42.5 -99t-42.5 -99.5t-105.5 -40.5t-105 40.5t-42 99.5q0 38 19 70v1l3 3l1 2l125 196h75l-92 -134q5 1 16 1zM167 348q39 0 62.5 22.5t23.5 57.5t-23.5 57t-62.5 22t-62 -22t-23 -57t23.5 -57.5t61.5 -22.5z" />
    <glyph glyph-name="seven.numr" horiz-adv-x="296" 
d="M10 700h266v-50l-148 -350h-66l146 340h-198v60z" />
    <glyph glyph-name="eight.numr" horiz-adv-x="335" 
d="M245 511q66 -35 66 -105q0 -54 -39.5 -86t-103.5 -32t-104 32t-40 86q0 71 66 104q-53 32 -53 88q0 53 37.5 83.5t93.5 30.5q55 0 92.5 -30.5t37.5 -83.5q0 -56 -53 -87zM168 654q-33 0 -51 -15t-18 -41q0 -27 18 -43t51 -16q32 0 50 16t18 43q0 26 -17.5 41t-50.5 15z
M168 348q38 0 59.5 18t21.5 48t-22 47.5t-59 17.5q-40 0 -61 -17t-21 -48q0 -30 21.5 -48t60.5 -18z" />
    <glyph glyph-name="nine.numr" horiz-adv-x="335" 
d="M296 502v-1q-1 -1 -2 -3l-2 -2l-125 -196h-75l92 134q-5 -1 -16 -1q-63 0 -105.5 40t-42.5 99t42.5 99.5t105.5 40.5t105 -40.5t42 -99.5q0 -38 -19 -70zM82 572q0 -35 23.5 -57t62.5 -22t62 22t23 57t-23.5 57.5t-61.5 22.5q-39 0 -62.5 -22.5t-23.5 -57.5z" />
    <glyph glyph-name="zero.sups" horiz-adv-x="410" 
d="M205 448q-82 0 -128.5 58t-46.5 154t46.5 154t128.5 58t128.5 -58t46.5 -154t-46.5 -154t-128.5 -58zM205 508q53 0 83 39t30 113t-30 113t-83 39t-83 -39t-30 -113t30 -113t83 -39z" />
    <glyph glyph-name="one.sups" horiz-adv-x="247" 
d="M126 860h53v-400h-62v332l-91 -27l-16 53z" />
    <glyph glyph-name="two.sups" horiz-adv-x="340" 
d="M31 460v51l168 154q42 37 42 85q0 28 -19.5 45t-52.5 17q-62 0 -87 -62l-52 29q38 93 139 93q60 0 97 -35t37 -87q0 -69 -62 -125l-118 -105h188v-60h-280z" />
    <glyph glyph-name="three.sups" horiz-adv-x="352" 
d="M207 694q50 -10 78 -40.5t28 -76.5q0 -58 -40 -93.5t-106 -35.5q-102 0 -142 84l52 30q25 -54 90 -54q40 0 62 18.5t22 50.5q0 31 -22.5 50t-61.5 19h-4l-31 47l90 107h-184v60h258v-60z" />
    <glyph glyph-name="four.sups" horiz-adv-x="354" 
d="M334 593v-58h-51v-75h-62v75h-206v58l149 267h67l-148 -267h138v96h62v-96h51z" />
    <glyph glyph-name="five.sups" horiz-adv-x="341" 
d="M162 710q63 0 102 -36.5t39 -96.5q0 -59 -38 -94t-105 -35q-102 0 -140 85l53 29q25 -54 87 -54q38 0 59.5 19t21.5 50q0 34 -21.5 53.5t-59.5 19.5h-122l15 210h234v-58h-181l-6 -92h62z" />
    <glyph glyph-name="six.sups" horiz-adv-x="335" 
d="M167 727q63 0 105.5 -40t42.5 -99t-42.5 -99.5t-105.5 -40.5t-105 40.5t-42 99.5q0 38 19 70v1l3 3l1 2l125 196h75l-92 -134q5 1 16 1zM167 508q39 0 62.5 22.5t23.5 57.5t-23.5 57t-62.5 22t-62 -22t-23 -57t23.5 -57.5t61.5 -22.5z" />
    <glyph glyph-name="seven.sups" horiz-adv-x="296" 
d="M10 860h266v-50l-148 -350h-66l146 340h-198v60z" />
    <glyph glyph-name="eight.sups" horiz-adv-x="335" 
d="M245 671q66 -35 66 -105q0 -54 -39.5 -86t-103.5 -32t-104 32t-40 86q0 71 66 104q-53 32 -53 88q0 53 37.5 83.5t93.5 30.5q55 0 92.5 -30.5t37.5 -83.5q0 -56 -53 -87zM168 814q-33 0 -51 -15t-18 -41q0 -27 18 -43t51 -16q32 0 50 16t18 43q0 26 -17.5 41t-50.5 15z
M168 508q38 0 59.5 18t21.5 48t-22 47.5t-59 17.5q-40 0 -61 -17t-21 -48q0 -30 21.5 -48t60.5 -18z" />
    <glyph glyph-name="nine.sups" horiz-adv-x="335" 
d="M296 662v-1q-1 -1 -2 -3l-2 -2l-125 -196h-75l92 134q-5 -1 -16 -1q-63 0 -105.5 40t-42.5 99t42.5 99.5t105.5 40.5t105 -40.5t42 -99.5q0 -38 -19 -70zM82 732q0 -35 23.5 -57t62.5 -22t62 22t23 57t-23.5 57.5t-61.5 22.5q-39 0 -62.5 -22.5t-23.5 -57.5z" />
    <glyph glyph-name="cent.tf" horiz-adv-x="570" 
d="M480 250l55 -32q-31 -60 -91 -95t-133 -35q-33 0 -68 8l-31 -96h-50l36 112q-69 30 -109.5 94t-40.5 144q0 111 75 186.5t188 75.5q27 0 47 -4l30 92h50l-34 -105q89 -33 126 -114l-54 -31q-28 59 -91 84l-122 -376q23 -6 48 -6q56 0 100 26.5t69 71.5zM114 350
q0 -57 28.5 -104t75.5 -72l120 372q-18 2 -27 2q-83 0 -140 -57.5t-57 -140.5z" />
    <glyph glyph-name="dollar.tf" horiz-adv-x="570" 
d="M530 182q0 -80 -55 -132t-145 -60v-90h-60v89q-172 11 -230 155l60 35q36 -113 170 -122v275q-47 14 -77.5 27.5t-60 35.5t-43.5 54.5t-14 76.5q0 78 54.5 127.5t140.5 57.5v89h60v-90q136 -13 185 -139l-59 -33q-32 92 -126 104v-259q96 -29 148 -73t52 -128zM145 526
q0 -48 30 -76t95 -49v242q-58 -6 -91.5 -37t-33.5 -80zM330 58q62 7 96 40.5t34 83.5q0 51 -32 80.5t-98 50.5v-255z" />
    <glyph glyph-name="Euro.tf" horiz-adv-x="570" 
d="M485 172l57 -32q-23 -74 -76 -113t-126 -39q-103 0 -168 74.5t-82 203.5h-65v58h60v26q0 23 1 34h-61v58h66q18 125 83 197.5t166 72.5q71 0 122.5 -36.5t75.5 -106.5l-58 -33q-17 53 -54 80.5t-86 27.5q-70 0 -116.5 -52.5t-61.5 -149.5h243v-58h-249q-1 -11 -1 -34v-26
h250v-58h-245q14 -101 61 -155.5t119 -54.5q50 0 88.5 29.5t56.5 86.5z" />
    <glyph glyph-name="florin.tf" horiz-adv-x="570" 
d="M540 639q-117 40 -143 -68l-47 -188h150v-64h-166l-96 -388q-44 -177 -208 -132v64q116 -40 142 68l96 388h-149v64h165l47 188q44 178 209 132v-64z" />
    <glyph glyph-name="uni20BD.tf" horiz-adv-x="570" 
d="M330 280h-160v-94h240v-58h-240v-128h-70v128h-90v58h90v94h-90v66h90v354h230q87 0 148.5 -61.5t61.5 -148.5q0 -86 -61.5 -148t-148.5 -62zM170 634v-288h160q58 0 99 42.5t41 101.5q0 60 -41 102t-99 42h-160z" />
    <glyph glyph-name="sterling.tf" horiz-adv-x="570" 
d="M194 68h366v-68h-530v68h94v221h-74v62h74v151q0 101 61 155.5t144 54.5q137 0 191 -134l-57 -32q-36 98 -134 98q-57 0 -96 -35.5t-39 -106.5v-151h231v-62h-231v-221z" />
    <glyph glyph-name="yen.tf" horiz-adv-x="570" 
d="M563 700l-229 -353h167v-58h-181v-60h181v-58h-181v-171h-70v171h-179v58h179v60h-179v58h166l-229 353h77l201 -309l200 309h77z" />
    <glyph glyph-name="brevecy" horiz-adv-x="300" 
d="M20 580v58h260v-58h-260z" />
    </font>
</defs>
</svg>
